solid 
facet normal 0.26069102 -7.192956e-08 -0.9654222
 outer loop
  vertex 8.06646e-17 -1.2067099e-17 1.2143101e-17
  vertex 0.185166 3.774895e-09 0.05
  vertex 0.185166 -0.049999997 0.050000004
 endloop
endfacet
facet normal 0.26069102 0.9654222 -7.192956e-08
 outer loop
  vertex 0.185166 -0.049999997 0.050000004
  vertex 0.185166 -0.05 3.774895e-09
  vertex 8.06646e-17 -1.2067099e-17 1.2143101e-17
 endloop
endfacet
facet normal 0.19320412 -8.1300335e-08 -0.98115855
 outer loop
  vertex 0.185166 3.774895e-09 0.05
  vertex 0.211157 4.161293e-09 0.055118
  vertex 0.211157 -0.044957995 0.055118002
 endloop
endfacet
facet normal 0.19320434 5.4655956e-08 -0.9811585
 outer loop
  vertex 0.211157 -0.044957995 0.055118002
  vertex 0.185359 -0.050037995 0.050038002
  vertex 0.185166 3.774895e-09 0.05
 endloop
endfacet
facet normal 0.19317248 -7.310247e-08 -0.9811648
 outer loop
  vertex 0.185359 -0.050037995 0.050038002
  vertex 0.185166 -0.049999997 0.050000004
  vertex 0.185166 3.774895e-09 0.05
 endloop
endfacet
facet normal 0.19320433 0.9811585 -2.0057786e-07
 outer loop
  vertex 0.185166 -0.05 3.774895e-09
  vertex 0.185359 -0.050037995 0.050038002
  vertex 0.211157 -0.055117995 0.044958003
 endloop
endfacet
facet normal 0.1931725 0.9811648 -7.310247e-08
 outer loop
  vertex 0.185166 -0.05 3.774895e-09
  vertex 0.185166 -0.049999997 0.050000004
  vertex 0.185359 -0.050037995 0.050038002
 endloop
endfacet
facet normal 0.19320412 0.98115855 -8.1300335e-08
 outer loop
  vertex 0.211157 -0.055117995 0.044958003
  vertex 0.211157 -0.055118 4.161293e-09
  vertex 0.185166 -0.05 3.774895e-09
 endloop
endfacet
facet normal 0 0.70710677 -0.70710677
 outer loop
  vertex 0.366268 -0.050037995 0.050038002
  vertex 0.366268 -0.055117995 0.044958003
  vertex 0.211157 -0.055117995 0.044958003
 endloop
endfacet
facet normal 0 0.70710677 -0.70710677
 outer loop
  vertex 0.366268 -0.050037995 0.050038002
  vertex 0.185359 -0.050037995 0.050038002
  vertex 0.211157 -0.044957995 0.055118002
 endloop
endfacet
facet normal 0 0.70710677 -0.70710677
 outer loop
  vertex 0.211157 -0.044957995 0.055118002
  vertex 0.366268 -0.044957995 0.055118002
  vertex 0.366268 -0.050037995 0.050038002
 endloop
endfacet
facet normal 0 0.70710677 -0.70710677
 outer loop
  vertex 0.211157 -0.055117995 0.044958003
  vertex 0.185359 -0.050037995 0.050038002
  vertex 0.366268 -0.050037995 0.050038002
 endloop
endfacet
facet normal 0 -8.286157e-08 -1
 outer loop
  vertex 0.366268 -0.044957995 0.055118002
  vertex 0.211157 -0.044957995 0.055118002
  vertex 0.272598 4.161293e-09 0.055118
 endloop
endfacet
facet normal -0 -8.286157e-08 -1
 outer loop
  vertex 0.211157 -0.044957995 0.055118002
  vertex 0.211157 4.161293e-09 0.055118
  vertex 0.272598 4.161293e-09 0.055118
 endloop
endfacet
facet normal 3.9770363e-08 0 -1
 outer loop
  vertex 0.272598 4.161293e-09 0.055118
  vertex 0.366268 -0.025519196 0.055118002
  vertex 0.366268 -0.044957995 0.055118002
 endloop
endfacet
facet normal -3.9770363e-08 1 0
 outer loop
  vertex 0.366268 -0.055117995 0.044958003
  vertex 0.366268 -0.055117995 0.025519203
  vertex 0.272598 -0.055118 4.161293e-09
 endloop
endfacet
facet normal 0 1 -8.286157e-08
 outer loop
  vertex 0.272598 -0.055118 4.161293e-09
  vertex 0.211157 -0.055117995 0.044958003
  vertex 0.366268 -0.055117995 0.044958003
 endloop
endfacet
facet normal 0 1 -8.286157e-08
 outer loop
  vertex 0.272598 -0.055118 4.161293e-09
  vertex 0.211157 -0.055118 4.161293e-09
  vertex 0.211157 -0.055117995 0.044958003
 endloop
endfacet
facet normal 0.23159339 0.8500904 -0.47298083
 outer loop
  vertex 0.366268 -0.022079397 0.0570567
  vertex 0.285223 4.307661e-09 0.0570567
  vertex 0.285513 4.3183817e-09 0.0571987
 endloop
endfacet
facet normal 0.2262618 0.83051646 -0.5089676
 outer loop
  vertex 0.366268 -0.022164496 0.056918
  vertex 0.284911 4.2971893e-09 0.056918
  vertex 0.285223 4.307661e-09 0.0570567
 endloop
endfacet
facet normal 0.22035871 0.8088447 -0.54517186
 outer loop
  vertex 0.366268 -0.022255596 0.056783
  vertex 0.284577 4.286997e-09 0.056783
  vertex 0.284911 4.2971893e-09 0.056918
 endloop
endfacet
facet normal 0.21405034 0.7856925 -0.5804047
 outer loop
  vertex 0.366268 -0.022352496 0.0566517
  vertex 0.284221 4.2770845e-09 0.0566517
  vertex 0.284577 4.286997e-09 0.056783
 endloop
endfacet
facet normal 0.20729402 0.76089644 -0.6148706
 outer loop
  vertex 0.366268 -0.022455096 0.0565246
  vertex 0.283844 4.2674886e-09 0.0565246
  vertex 0.284221 4.2770845e-09 0.0566517
 endloop
endfacet
facet normal 0.20058563 0.73626524 -0.6462808
 outer loop
  vertex 0.366268 -0.022563197 0.0564017
  vertex 0.283448 4.25821e-09 0.0564017
  vertex 0.283844 4.2674886e-09 0.0565246
 endloop
endfacet
facet normal 0.18901448 0.69395065 -0.69477046
 outer loop
  vertex 0.366268 -0.022676496 0.0562834
  vertex 0.283022 4.2494595e-09 0.0562858
  vertex 0.283448 4.25821e-09 0.0564017
 endloop
endfacet
facet normal 0.18933475 0.6949695 -0.693664
 outer loop
  vertex 0.366268 -0.022794995 0.0561698
  vertex 0.282597 4.240702e-09 0.0561698
  vertex 0.283022 4.2494595e-09 0.0562858
 endloop
endfacet
facet normal 0.173138 0.6356668 -0.7522971
 outer loop
  vertex 0.366268 -0.022918297 0.0560611
  vertex 0.282136 4.2326915e-09 0.0560637
  vertex 0.282597 4.240702e-09 0.0561698
 endloop
endfacet
facet normal 0.17316076 0.63560104 -0.7523474
 outer loop
  vertex 0.366268 -0.023046196 0.0559576
  vertex 0.281675 4.2246815e-09 0.0559576
  vertex 0.282136 4.2326915e-09 0.0560637
 endloop
endfacet
facet normal 0.15572388 0.57174504 -0.805517
 outer loop
  vertex 0.366268 -0.023178596 0.0558594
  vertex 0.281181 4.2174713e-09 0.0558621
  vertex 0.281675 4.2246815e-09 0.0559576
 endloop
endfacet
facet normal 0.1557327 0.571634 -0.8055941
 outer loop
  vertex 0.366268 -0.023315197 0.0557666
  vertex 0.280687 4.2102615e-09 0.0557666
  vertex 0.281181 4.2174713e-09 0.0558621
 endloop
endfacet
facet normal 0.13735129 0.50430524 -0.852532
 outer loop
  vertex 0.366268 -0.023455696 0.0556796
  vertex 0.280165 4.203912e-09 0.0556825
  vertex 0.280687 4.2102615e-09 0.0557666
 endloop
endfacet
facet normal 0.13728814 0.50393116 -0.85276335
 outer loop
  vertex 0.366268 -0.023599897 0.0555983
  vertex 0.279642 4.1975547e-09 0.0555983
  vertex 0.280165 4.203912e-09 0.0556825
 endloop
endfacet
facet normal 0.11297655 0.4149762 -0.9027907
 outer loop
  vertex 0.366268 -0.023747597 0.055523
  vertex 0.279089 4.1923305e-09 0.0555291
  vertex 0.279642 4.1975547e-09 0.0555983
 endloop
endfacet
facet normal 0.11296664 0.41493952 -0.9028088
 outer loop
  vertex 0.366268 -0.023898397 0.0554537
  vertex 0.278536 4.187106e-09 0.0554599
  vertex 0.279089 4.1923305e-09 0.0555291
 endloop
endfacet
facet normal 0.11299002 0.41473818 -0.9028984
 outer loop
  vertex 0.366268 -0.024052097 0.0553907
  vertex 0.277983 4.1818815e-09 0.0553907
  vertex 0.278536 4.187106e-09 0.0554599
 endloop
endfacet
facet normal 0.081949525 0.30108482 -0.9500696
 outer loop
  vertex 0.366268 -0.024208397 0.055334
  vertex 0.277401 4.1780917e-09 0.0553405
  vertex 0.277983 4.1818815e-09 0.0553907
 endloop
endfacet
facet normal 0.081944115 0.30106157 -0.9500774
 outer loop
  vertex 0.366268 -0.024367096 0.0552838
  vertex 0.276819 4.174302e-09 0.0552903
  vertex 0.277401 4.1780917e-09 0.0553405
 endloop
endfacet
facet normal 0.08210302 0.30136487 -0.94996756
 outer loop
  vertex 0.366268 -0.024527796 0.05524
  vertex 0.276237 4.1705044e-09 0.05524
  vertex 0.276819 4.174302e-09 0.0552903
 endloop
endfacet
facet normal 0.049591716 0.18230721 -0.98199016
 outer loop
  vertex 0.366268 -0.024690297 0.055202905
  vertex 0.275635 4.168209e-09 0.0552096
  vertex 0.276237 4.1705044e-09 0.05524
 endloop
endfacet
facet normal 0.04974407 0.18286483 -0.9818788
 outer loop
  vertex 0.366268 -0.024854297 0.055172402
  vertex 0.275033 4.1659063e-09 0.0551791
  vertex 0.275635 4.168209e-09 0.0552096
 endloop
endfacet
facet normal 0.049827438 0.1828953 -0.98186886
 outer loop
  vertex 0.366268 -0.025019497 0.055148605
  vertex 0.274432 4.1636037e-09 0.0551486
  vertex 0.275033 4.1659063e-09 0.0551791
 endloop
endfacet
facet normal 0.01663299 0.06132384 -0.99797934
 outer loop
  vertex 0.366268 -0.025185496 0.055131603
  vertex 0.27382 4.1628336e-09 0.0551384
  vertex 0.274432 4.1636037e-09 0.0551486
 endloop
endfacet
facet normal 0.016659657 0.06141936 -0.9979731
 outer loop
  vertex 0.366268 -0.025352197 0.055121403
  vertex 0.273209 4.1620636e-09 0.0551282
  vertex 0.27382 4.1628336e-09 0.0551384
 endloop
endfacet
facet normal 0.01666599 0.06117354 -0.997988
 outer loop
  vertex 0.366268 -0.025519196 0.055118002
  vertex 0.272598 4.161293e-09 0.055118
  vertex 0.273209 4.1620636e-09 0.0551282
 endloop
endfacet
facet normal 0.005474203 0.02036198 -0.9997777
 outer loop
  vertex 0.273209 4.1620636e-09 0.0551282
  vertex 0.366268 -0.025352197 0.055121403
  vertex 0.366268 -0.025519196 0.055118002
 endloop
endfacet
facet normal 0.016562153 0.06106382 -0.99799645
 outer loop
  vertex 0.27382 4.1628336e-09 0.0551384
  vertex 0.366268 -0.025185496 0.055131603
  vertex 0.366268 -0.025352197 0.055121403
 endloop
endfacet
facet normal 0.027748106 0.1018514 -0.99441254
 outer loop
  vertex 0.274432 4.1636037e-09 0.0551486
  vertex 0.366268 -0.025019497 0.055148605
  vertex 0.366268 -0.025185496 0.055131603
 endloop
endfacet
facet normal 0.038739692 0.14247195 -0.98904043
 outer loop
  vertex 0.275033 4.1659063e-09 0.0551791
  vertex 0.366268 -0.024854297 0.055172402
  vertex 0.366268 -0.025019497 0.055148605
 endloop
endfacet
facet normal 0.049679633 0.18262991 -0.9819258
 outer loop
  vertex 0.275635 4.168209e-09 0.0552096
  vertex 0.366268 -0.024690297 0.055202905
  vertex 0.366268 -0.024854297 0.055172402
 endloop
endfacet
facet normal 0.060522217 0.22215101 -0.9731321
 outer loop
  vertex 0.276237 4.1705044e-09 0.05524
  vertex 0.366268 -0.024527796 0.05524
  vertex 0.366268 -0.024690297 0.055202905
 endloop
endfacet
facet normal 0.07137993 0.26228485 -0.9623469
 outer loop
  vertex 0.276819 4.174302e-09 0.0552903
  vertex 0.366268 -0.024367096 0.0552838
  vertex 0.366268 -0.024527796 0.05524
 endloop
endfacet
facet normal 0.08181542 0.30059257 -0.95023704
 outer loop
  vertex 0.277401 4.1780917e-09 0.0553405
  vertex 0.366268 -0.024208397 0.055334
  vertex 0.366268 -0.024367096 0.0552838
 endloop
endfacet
facet normal 0.09250607 0.33955032 -0.9360279
 outer loop
  vertex 0.277983 4.1818815e-09 0.0553907
  vertex 0.366268 -0.024052097 0.0553907
  vertex 0.366268 -0.024208397 0.055334
 endloop
endfacet
facet normal 0.10269929 0.37725222 -0.92039865
 outer loop
  vertex 0.278536 4.187106e-09 0.0554599
  vertex 0.366268 -0.023898397 0.0554537
  vertex 0.366268 -0.024052097 0.0553907
 endloop
endfacet
facet normal 0.112956695 0.41490328 -0.9028267
 outer loop
  vertex 0.279089 4.1923305e-09 0.0555291
  vertex 0.366268 -0.023747597 0.055523
  vertex 0.366268 -0.023898397 0.0554537
 endloop
endfacet
facet normal 0.12280113 0.45075503 -0.88416046
 outer loop
  vertex 0.279642 4.1975547e-09 0.0555983
  vertex 0.366268 -0.023599897 0.0555983
  vertex 0.366268 -0.023747597 0.055523
 endloop
endfacet
facet normal 0.13257906 0.4867883 -0.8634002
 outer loop
  vertex 0.280165 4.203912e-09 0.0556825
  vertex 0.366268 -0.023455696 0.0556796
  vertex 0.366268 -0.023599897 0.0555983
 endloop
endfacet
facet normal 0.14197358 0.52112967 -0.8415862
 outer loop
  vertex 0.280687 4.2102615e-09 0.0557666
  vertex 0.366268 -0.023315197 0.0557666
  vertex 0.366268 -0.023455696 0.0556796
 endloop
endfacet
facet normal 0.1512921 0.55547774 -0.8176523
 outer loop
  vertex 0.281181 4.2174713e-09 0.0558621
  vertex 0.366268 -0.023178596 0.0558594
  vertex 0.366268 -0.023315197 0.0557666
 endloop
endfacet
facet normal 0.160198 0.58802015 -0.79282343
 outer loop
  vertex 0.281675 4.2246815e-09 0.0559576
  vertex 0.366268 -0.023046196 0.0559576
  vertex 0.366268 -0.023178596 0.0558594
 endloop
endfacet
facet normal 0.16887702 0.62002665 -0.7661903
 outer loop
  vertex 0.282136 4.2326915e-09 0.0560637
  vertex 0.366268 -0.022918297 0.0560611
  vertex 0.366268 -0.023046196 0.0559576
 endloop
endfacet
facet normal 0.17730631 0.6508181 -0.73823994
 outer loop
  vertex 0.282597 4.240702e-09 0.0561698
  vertex 0.366268 -0.022794995 0.0561698
  vertex 0.366268 -0.022918297 0.0560611
 endloop
endfacet
facet normal 0.18522681 0.68004745 -0.7093845
 outer loop
  vertex 0.283022 4.2494595e-09 0.0562858
  vertex 0.366268 -0.022676496 0.0562834
  vertex 0.366268 -0.022794995 0.0561698
 endloop
endfacet
facet normal 0.19305448 0.7086217 -0.6786643
 outer loop
  vertex 0.283448 4.25821e-09 0.0564017
  vertex 0.366268 -0.022563197 0.0564017
  vertex 0.366268 -0.022676496 0.0562834
 endloop
endfacet
facet normal 0.20041288 0.7356384 -0.6470478
 outer loop
  vertex 0.283844 4.2674886e-09 0.0565246
  vertex 0.366268 -0.022455096 0.0565246
  vertex 0.366268 -0.022563197 0.0564017
 endloop
endfacet
facet normal 0.2073769 0.761197 -0.6144705
 outer loop
  vertex 0.284221 4.2770845e-09 0.0566517
  vertex 0.366268 -0.022352496 0.0566517
  vertex 0.366268 -0.022455096 0.0565246
 endloop
endfacet
facet normal 0.21411932 0.78594244 -0.5800409
 outer loop
  vertex 0.284577 4.286997e-09 0.056783
  vertex 0.366268 -0.022255596 0.056783
  vertex 0.366268 -0.022352496 0.0566517
 endloop
endfacet
facet normal 0.22028008 0.80855995 -0.5456257
 outer loop
  vertex 0.284911 4.2971893e-09 0.056918
  vertex 0.366268 -0.022164496 0.056918
  vertex 0.366268 -0.022255596 0.056783
 endloop
endfacet
facet normal 0.22619273 0.83026665 -0.5094058
 outer loop
  vertex 0.285223 4.307661e-09 0.0570567
  vertex 0.366268 -0.022079397 0.0570567
  vertex 0.366268 -0.022164496 0.056918
 endloop
endfacet
facet normal 0.23166388 0.8503451 -0.47248825
 outer loop
  vertex 0.285513 4.3183817e-09 0.0571987
  vertex 0.366268 -0.022000495 0.0571987
  vertex 0.366268 -0.022079397 0.0570567
 endloop
endfacet
facet normal 0.23421882 0.8597232 -0.45389155
 outer loop
  vertex 0.366268 7.464493e-09 0.0988702
  vertex 0.366268 -0.022000495 0.0571987
  vertex 0.285513 4.3183817e-09 0.0571987
 endloop
endfacet
facet normal 0.005474123 0.9997777 -0.02036198
 outer loop
  vertex 0.366268 -0.055117995 0.025519203
  vertex 0.366268 -0.055121396 0.025352204
  vertex 0.273209 -0.0551282 4.1620636e-09
 endloop
endfacet
facet normal 0.01656207 0.99799645 -0.06106382
 outer loop
  vertex 0.366268 -0.055121396 0.025352204
  vertex 0.366268 -0.055131596 0.025185503
  vertex 0.27382 -0.0551384 4.1628336e-09
 endloop
endfacet
facet normal 0.027748028 0.99441266 -0.10185142
 outer loop
  vertex 0.366268 -0.055131596 0.025185503
  vertex 0.366268 -0.055148598 0.025019504
  vertex 0.274432 -0.0551486 4.1636037e-09
 endloop
endfacet
facet normal 0.03873961 0.98904043 -0.14247195
 outer loop
  vertex 0.366268 -0.055148598 0.025019504
  vertex 0.366268 -0.055172395 0.024854304
  vertex 0.275033 -0.0551791 4.1659063e-09
 endloop
endfacet
facet normal 0.04967955 0.9819258 -0.18262991
 outer loop
  vertex 0.366268 -0.055172395 0.024854304
  vertex 0.366268 -0.055202898 0.024690304
  vertex 0.275635 -0.0552096 4.168209e-09
 endloop
endfacet
facet normal 0.060533725 0.9731217 -0.22219326
 outer loop
  vertex 0.366268 -0.055202898 0.024690304
  vertex 0.366268 -0.05524 0.024527803
  vertex 0.276237 -0.05524 4.1705044e-09
 endloop
endfacet
facet normal 0.07137994 0.962347 -0.26228487
 outer loop
  vertex 0.366268 -0.05524 0.024527803
  vertex 0.366268 -0.0552838 0.024367103
  vertex 0.276819 -0.0552903 4.174302e-09
 endloop
endfacet
facet normal 0.08181542 0.95023704 -0.30059257
 outer loop
  vertex 0.366268 -0.0552838 0.024367103
  vertex 0.366268 -0.055334 0.024208404
  vertex 0.277401 -0.0553405 4.1780917e-09
 endloop
endfacet
facet normal 0.09250608 0.93602794 -0.33955035
 outer loop
  vertex 0.366268 -0.055334 0.024208404
  vertex 0.366268 -0.0553907 0.024052104
  vertex 0.277983 -0.0553907 4.1818815e-09
 endloop
endfacet
facet normal 0.10269929 0.92039865 -0.37725222
 outer loop
  vertex 0.366268 -0.0553907 0.024052104
  vertex 0.366268 -0.0554537 0.023898404
  vertex 0.278536 -0.0554599 4.187106e-09
 endloop
endfacet
facet normal 0.112956695 0.9028267 -0.41490328
 outer loop
  vertex 0.366268 -0.0554537 0.023898404
  vertex 0.366268 -0.055523 0.023747604
  vertex 0.279089 -0.0555291 4.1923305e-09
 endloop
endfacet
facet normal 0.12280113 0.88416046 -0.45075503
 outer loop
  vertex 0.366268 -0.055523 0.023747604
  vertex 0.366268 -0.0555983 0.023599904
  vertex 0.279642 -0.0555983 4.1975547e-09
 endloop
endfacet
facet normal 0.13257906 0.8634002 -0.4867883
 outer loop
  vertex 0.366268 -0.0555983 0.023599904
  vertex 0.366268 -0.0556796 0.023455704
  vertex 0.280165 -0.0556825 4.203912e-09
 endloop
endfacet
facet normal 0.14197358 0.8415862 -0.52112967
 outer loop
  vertex 0.366268 -0.0556796 0.023455704
  vertex 0.366268 -0.0557666 0.023315204
  vertex 0.280687 -0.0557666 4.2102615e-09
 endloop
endfacet
facet normal 0.1512921 0.8176523 -0.55547774
 outer loop
  vertex 0.366268 -0.0557666 0.023315204
  vertex 0.366268 -0.0558594 0.023178604
  vertex 0.281181 -0.0558621 4.2174713e-09
 endloop
endfacet
facet normal 0.160198 0.7928234 -0.58802015
 outer loop
  vertex 0.366268 -0.0558594 0.023178604
  vertex 0.366268 -0.0559576 0.023046203
  vertex 0.281675 -0.0559576 4.2246815e-09
 endloop
endfacet
facet normal 0.16887702 0.7661903 -0.62002665
 outer loop
  vertex 0.366268 -0.0559576 0.023046203
  vertex 0.366268 -0.0560611 0.022918304
  vertex 0.282136 -0.0560637 4.2326915e-09
 endloop
endfacet
facet normal 0.17730631 0.73823994 -0.6508181
 outer loop
  vertex 0.366268 -0.0560611 0.022918304
  vertex 0.366268 -0.0561698 0.022795003
  vertex 0.282597 -0.0561698 4.240702e-09
 endloop
endfacet
facet normal 0.18522681 0.7093845 -0.68004745
 outer loop
  vertex 0.366268 -0.0561698 0.022795003
  vertex 0.366268 -0.0562834 0.022676503
  vertex 0.283022 -0.0562858 4.2494595e-09
 endloop
endfacet
facet normal 0.19305448 0.6786643 -0.7086217
 outer loop
  vertex 0.366268 -0.0562834 0.022676503
  vertex 0.366268 -0.0564017 0.022563204
  vertex 0.283448 -0.0564017 4.25821e-09
 endloop
endfacet
facet normal 0.20041288 0.6470478 -0.7356384
 outer loop
  vertex 0.366268 -0.0564017 0.022563204
  vertex 0.366268 -0.0565246 0.022455104
  vertex 0.283844 -0.0565246 4.2674886e-09
 endloop
endfacet
facet normal 0.2073769 0.6144705 -0.761197
 outer loop
  vertex 0.366268 -0.0565246 0.022455104
  vertex 0.366268 -0.0566517 0.022352504
  vertex 0.284221 -0.0566517 4.2770845e-09
 endloop
endfacet
facet normal 0.21411932 0.5800409 -0.78594244
 outer loop
  vertex 0.366268 -0.0566517 0.022352504
  vertex 0.366268 -0.056783 0.022255603
  vertex 0.284577 -0.056783 4.286997e-09
 endloop
endfacet
facet normal 0.22028008 0.5456257 -0.80855995
 outer loop
  vertex 0.366268 -0.056783 0.022255603
  vertex 0.366268 -0.056918 0.022164503
  vertex 0.284911 -0.056918 4.2971893e-09
 endloop
endfacet
facet normal 0.22619273 0.5094058 -0.83026665
 outer loop
  vertex 0.366268 -0.056918 0.022164503
  vertex 0.366268 -0.0570567 0.022079404
  vertex 0.285223 -0.0570567 4.307661e-09
 endloop
endfacet
facet normal 0.23166388 0.47248825 -0.8503451
 outer loop
  vertex 0.366268 -0.0570567 0.022079404
  vertex 0.366268 -0.0571987 0.022000503
  vertex 0.285513 -0.0571987 4.3183817e-09
 endloop
endfacet
facet normal 0.2315934 0.47298074 -0.85009044
 outer loop
  vertex 0.285513 -0.0571987 4.3183817e-09
  vertex 0.285223 -0.0570567 4.307661e-09
  vertex 0.366268 -0.0570567 0.022079404
 endloop
endfacet
facet normal 0.22626181 0.50896746 -0.8305165
 outer loop
  vertex 0.285223 -0.0570567 4.307661e-09
  vertex 0.284911 -0.056918 4.2971893e-09
  vertex 0.366268 -0.056918 0.022164503
 endloop
endfacet
facet normal 0.22035873 0.54517174 -0.80884475
 outer loop
  vertex 0.284911 -0.056918 4.2971893e-09
  vertex 0.284577 -0.056783 4.286997e-09
  vertex 0.366268 -0.056783 0.022255603
 endloop
endfacet
facet normal 0.21405037 0.58040464 -0.78569263
 outer loop
  vertex 0.284577 -0.056783 4.286997e-09
  vertex 0.284221 -0.0566517 4.2770845e-09
  vertex 0.366268 -0.0566517 0.022352504
 endloop
endfacet
facet normal 0.20729403 0.61487055 -0.76089644
 outer loop
  vertex 0.284221 -0.0566517 4.2770845e-09
  vertex 0.283844 -0.0565246 4.2674886e-09
  vertex 0.366268 -0.0565246 0.022455104
 endloop
endfacet
facet normal 0.20058563 0.64628077 -0.7362653
 outer loop
  vertex 0.283844 -0.0565246 4.2674886e-09
  vertex 0.283448 -0.0564017 4.25821e-09
  vertex 0.366268 -0.0564017 0.022563204
 endloop
endfacet
facet normal 0.18901451 0.6947704 -0.6939507
 outer loop
  vertex 0.283448 -0.0564017 4.25821e-09
  vertex 0.283022 -0.0562858 4.2494595e-09
  vertex 0.366268 -0.0562834 0.022676503
 endloop
endfacet
facet normal 0.18933477 0.69366395 -0.6949695
 outer loop
  vertex 0.283022 -0.0562858 4.2494595e-09
  vertex 0.282597 -0.0561698 4.240702e-09
  vertex 0.366268 -0.0561698 0.022795003
 endloop
endfacet
facet normal 0.17313801 0.75229704 -0.6356669
 outer loop
  vertex 0.282597 -0.0561698 4.240702e-09
  vertex 0.282136 -0.0560637 4.2326915e-09
  vertex 0.366268 -0.0560611 0.022918304
 endloop
endfacet
facet normal 0.17316076 0.75234735 -0.6356011
 outer loop
  vertex 0.282136 -0.0560637 4.2326915e-09
  vertex 0.281675 -0.0559576 4.2246815e-09
  vertex 0.366268 -0.0559576 0.023046203
 endloop
endfacet
facet normal 0.1557239 0.8055169 -0.5717451
 outer loop
  vertex 0.281675 -0.0559576 4.2246815e-09
  vertex 0.281181 -0.0558621 4.2174713e-09
  vertex 0.366268 -0.0558594 0.023178604
 endloop
endfacet
facet normal 0.15573272 0.805594 -0.57163405
 outer loop
  vertex 0.281181 -0.0558621 4.2174713e-09
  vertex 0.280687 -0.0557666 4.2102615e-09
  vertex 0.366268 -0.0557666 0.023315204
 endloop
endfacet
facet normal 0.1373513 0.85253197 -0.50430524
 outer loop
  vertex 0.280687 -0.0557666 4.2102615e-09
  vertex 0.280165 -0.0556825 4.203912e-09
  vertex 0.366268 -0.0556796 0.023455704
 endloop
endfacet
facet normal 0.13728815 0.85276335 -0.5039312
 outer loop
  vertex 0.280165 -0.0556825 4.203912e-09
  vertex 0.279642 -0.0555983 4.1975547e-09
  vertex 0.366268 -0.0555983 0.023599904
 endloop
endfacet
facet normal 0.112976566 0.9027907 -0.41497627
 outer loop
  vertex 0.279642 -0.0555983 4.1975547e-09
  vertex 0.279089 -0.0555291 4.1923305e-09
  vertex 0.366268 -0.055523 0.023747604
 endloop
endfacet
facet normal 0.11296666 0.9028087 -0.41493958
 outer loop
  vertex 0.279089 -0.0555291 4.1923305e-09
  vertex 0.278536 -0.0554599 4.187106e-09
  vertex 0.366268 -0.0554537 0.023898404
 endloop
endfacet
facet normal 0.11299004 0.9028983 -0.41473824
 outer loop
  vertex 0.278536 -0.0554599 4.187106e-09
  vertex 0.277983 -0.0553907 4.1818815e-09
  vertex 0.366268 -0.0553907 0.024052104
 endloop
endfacet
facet normal 0.081949525 0.9500696 -0.30108482
 outer loop
  vertex 0.277983 -0.0553907 4.1818815e-09
  vertex 0.277401 -0.0553405 4.1780917e-09
  vertex 0.366268 -0.055334 0.024208404
 endloop
endfacet
facet normal 0.081944115 0.9500774 -0.30106157
 outer loop
  vertex 0.277401 -0.0553405 4.1780917e-09
  vertex 0.276819 -0.0552903 4.174302e-09
  vertex 0.366268 -0.0552838 0.024367103
 endloop
endfacet
facet normal 0.08210302 0.94996756 -0.30136487
 outer loop
  vertex 0.276819 -0.0552903 4.174302e-09
  vertex 0.276237 -0.05524 4.1705044e-09
  vertex 0.366268 -0.05524 0.024527803
 endloop
endfacet
facet normal 0.049591716 0.98199016 -0.18230753
 outer loop
  vertex 0.276237 -0.05524 4.1705044e-09
  vertex 0.275635 -0.0552096 4.168209e-09
  vertex 0.366268 -0.055202898 0.024690304
 endloop
endfacet
facet normal 0.049744066 0.98187876 -0.18286511
 outer loop
  vertex 0.275635 -0.0552096 4.168209e-09
  vertex 0.275033 -0.0551791 4.1659063e-09
  vertex 0.366268 -0.055172395 0.024854304
 endloop
endfacet
facet normal 0.049827438 0.98186886 -0.1828956
 outer loop
  vertex 0.275033 -0.0551791 4.1659063e-09
  vertex 0.274432 -0.0551486 4.1636037e-09
  vertex 0.366268 -0.055148598 0.025019504
 endloop
endfacet
facet normal 0.01663299 0.99797934 -0.061324134
 outer loop
  vertex 0.274432 -0.0551486 4.1636037e-09
  vertex 0.27382 -0.0551384 4.1628336e-09
  vertex 0.366268 -0.055131596 0.025185503
 endloop
endfacet
facet normal 0.016659657 0.9979731 -0.061419655
 outer loop
  vertex 0.27382 -0.0551384 4.1628336e-09
  vertex 0.273209 -0.0551282 4.1620636e-09
  vertex 0.366268 -0.055121396 0.025352204
 endloop
endfacet
facet normal 0.01666599 0.997988 -0.06117383
 outer loop
  vertex 0.273209 -0.0551282 4.1620636e-09
  vertex 0.272598 -0.055118 4.161293e-09
  vertex 0.366268 -0.055117995 0.025519203
 endloop
endfacet
facet normal 0.23421885 0.45389143 -0.8597233
 outer loop
  vertex 0.285513 -0.0571987 4.3183817e-09
  vertex 0.366268 -0.0571987 0.022000503
  vertex 0.366268 -0.0988702 7.464493e-09
 endloop
endfacet
facet normal -1 0 -0
 outer loop
  vertex 0.366268 -0.021589996 0.050038
  vertex 0.366268 -0.050037995 0.050038002
  vertex 0.366268 -0.044957995 0.055118002
 endloop
endfacet
facet normal -1 0 0
 outer loop
  vertex 0.366268 -0.044957995 0.055118002
  vertex 0.366268 -0.025519196 0.055118002
  vertex 0.366268 -0.021589996 0.050038
 endloop
endfacet
facet normal -1 -0 0
 outer loop
  vertex 0.366268 -0.025519196 0.055118002
  vertex 0.366268 -0.025352197 0.055121403
  vertex 0.366268 -0.021589996 0.050038
 endloop
endfacet
facet normal -1 -0 0
 outer loop
  vertex 0.366268 -0.025352197 0.055121403
  vertex 0.366268 -0.025185496 0.055131603
  vertex 0.366268 -0.021589996 0.050038
 endloop
endfacet
facet normal -1 -0 0
 outer loop
  vertex 0.366268 -0.025185496 0.055131603
  vertex 0.366268 -0.025019497 0.055148605
  vertex 0.366268 -0.021589996 0.050038
 endloop
endfacet
facet normal -1 -0 0
 outer loop
  vertex 0.366268 -0.025019497 0.055148605
  vertex 0.366268 -0.024854297 0.055172402
  vertex 0.366268 -0.021589996 0.050038
 endloop
endfacet
facet normal -1 -0 0
 outer loop
  vertex 0.366268 -0.024854297 0.055172402
  vertex 0.366268 -0.024690297 0.055202905
  vertex 0.366268 -0.021589996 0.050038
 endloop
endfacet
facet normal -1 -0 0
 outer loop
  vertex 0.366268 -0.024690297 0.055202905
  vertex 0.366268 -0.024527796 0.05524
  vertex 0.366268 -0.021589996 0.050038
 endloop
endfacet
facet normal -1 -0 0
 outer loop
  vertex 0.366268 -0.024527796 0.05524
  vertex 0.366268 -0.024367096 0.0552838
  vertex 0.366268 -0.021589996 0.050038
 endloop
endfacet
facet normal -1 -0 0
 outer loop
  vertex 0.366268 -0.024367096 0.0552838
  vertex 0.366268 -0.024208397 0.055334
  vertex 0.366268 -0.021589996 0.050038
 endloop
endfacet
facet normal -1 -0 0
 outer loop
  vertex 0.366268 -0.024208397 0.055334
  vertex 0.366268 -0.024052097 0.0553907
  vertex 0.366268 -0.021589996 0.050038
 endloop
endfacet
facet normal -1 -0 0
 outer loop
  vertex 0.366268 -0.024052097 0.0553907
  vertex 0.366268 -0.023898397 0.0554537
  vertex 0.366268 -0.021589996 0.050038
 endloop
endfacet
facet normal -1 -0 0
 outer loop
  vertex 0.366268 -0.023898397 0.0554537
  vertex 0.366268 -0.023747597 0.055523
  vertex 0.366268 -0.021589996 0.050038
 endloop
endfacet
facet normal -1 -0 0
 outer loop
  vertex 0.366268 -0.023455696 0.0556796
  vertex 0.366268 -0.023315197 0.0557666
  vertex 0.366268 -0.021589996 0.0542035
 endloop
endfacet
facet normal -1 -0 0
 outer loop
  vertex 0.366268 -0.023747597 0.055523
  vertex 0.366268 -0.023599897 0.0555983
  vertex 0.366268 -0.021589996 0.050038
 endloop
endfacet
facet normal -1 -0 0
 outer loop
  vertex 0.366268 -0.022918297 0.0560611
  vertex 0.366268 -0.022794995 0.0561698
  vertex 0.366268 -0.021545697 0.0547725
 endloop
endfacet
facet normal -1 -0 0
 outer loop
  vertex 0.366268 -0.023046196 0.0559576
  vertex 0.366268 -0.022918297 0.0560611
  vertex 0.366268 -0.021581896 0.0544481
 endloop
endfacet
facet normal -1 -0 0
 outer loop
  vertex 0.366268 -0.023599897 0.0555983
  vertex 0.366268 -0.023455696 0.0556796
  vertex 0.366268 -0.021589996 0.050038
 endloop
endfacet
facet normal -1 -0 0
 outer loop
  vertex 0.366268 -0.022794995 0.0561698
  vertex 0.366268 -0.022676496 0.0562834
  vertex 0.366268 -0.021480896 0.0550927
 endloop
endfacet
facet normal -1 0 0
 outer loop
  vertex 0.366268 -0.021545697 0.0547725
  vertex 0.366268 -0.021557396 0.0546917
  vertex 0.366268 -0.022918297 0.0560611
 endloop
endfacet
facet normal -1 0 0
 outer loop
  vertex 0.366268 -0.021581896 0.0544481
  vertex 0.366268 -0.021586396 0.0543667
  vertex 0.366268 -0.023046196 0.0559576
 endloop
endfacet
facet normal -1 0 0
 outer loop
  vertex 0.366268 -0.021589996 0.0542035
  vertex 0.366268 -0.021589996 0.050038
  vertex 0.366268 -0.023455696 0.0556796
 endloop
endfacet
facet normal -1 0 0
 outer loop
  vertex 0.366268 -0.021480896 0.0550927
  vertex 0.366268 -0.021499796 0.0550132
  vertex 0.366268 -0.022794995 0.0561698
 endloop
endfacet
facet normal -1 0 0
 outer loop
  vertex 0.366268 -0.021557396 0.0546917
  vertex 0.366268 -0.021567397 0.0546107
  vertex 0.366268 -0.022918297 0.0560611
 endloop
endfacet
facet normal -1 0 0
 outer loop
  vertex 0.366268 -0.021586396 0.0543667
  vertex 0.366268 -0.021589097 0.0542851
  vertex 0.366268 -0.023046196 0.0559576
 endloop
endfacet
facet normal -1 -0 0
 outer loop
  vertex 0.366268 -0.023315197 0.0557666
  vertex 0.366268 -0.023178596 0.0558594
  vertex 0.366268 -0.021589996 0.0542035
 endloop
endfacet
facet normal -1 -0 0
 outer loop
  vertex 0.366268 -0.022676496 0.0562834
  vertex 0.366268 -0.022563197 0.0564017
  vertex 0.366268 -0.021413896 0.0553288
 endloop
endfacet
facet normal -1 0 0
 outer loop
  vertex 0.366268 -0.021499796 0.0550132
  vertex 0.366268 -0.021516897 0.0549333
  vertex 0.366268 -0.022794995 0.0561698
 endloop
endfacet
facet normal -1 0 0
 outer loop
  vertex 0.366268 -0.021567397 0.0546107
  vertex 0.366268 -0.021575496 0.0545295
  vertex 0.366268 -0.022918297 0.0560611
 endloop
endfacet
facet normal -1 -0 0
 outer loop
  vertex 0.366268 -0.023178596 0.0558594
  vertex 0.366268 -0.023046196 0.0559576
  vertex 0.366268 -0.021589996 0.0542035
 endloop
endfacet
facet normal -1 -0 0
 outer loop
  vertex 0.366268 -0.022563197 0.0564017
  vertex 0.366268 -0.022455096 0.0565246
  vertex 0.366268 -0.021331197 0.0555601
 endloop
endfacet
facet normal -1 0 0
 outer loop
  vertex 0.366268 -0.021413896 0.0553288
  vertex 0.366268 -0.021437997 0.0552506
  vertex 0.366268 -0.022676496 0.0562834
 endloop
endfacet
facet normal -1 0 0
 outer loop
  vertex 0.366268 -0.021516897 0.0549333
  vertex 0.366268 -0.021532197 0.0548531
  vertex 0.366268 -0.022794995 0.0561698
 endloop
endfacet
facet normal -1 0 0
 outer loop
  vertex 0.366268 -0.021589097 0.0542851
  vertex 0.366268 -0.021589996 0.0542035
  vertex 0.366268 -0.023046196 0.0559576
 endloop
endfacet
facet normal -1 -0 0
 outer loop
  vertex 0.366268 -0.022455096 0.0565246
  vertex 0.366268 -0.022352496 0.0566517
  vertex 0.366268 -0.021233296 0.0557859
 endloop
endfacet
facet normal -1 0 0
 outer loop
  vertex 0.366268 -0.021331197 0.0555601
  vertex 0.366268 -0.021360496 0.0554836
  vertex 0.366268 -0.022563197 0.0564017
 endloop
endfacet
facet normal -1 0 0
 outer loop
  vertex 0.366268 -0.021437997 0.0552506
  vertex 0.366268 -0.021460297 0.0551719
  vertex 0.366268 -0.022676496 0.0562834
 endloop
endfacet
facet normal -1 0 0
 outer loop
  vertex 0.366268 -0.021575496 0.0545295
  vertex 0.366268 -0.021581896 0.0544481
  vertex 0.366268 -0.022918297 0.0560611
 endloop
endfacet
facet normal -1 0 0
 outer loop
  vertex 0.366268 -0.021233296 0.0557859
  vertex 0.366268 -0.021267597 0.0557113
  vertex 0.366268 -0.022455096 0.0565246
 endloop
endfacet
facet normal -1 0 0
 outer loop
  vertex 0.366268 -0.021360496 0.0554836
  vertex 0.366268 -0.021387996 0.0554064
  vertex 0.366268 -0.022563197 0.0564017
 endloop
endfacet
facet normal -1 0 0
 outer loop
  vertex 0.366268 -0.021532197 0.0548531
  vertex 0.366268 -0.021545697 0.0547725
  vertex 0.366268 -0.022794995 0.0561698
 endloop
endfacet
facet normal -1 -0 0
 outer loop
  vertex 0.366268 -0.022352496 0.0566517
  vertex 0.366268 -0.022255596 0.056783
  vertex 0.366268 -0.021159796 0.0559328
 endloop
endfacet
facet normal -1 0 0
 outer loop
  vertex 0.366268 -0.021267597 0.0557113
  vertex 0.366268 -0.021300197 0.0556361
  vertex 0.366268 -0.022455096 0.0565246
 endloop
endfacet
facet normal -1 0 0
 outer loop
  vertex 0.366268 -0.021460297 0.0551719
  vertex 0.366268 -0.021480896 0.0550927
  vertex 0.366268 -0.022676496 0.0562834
 endloop
endfacet
facet normal -1 0 0
 outer loop
  vertex 0.366268 -0.021159796 0.0559328
  vertex 0.366268 -0.021197395 0.0558598
  vertex 0.366268 -0.022352496 0.0566517
 endloop
endfacet
facet normal -1 0 0
 outer loop
  vertex 0.366268 -0.021387996 0.0554064
  vertex 0.366268 -0.021413896 0.0553288
  vertex 0.366268 -0.022563197 0.0564017
 endloop
endfacet
facet normal -1 0 0
 outer loop
  vertex 0.366268 -0.021300197 0.0556361
  vertex 0.366268 -0.021331197 0.0555601
  vertex 0.366268 -0.022455096 0.0565246
 endloop
endfacet
facet normal -1 -0 0
 outer loop
  vertex 0.366268 -0.022000495 0.0571987
  vertex 0.366268 7.464493e-09 0.0988702
  vertex 0.366268 7.2487047e-09 0.096012
 endloop
endfacet
facet normal -1 0 0
 outer loop
  vertex 0.366268 -0.021197395 0.0558598
  vertex 0.366268 -0.021233296 0.0557859
  vertex 0.366268 -0.022352496 0.0566517
 endloop
endfacet
facet normal -1 0 -0
 outer loop
  vertex 0.366268 -0.021159796 0.0559328
  vertex 0.366268 -0.022079397 0.0570567
  vertex 0.366268 -0.022000495 0.0571987
 endloop
endfacet
facet normal -1 -0 0
 outer loop
  vertex 0.366268 -0.022255596 0.056783
  vertex 0.366268 -0.022164496 0.056918
  vertex 0.366268 -0.021159796 0.0559328
 endloop
endfacet
facet normal -1 -0 0
 outer loop
  vertex 0.366268 -0.022164496 0.056918
  vertex 0.366268 -0.022079397 0.0570567
  vertex 0.366268 -0.021159796 0.0559328
 endloop
endfacet
facet normal -1 0 0
 outer loop
  vertex 0.366268 7.2487047e-09 0.096012
  vertex 0.366268 -0.021159796 0.0559328
  vertex 0.366268 -0.022000495 0.0571987
 endloop
endfacet
facet normal -0.26285568 -0.96483517 7.284303e-08
 outer loop
  vertex 0.28702 4.0922505e-09 0.0542035
  vertex 0.28702 3.774963e-09 0.0500009
  vertex 0.366268 -0.021589996 0.050038
 endloop
endfacet
facet normal -0.26285568 -0.96483517 -0
 outer loop
  vertex 0.366268 -0.021589996 0.050038
  vertex 0.366268 -0.021589996 0.0542035
  vertex 0.28702 4.0922505e-09 0.0542035
 endloop
endfacet
facet normal -0.23539227 -0.86402905 0.4450217
 outer loop
  vertex 0.366268 -0.021197395 0.0558598
  vertex 0.366268 -0.021159796 0.0559328
  vertex 0.288599 4.222809e-09 0.0559328
 endloop
endfacet
facet normal -0.23539136 -0.8640257 0.4450286
 outer loop
  vertex 0.288599 4.222809e-09 0.0559328
  vertex 0.288461 4.2172976e-09 0.0558598
  vertex 0.366268 -0.021197395 0.0558598
 endloop
endfacet
facet normal -0.2380064 -0.8736269 0.42441612
 outer loop
  vertex 0.288329 4.2117185e-09 0.0557859
  vertex 0.366268 -0.021233296 0.0557859
  vertex 0.366268 -0.021197395 0.0558598
 endloop
endfacet
facet normal -0.24027412 -0.8819508 0.40550095
 outer loop
  vertex 0.366268 -0.021267597 0.0557113
  vertex 0.366268 -0.021233296 0.0557859
  vertex 0.288329 4.2117185e-09 0.0557859
 endloop
endfacet
facet normal -0.2402424 -0.88183546 0.4057705
 outer loop
  vertex 0.288329 4.2117185e-09 0.0557859
  vertex 0.288203 4.206086e-09 0.0557113
  vertex 0.366268 -0.021267597 0.0557113
 endloop
endfacet
facet normal -0.24249823 -0.8901082 0.38587818
 outer loop
  vertex 0.288084 4.200409e-09 0.0556361
  vertex 0.366268 -0.021300197 0.0556361
  vertex 0.366268 -0.021267597 0.0557113
 endloop
endfacet
facet normal -0.24459614 -0.8978088 0.3662132
 outer loop
  vertex 0.366268 -0.021331197 0.0555601
  vertex 0.366268 -0.021300197 0.0556361
  vertex 0.288084 4.200409e-09 0.0556361
 endloop
endfacet
facet normal -0.2445362 -0.8975911 0.3667864
 outer loop
  vertex 0.288084 4.200409e-09 0.0556361
  vertex 0.28797 4.194671e-09 0.0555601
  vertex 0.366268 -0.021331197 0.0555601
 endloop
endfacet
facet normal -0.24656267 -0.9050234 0.3466113
 outer loop
  vertex 0.287863 4.188895e-09 0.0554836
  vertex 0.366268 -0.021360496 0.0554836
  vertex 0.366268 -0.021331197 0.0555601
 endloop
endfacet
facet normal -0.24858499 -0.9124464 0.325034
 outer loop
  vertex 0.366268 -0.021387996 0.0554064
  vertex 0.366268 -0.021360496 0.0554836
  vertex 0.287863 4.188895e-09 0.0554836
 endloop
endfacet
facet normal -0.24830998 -0.91144913 0.32802856
 outer loop
  vertex 0.287863 4.188895e-09 0.0554836
  vertex 0.287761 4.183067e-09 0.0554064
  vertex 0.366268 -0.021387996 0.0554064
 endloop
endfacet
facet normal -0.25020364 -0.9183874 0.30653328
 outer loop
  vertex 0.287667 4.1772084e-09 0.0553288
  vertex 0.366268 -0.021413896 0.0553288
  vertex 0.366268 -0.021387996 0.0554064
 endloop
endfacet
facet normal -0.25195488 -0.9248154 0.2850178
 outer loop
  vertex 0.366268 -0.021437997 0.0552506
  vertex 0.366268 -0.021413896 0.0553288
  vertex 0.287667 4.1772084e-09 0.0553288
 endloop
endfacet
facet normal -0.25182435 -0.9243429 0.2866614
 outer loop
  vertex 0.287667 4.1772084e-09 0.0553288
  vertex 0.287578 4.171304e-09 0.0552506
  vertex 0.366268 -0.021437997 0.0552506
 endloop
endfacet
facet normal -0.25355116 -0.9306829 0.26370668
 outer loop
  vertex 0.287496 4.1653627e-09 0.0551719
  vertex 0.366268 -0.021460297 0.0551719
  vertex 0.366268 -0.021437997 0.0552506
 endloop
endfacet
facet normal -0.2560621 -0.9399041 0.22585946
 outer loop
  vertex 0.366268 -0.021480896 0.0550927
  vertex 0.28742 4.159383e-09 0.0550927
  vertex 0.287385 4.156386e-09 0.055053
 endloop
endfacet
facet normal -0.2553111 -0.93714744 0.2378464
 outer loop
  vertex 0.366268 -0.021480896 0.0550927
  vertex 0.287457 4.1623807e-09 0.0551324
  vertex 0.28742 4.159383e-09 0.0550927
 endloop
endfacet
facet normal -0.25495058 -0.93581957 0.24339673
 outer loop
  vertex 0.366268 -0.021480896 0.0550927
  vertex 0.366268 -0.021460297 0.0551719
  vertex 0.287496 4.1653627e-09 0.0551719
 endloop
endfacet
facet normal -0.25441438 -0.9338823 0.25127116
 outer loop
  vertex 0.287496 4.1653627e-09 0.0551719
  vertex 0.287457 4.1623807e-09 0.0551324
  vertex 0.366268 -0.021480896 0.0550927
 endloop
endfacet
facet normal -0.25620207 -0.94041336 0.22356905
 outer loop
  vertex 0.287351 4.153381e-09 0.0550132
  vertex 0.366268 -0.021499796 0.0550132
  vertex 0.366268 -0.021480896 0.0550927
 endloop
endfacet
facet normal -0.25823095 -0.9478633 0.1867401
 outer loop
  vertex 0.366268 -0.021516897 0.0549333
  vertex 0.287288 4.1473487e-09 0.0549333
  vertex 0.287259 4.1443213e-09 0.0548932
 endloop
endfacet
facet normal -0.25756717 -0.9454268 0.19956785
 outer loop
  vertex 0.366268 -0.021516897 0.0549333
  vertex 0.287319 4.150369e-09 0.0549733
  vertex 0.287288 4.1473487e-09 0.0549333
 endloop
endfacet
facet normal -0.25742406 -0.94489866 0.20223598
 outer loop
  vertex 0.366268 -0.021516897 0.0549333
  vertex 0.366268 -0.021499796 0.0550132
  vertex 0.287351 4.153381e-09 0.0550132
 endloop
endfacet
facet normal -0.2571953 -0.94407487 0.20633265
 outer loop
  vertex 0.287351 4.153381e-09 0.0550132
  vertex 0.287319 4.150369e-09 0.0549733
  vertex 0.366268 -0.021516897 0.0549333
 endloop
endfacet
facet normal -0.25851247 -0.9488947 0.18102519
 outer loop
  vertex 0.287232 4.141294e-09 0.0548531
  vertex 0.366268 -0.021532197 0.0548531
  vertex 0.366268 -0.021516897 0.0549333
 endloop
endfacet
facet normal -0.25995365 -0.9541783 0.14821546
 outer loop
  vertex 0.366268 -0.021545697 0.0547725
  vertex 0.287183 4.1352086e-09 0.0547725
  vertex 0.28716 4.132166e-09 0.0547322
 endloop
endfacet
facet normal -0.25968894 -0.95320666 0.15478602
 outer loop
  vertex 0.366268 -0.021545697 0.0547725
  vertex 0.287207 4.1382515e-09 0.0548128
  vertex 0.287183 4.1352086e-09 0.0547725
 endloop
endfacet
facet normal -0.25948852 -0.9524774 0.15953864
 outer loop
  vertex 0.366268 -0.021545697 0.0547725
  vertex 0.366268 -0.021532197 0.0548531
  vertex 0.287232 4.141294e-09 0.0548531
 endloop
endfacet
facet normal -0.25942644 -0.952255 0.16096054
 outer loop
  vertex 0.287232 4.141294e-09 0.0548531
  vertex 0.287207 4.1382515e-09 0.0548128
  vertex 0.366268 -0.021545697 0.0547725
 endloop
endfacet
facet normal -0.2603257 -0.9555566 0.13835526
 outer loop
  vertex 0.287139 4.1291086e-09 0.0546917
  vertex 0.366268 -0.021557396 0.0546917
  vertex 0.366268 -0.021545697 0.0547725
 endloop
endfacet
facet normal -0.261456 -0.95969695 0.103066236
 outer loop
  vertex 0.366268 -0.021567397 0.0546107
  vertex 0.287103 4.122993e-09 0.0546107
  vertex 0.287087 4.119928e-09 0.0545701
 endloop
endfacet
facet normal -0.26126727 -0.95900416 0.10977463
 outer loop
  vertex 0.366268 -0.021567397 0.0546107
  vertex 0.28712 4.126051e-09 0.0546512
  vertex 0.287103 4.122993e-09 0.0546107
 endloop
endfacet
facet normal -0.26100826 -0.958062 0.118287146
 outer loop
  vertex 0.366268 -0.021567397 0.0546107
  vertex 0.366268 -0.021557396 0.0546917
  vertex 0.287139 4.1291086e-09 0.0546917
 endloop
endfacet
facet normal -0.26087686 -0.95759493 0.12229135
 outer loop
  vertex 0.287139 4.1291086e-09 0.0546917
  vertex 0.28712 4.126051e-09 0.0546512
  vertex 0.366268 -0.021567397 0.0546107
 endloop
endfacet
facet normal -0.2616463 -0.9603988 0.09578873
 outer loop
  vertex 0.287073 4.116863e-09 0.0545295
  vertex 0.366268 -0.021575496 0.0545295
  vertex 0.366268 -0.021567397 0.0546107
 endloop
endfacet
facet normal -0.26241365 -0.9632092 0.058026005
 outer loop
  vertex 0.366268 -0.021581896 0.0544481
  vertex 0.28705 4.1107175e-09 0.0544481
  vertex 0.287041 4.1076444e-09 0.0544074
 endloop
endfacet
facet normal -0.26219606 -0.96241045 0.070847005
 outer loop
  vertex 0.366268 -0.021581896 0.0544481
  vertex 0.287061 4.11379e-09 0.0544888
  vertex 0.28705 4.1107175e-09 0.0544481
 endloop
endfacet
facet normal -0.26210183 -0.962071 0.07564476
 outer loop
  vertex 0.366268 -0.021581896 0.0544481
  vertex 0.366268 -0.021575496 0.0545295
  vertex 0.287073 4.116863e-09 0.0545295
 endloop
endfacet
facet normal -0.26207018 -0.9619604 0.07714586
 outer loop
  vertex 0.287073 4.116863e-09 0.0545295
  vertex 0.287061 4.11379e-09 0.0544888
  vertex 0.366268 -0.021581896 0.0544481
 endloop
endfacet
facet normal -0.26248187 -0.96346575 0.05326377
 outer loop
  vertex 0.287033 4.104572e-09 0.0543667
  vertex 0.366268 -0.021586396 0.0543667
  vertex 0.366268 -0.021581896 0.0544481
 endloop
endfacet
facet normal -0.26283306 -0.9647556 0.012862167
 outer loop
  vertex 0.366268 -0.021589097 0.0542851
  vertex 0.287023 4.0984114e-09 0.0542851
  vertex 0.287021 4.0953307e-09 0.0542443
 endloop
endfacet
facet normal -0.26276782 -0.9645162 0.025720226
 outer loop
  vertex 0.366268 -0.021589097 0.0542851
  vertex 0.287027 4.1014916e-09 0.0543259
  vertex 0.287023 4.0984114e-09 0.0542851
 endloop
endfacet
facet normal -0.26272106 -0.9643437 0.03191879
 outer loop
  vertex 0.366268 -0.021589097 0.0542851
  vertex 0.366268 -0.021586396 0.0543667
  vertex 0.287033 4.104572e-09 0.0543667
 endloop
endfacet
facet normal -0.2626531 -0.96411943 0.03856346
 outer loop
  vertex 0.287033 4.104572e-09 0.0543667
  vertex 0.287027 4.1014916e-09 0.0543259
  vertex 0.366268 -0.021589097 0.0542851
 endloop
endfacet
facet normal -0.2628408 -0.96478057 0.01063659
 outer loop
  vertex 0.28702 4.0922505e-09 0.0542035
  vertex 0.366268 -0.021589996 0.0542035
  vertex 0.366268 -0.021589097 0.0542851
 endloop
endfacet
facet normal -0.26284617 -0.9648157 0.006528027
 outer loop
  vertex 0.287021 4.0953307e-09 0.0542443
  vertex 0.28702 4.0922505e-09 0.0542035
  vertex 0.366268 -0.021589097 0.0542851
 endloop
endfacet
facet normal -0.2625019 -0.96354514 0.05170754
 outer loop
  vertex 0.287041 4.1076444e-09 0.0544074
  vertex 0.287033 4.104572e-09 0.0543667
  vertex 0.366268 -0.021581896 0.0544481
 endloop
endfacet
facet normal -0.2617756 -0.9608943 0.09030894
 outer loop
  vertex 0.287087 4.119928e-09 0.0545701
  vertex 0.287073 4.116863e-09 0.0545295
  vertex 0.366268 -0.021567397 0.0546107
 endloop
endfacet
facet normal -0.2604404 -0.95599 0.13510714
 outer loop
  vertex 0.28716 4.132166e-09 0.0547322
  vertex 0.287139 4.1291086e-09 0.0546917
  vertex 0.366268 -0.021545697 0.0547725
 endloop
endfacet
facet normal -0.25882587 -0.95007104 0.17428194
 outer loop
  vertex 0.287259 4.1443213e-09 0.0548932
  vertex 0.287232 4.141294e-09 0.0548531
  vertex 0.366268 -0.021516897 0.0549333
 endloop
endfacet
facet normal -0.25647417 -0.94143015 0.21892972
 outer loop
  vertex 0.287385 4.156386e-09 0.055053
  vertex 0.287351 4.153381e-09 0.0550132
  vertex 0.366268 -0.021480896 0.0550927
 endloop
endfacet
facet normal -0.25352275 -0.930577 0.26410726
 outer loop
  vertex 0.287578 4.171304e-09 0.0552506
  vertex 0.287496 4.1653627e-09 0.0551719
  vertex 0.366268 -0.021437997 0.0552506
 endloop
endfacet
facet normal -0.2504646 -0.91935784 0.3033953
 outer loop
  vertex 0.287761 4.183067e-09 0.0554064
  vertex 0.287667 4.1772084e-09 0.0553288
  vertex 0.366268 -0.021387996 0.0554064
 endloop
endfacet
facet normal -0.24670574 -0.9055546 0.34511903
 outer loop
  vertex 0.28797 4.194671e-09 0.0555601
  vertex 0.287863 4.188895e-09 0.0554836
  vertex 0.366268 -0.021331197 0.0555601
 endloop
endfacet
facet normal -0.24269548 -0.8908398 0.38406155
 outer loop
  vertex 0.288203 4.206086e-09 0.0557113
  vertex 0.288084 4.200409e-09 0.0556361
  vertex 0.366268 -0.021267597 0.0557113
 endloop
endfacet
facet normal -0.23793608 -0.87336636 0.4249913
 outer loop
  vertex 0.288461 4.2172976e-09 0.0558598
  vertex 0.288329 4.2117185e-09 0.0557859
  vertex 0.366268 -0.021197395 0.0558598
 endloop
endfacet
facet normal -0.2342193 -0.8597235 0.45389077
 outer loop
  vertex 0.366268 7.2487047e-09 0.096012
  vertex 0.288599 4.222809e-09 0.0559328
  vertex 0.366268 -0.021159796 0.0559328
 endloop
endfacet
facet normal -0.00046852048 1.3095087e-07 0.9999999
 outer loop
  vertex 0.285166 -0.049999997 0.050000004
  vertex 0.366268 -0.050037995 0.050038002
  vertex 0.366268 -0.021589996 0.050038
 endloop
endfacet
facet normal -0.00046829347 -5.170482e-07 0.9999999
 outer loop
  vertex 0.366268 -0.021589996 0.050038
  vertex 0.28702 3.774963e-09 0.0500009
  vertex 0.285166 -0.049999997 0.050000004
 endloop
endfacet
facet normal -0.00048424688 7.45058e-08 0.99999994
 outer loop
  vertex 0.28702 3.774963e-09 0.0500009
  vertex 0.285166 3.774895e-09 0.05
  vertex 0.285166 -0.049999997 0.050000004
 endloop
endfacet
facet normal -1 0 0
 outer loop
  vertex 0.285166 -0.049999997 0.050000004
  vertex 0.285166 3.774895e-09 0.05
  vertex 0.285166 2.504726e-25 3.31761e-18
 endloop
endfacet
facet normal -1 0 -0
 outer loop
  vertex 0.285166 2.504726e-25 3.31761e-18
  vertex 0.285166 -0.05 3.774895e-09
  vertex 0.285166 -0.049999997 0.050000004
 endloop
endfacet
facet normal -0.00046833366 -0.9999999 6.645685e-07
 outer loop
  vertex 0.285166 -0.049999997 0.050000004
  vertex 0.28702 -0.0500009 3.774963e-09
  vertex 0.366268 -0.050038 0.021590004
 endloop
endfacet
facet normal -0.00048424688 -0.99999994 7.45058e-08
 outer loop
  vertex 0.285166 -0.049999997 0.050000004
  vertex 0.285166 -0.05 3.774895e-09
  vertex 0.28702 -0.0500009 3.774963e-09
 endloop
endfacet
facet normal -0.0004685206 -0.9999999 1.3095087e-07
 outer loop
  vertex 0.366268 -0.050038 0.021590004
  vertex 0.366268 -0.050037995 0.050038002
  vertex 0.285166 -0.049999997 0.050000004
 endloop
endfacet
facet normal -0.26285568 0 0.96483517
 outer loop
  vertex 0.28702 -0.0542035 4.0922505e-09
  vertex 0.366268 -0.0542035 0.021590004
  vertex 0.366268 -0.050038 0.021590004
 endloop
endfacet
facet normal -0.26285568 7.284303e-08 0.96483517
 outer loop
  vertex 0.366268 -0.050038 0.021590004
  vertex 0.28702 -0.0500009 3.774963e-09
  vertex 0.28702 -0.0542035 4.0922505e-09
 endloop
endfacet
facet normal -1 0 0
 outer loop
  vertex 0.366268 -0.050038 0.021590004
  vertex 0.366268 -0.055117995 0.025519203
  vertex 0.366268 -0.055117995 0.044958003
 endloop
endfacet
facet normal -1 0 -0
 outer loop
  vertex 0.366268 -0.050038 0.021590004
  vertex 0.366268 -0.055121396 0.025352204
  vertex 0.366268 -0.055117995 0.025519203
 endloop
endfacet
facet normal -1 0 -0
 outer loop
  vertex 0.366268 -0.050038 0.021590004
  vertex 0.366268 -0.055131596 0.025185503
  vertex 0.366268 -0.055121396 0.025352204
 endloop
endfacet
facet normal -1 0 -0
 outer loop
  vertex 0.366268 -0.050038 0.021590004
  vertex 0.366268 -0.055148598 0.025019504
  vertex 0.366268 -0.055131596 0.025185503
 endloop
endfacet
facet normal -1 0 -0
 outer loop
  vertex 0.366268 -0.050038 0.021590004
  vertex 0.366268 -0.055172395 0.024854304
  vertex 0.366268 -0.055148598 0.025019504
 endloop
endfacet
facet normal -1 0 -0
 outer loop
  vertex 0.366268 -0.050038 0.021590004
  vertex 0.366268 -0.055202898 0.024690304
  vertex 0.366268 -0.055172395 0.024854304
 endloop
endfacet
facet normal -1 0 -0
 outer loop
  vertex 0.366268 -0.050038 0.021590004
  vertex 0.366268 -0.05524 0.024527803
  vertex 0.366268 -0.055202898 0.024690304
 endloop
endfacet
facet normal -1 0 -0
 outer loop
  vertex 0.366268 -0.050038 0.021590004
  vertex 0.366268 -0.0552838 0.024367103
  vertex 0.366268 -0.05524 0.024527803
 endloop
endfacet
facet normal -1 0 -0
 outer loop
  vertex 0.366268 -0.050038 0.021590004
  vertex 0.366268 -0.055334 0.024208404
  vertex 0.366268 -0.0552838 0.024367103
 endloop
endfacet
facet normal -1 0 -0
 outer loop
  vertex 0.366268 -0.050038 0.021590004
  vertex 0.366268 -0.0553907 0.024052104
  vertex 0.366268 -0.055334 0.024208404
 endloop
endfacet
facet normal -1 0 -0
 outer loop
  vertex 0.366268 -0.050038 0.021590004
  vertex 0.366268 -0.0554537 0.023898404
  vertex 0.366268 -0.0553907 0.024052104
 endloop
endfacet
facet normal -1 0 -0
 outer loop
  vertex 0.366268 -0.050038 0.021590004
  vertex 0.366268 -0.055523 0.023747604
  vertex 0.366268 -0.0554537 0.023898404
 endloop
endfacet
facet normal -1 0 -0
 outer loop
  vertex 0.366268 -0.050038 0.021590004
  vertex 0.366268 -0.0555983 0.023599904
  vertex 0.366268 -0.055523 0.023747604
 endloop
endfacet
facet normal -1 0 -0
 outer loop
  vertex 0.366268 -0.050038 0.021590004
  vertex 0.366268 -0.0556796 0.023455704
  vertex 0.366268 -0.0555983 0.023599904
 endloop
endfacet
facet normal -1 0 0
 outer loop
  vertex 0.366268 -0.0556796 0.023455704
  vertex 0.366268 -0.050038 0.021590004
  vertex 0.366268 -0.0542035 0.021590004
 endloop
endfacet
facet normal -1 0 -0
 outer loop
  vertex 0.366268 -0.0542035 0.021590004
  vertex 0.366268 -0.0557666 0.023315204
  vertex 0.366268 -0.0556796 0.023455704
 endloop
endfacet
facet normal -1 0 0
 outer loop
  vertex 0.366268 -0.0559576 0.023046203
  vertex 0.366268 -0.0543667 0.021586403
  vertex 0.366268 -0.0544481 0.021581903
 endloop
endfacet
facet normal -1 0 0
 outer loop
  vertex 0.366268 -0.0560611 0.022918304
  vertex 0.366268 -0.0546917 0.021557404
  vertex 0.366268 -0.0547725 0.021545704
 endloop
endfacet
facet normal -1 0 -0
 outer loop
  vertex 0.366268 -0.0542035 0.021590004
  vertex 0.366268 -0.0558594 0.023178604
  vertex 0.366268 -0.0557666 0.023315204
 endloop
endfacet
facet normal -1 0 0
 outer loop
  vertex 0.366268 -0.0559576 0.023046203
  vertex 0.366268 -0.0542851 0.021589104
  vertex 0.366268 -0.0543667 0.021586403
 endloop
endfacet
facet normal -1 0 0
 outer loop
  vertex 0.366268 -0.0560611 0.022918304
  vertex 0.366268 -0.0546107 0.021567404
  vertex 0.366268 -0.0546917 0.021557404
 endloop
endfacet
facet normal -1 0 0
 outer loop
  vertex 0.366268 -0.0561698 0.022795003
  vertex 0.366268 -0.0550132 0.021499803
  vertex 0.366268 -0.0550927 0.021480903
 endloop
endfacet
facet normal -1 0 -0
 outer loop
  vertex 0.366268 -0.0542035 0.021590004
  vertex 0.366268 -0.0559576 0.023046203
  vertex 0.366268 -0.0558594 0.023178604
 endloop
endfacet
facet normal -1 0 0
 outer loop
  vertex 0.366268 -0.0559576 0.023046203
  vertex 0.366268 -0.0542035 0.021590004
  vertex 0.366268 -0.0542851 0.021589104
 endloop
endfacet
facet normal -1 0 0
 outer loop
  vertex 0.366268 -0.0560611 0.022918304
  vertex 0.366268 -0.0545295 0.021575503
  vertex 0.366268 -0.0546107 0.021567404
 endloop
endfacet
facet normal -1 0 0
 outer loop
  vertex 0.366268 -0.0561698 0.022795003
  vertex 0.366268 -0.0549333 0.021516904
  vertex 0.366268 -0.0550132 0.021499803
 endloop
endfacet
facet normal -1 0 -0
 outer loop
  vertex 0.366268 -0.0544481 0.021581903
  vertex 0.366268 -0.0560611 0.022918304
  vertex 0.366268 -0.0559576 0.023046203
 endloop
endfacet
facet normal -1 0 0
 outer loop
  vertex 0.366268 -0.0560611 0.022918304
  vertex 0.366268 -0.0544481 0.021581903
  vertex 0.366268 -0.0545295 0.021575503
 endloop
endfacet
facet normal -1 0 0
 outer loop
  vertex 0.366268 -0.0561698 0.022795003
  vertex 0.366268 -0.0548531 0.021532204
  vertex 0.366268 -0.0549333 0.021516904
 endloop
endfacet
facet normal -1 0 0
 outer loop
  vertex 0.366268 -0.0562834 0.022676503
  vertex 0.366268 -0.0552506 0.021438004
  vertex 0.366268 -0.0553288 0.021413904
 endloop
endfacet
facet normal -1 0 -0
 outer loop
  vertex 0.366268 -0.0547725 0.021545704
  vertex 0.366268 -0.0561698 0.022795003
  vertex 0.366268 -0.0560611 0.022918304
 endloop
endfacet
facet normal -1 0 0
 outer loop
  vertex 0.366268 -0.0561698 0.022795003
  vertex 0.366268 -0.0547725 0.021545704
  vertex 0.366268 -0.0548531 0.021532204
 endloop
endfacet
facet normal -1 0 0
 outer loop
  vertex 0.366268 -0.0562834 0.022676503
  vertex 0.366268 -0.0551719 0.021460304
  vertex 0.366268 -0.0552506 0.021438004
 endloop
endfacet
facet normal -1 0 0
 outer loop
  vertex 0.366268 -0.0564017 0.022563204
  vertex 0.366268 -0.0554836 0.021360504
  vertex 0.366268 -0.0555601 0.021331204
 endloop
endfacet
facet normal -1 0 -0
 outer loop
  vertex 0.366268 -0.0550927 0.021480903
  vertex 0.366268 -0.0562834 0.022676503
  vertex 0.366268 -0.0561698 0.022795003
 endloop
endfacet
facet normal -1 0 0
 outer loop
  vertex 0.366268 -0.0562834 0.022676503
  vertex 0.366268 -0.0550927 0.021480903
  vertex 0.366268 -0.0551719 0.021460304
 endloop
endfacet
facet normal -1 0 0
 outer loop
  vertex 0.366268 -0.0564017 0.022563204
  vertex 0.366268 -0.0554064 0.021388004
  vertex 0.366268 -0.0554836 0.021360504
 endloop
endfacet
facet normal -1 0 0
 outer loop
  vertex 0.366268 -0.0565246 0.022455104
  vertex 0.366268 -0.0557113 0.021267604
  vertex 0.366268 -0.0557859 0.021233303
 endloop
endfacet
facet normal -1 0 -0
 outer loop
  vertex 0.366268 -0.0553288 0.021413904
  vertex 0.366268 -0.0564017 0.022563204
  vertex 0.366268 -0.0562834 0.022676503
 endloop
endfacet
facet normal -1 0 0
 outer loop
  vertex 0.366268 -0.0564017 0.022563204
  vertex 0.366268 -0.0553288 0.021413904
  vertex 0.366268 -0.0554064 0.021388004
 endloop
endfacet
facet normal -1 0 0
 outer loop
  vertex 0.366268 -0.0565246 0.022455104
  vertex 0.366268 -0.0556361 0.021300204
  vertex 0.366268 -0.0557113 0.021267604
 endloop
endfacet
facet normal -1 0 -0
 outer loop
  vertex 0.366268 -0.0555601 0.021331204
  vertex 0.366268 -0.0565246 0.022455104
  vertex 0.366268 -0.0564017 0.022563204
 endloop
endfacet
facet normal -1 0 0
 outer loop
  vertex 0.366268 -0.0565246 0.022455104
  vertex 0.366268 -0.0555601 0.021331204
  vertex 0.366268 -0.0556361 0.021300204
 endloop
endfacet
facet normal -1 0 0
 outer loop
  vertex 0.366268 -0.0566517 0.022352504
  vertex 0.366268 -0.0558598 0.021197403
  vertex 0.366268 -0.0559328 0.021159803
 endloop
endfacet
facet normal -1 0 -0
 outer loop
  vertex 0.366268 -0.0557859 0.021233303
  vertex 0.366268 -0.0566517 0.022352504
  vertex 0.366268 -0.0565246 0.022455104
 endloop
endfacet
facet normal -1 0 0
 outer loop
  vertex 0.366268 -0.0566517 0.022352504
  vertex 0.366268 -0.0557859 0.021233303
  vertex 0.366268 -0.0558598 0.021197403
 endloop
endfacet
facet normal -1 0 -0
 outer loop
  vertex 0.366268 -0.0559328 0.021159803
  vertex 0.366268 -0.056783 0.022255603
  vertex 0.366268 -0.0566517 0.022352504
 endloop
endfacet
facet normal -1 0 -0
 outer loop
  vertex 0.366268 -0.0559328 0.021159803
  vertex 0.366268 -0.056918 0.022164503
  vertex 0.366268 -0.056783 0.022255603
 endloop
endfacet
facet normal -1 0 0
 outer loop
  vertex 0.366268 -0.0571987 0.022000503
  vertex 0.366268 -0.0559328 0.021159803
  vertex 0.366268 -0.096012 7.2487047e-09
 endloop
endfacet
facet normal -1 0 -0
 outer loop
  vertex 0.366268 -0.0559328 0.021159803
  vertex 0.366268 -0.0570567 0.022079404
  vertex 0.366268 -0.056918 0.022164503
 endloop
endfacet
facet normal -1 0 -0
 outer loop
  vertex 0.366268 -0.096012 7.2487047e-09
  vertex 0.366268 -0.0988702 7.464493e-09
  vertex 0.366268 -0.0571987 0.022000503
 endloop
endfacet
facet normal -1 -0 0
 outer loop
  vertex 0.366268 -0.0571987 0.022000503
  vertex 0.366268 -0.0570567 0.022079404
  vertex 0.366268 -0.0559328 0.021159803
 endloop
endfacet
facet normal -1 -0 0
 outer loop
  vertex 0.366268 -0.055117995 0.044958003
  vertex 0.366268 -0.050037995 0.050038002
  vertex 0.366268 -0.050038 0.021590004
 endloop
endfacet
facet normal -0.2626531 -0.038563315 0.96411943
 outer loop
  vertex 0.366268 -0.0542851 0.021589104
  vertex 0.287027 -0.0543259 4.1014916e-09
  vertex 0.287033 -0.0543667 4.104572e-09
 endloop
endfacet
facet normal -0.26284617 -0.006527882 0.9648157
 outer loop
  vertex 0.366268 -0.0542851 0.021589104
  vertex 0.28702 -0.0542035 4.0922505e-09
  vertex 0.287021 -0.0542443 4.0953307e-09
 endloop
endfacet
facet normal -0.26283306 -0.012862021 0.9647556
 outer loop
  vertex 0.287021 -0.0542443 4.0953307e-09
  vertex 0.287023 -0.0542851 4.0984114e-09
  vertex 0.366268 -0.0542851 0.021589104
 endloop
endfacet
facet normal -0.26276782 -0.025720082 0.9645162
 outer loop
  vertex 0.287023 -0.0542851 4.0984114e-09
  vertex 0.287027 -0.0543259 4.1014916e-09
  vertex 0.366268 -0.0542851 0.021589104
 endloop
endfacet
facet normal -0.26272106 -0.03191879 0.9643437
 outer loop
  vertex 0.287033 -0.0543667 4.104572e-09
  vertex 0.366268 -0.0543667 0.021586403
  vertex 0.366268 -0.0542851 0.021589104
 endloop
endfacet
facet normal -0.26207018 -0.0771457 0.9619604
 outer loop
  vertex 0.366268 -0.0544481 0.021581903
  vertex 0.287061 -0.0544888 4.11379e-09
  vertex 0.287073 -0.0545295 4.116863e-09
 endloop
endfacet
facet normal -0.2625019 -0.051707394 0.96354514
 outer loop
  vertex 0.366268 -0.0544481 0.021581903
  vertex 0.287033 -0.0543667 4.104572e-09
  vertex 0.287041 -0.0544074 4.1076444e-09
 endloop
endfacet
facet normal -0.26241365 -0.058025863 0.9632092
 outer loop
  vertex 0.287041 -0.0544074 4.1076444e-09
  vertex 0.28705 -0.0544481 4.1107175e-09
  vertex 0.366268 -0.0544481 0.021581903
 endloop
endfacet
facet normal -0.26219606 -0.07084686 0.96241045
 outer loop
  vertex 0.28705 -0.0544481 4.1107175e-09
  vertex 0.287061 -0.0544888 4.11379e-09
  vertex 0.366268 -0.0544481 0.021581903
 endloop
endfacet
facet normal -0.26210183 -0.07564476 0.962071
 outer loop
  vertex 0.287073 -0.0545295 4.116863e-09
  vertex 0.366268 -0.0545295 0.021575503
  vertex 0.366268 -0.0544481 0.021581903
 endloop
endfacet
facet normal -0.26087686 -0.1222912 0.95759493
 outer loop
  vertex 0.366268 -0.0546107 0.021567404
  vertex 0.28712 -0.0546512 4.126051e-09
  vertex 0.287139 -0.0546917 4.1291086e-09
 endloop
endfacet
facet normal -0.2617756 -0.090308785 0.9608943
 outer loop
  vertex 0.366268 -0.0546107 0.021567404
  vertex 0.287073 -0.0545295 4.116863e-09
  vertex 0.287087 -0.0545701 4.119928e-09
 endloop
endfacet
facet normal -0.261456 -0.10306608 0.95969695
 outer loop
  vertex 0.287087 -0.0545701 4.119928e-09
  vertex 0.287103 -0.0546107 4.122993e-09
  vertex 0.366268 -0.0546107 0.021567404
 endloop
endfacet
facet normal -0.26126727 -0.10977447 0.95900416
 outer loop
  vertex 0.287103 -0.0546107 4.122993e-09
  vertex 0.28712 -0.0546512 4.126051e-09
  vertex 0.366268 -0.0546107 0.021567404
 endloop
endfacet
facet normal -0.26100826 -0.118287146 0.958062
 outer loop
  vertex 0.287139 -0.0546917 4.1291086e-09
  vertex 0.366268 -0.0546917 0.021557404
  vertex 0.366268 -0.0546107 0.021567404
 endloop
endfacet
facet normal -0.25942647 -0.1609604 0.9522551
 outer loop
  vertex 0.366268 -0.0547725 0.021545704
  vertex 0.287207 -0.0548128 4.1382515e-09
  vertex 0.287232 -0.0548531 4.141294e-09
 endloop
endfacet
facet normal -0.2604404 -0.13510698 0.95599
 outer loop
  vertex 0.366268 -0.0547725 0.021545704
  vertex 0.287139 -0.0546917 4.1291086e-09
  vertex 0.28716 -0.0547322 4.132166e-09
 endloop
endfacet
facet normal -0.25995368 -0.14821532 0.9541784
 outer loop
  vertex 0.28716 -0.0547322 4.132166e-09
  vertex 0.287183 -0.0547725 4.1352086e-09
  vertex 0.366268 -0.0547725 0.021545704
 endloop
endfacet
facet normal -0.25968894 -0.15478589 0.95320666
 outer loop
  vertex 0.287183 -0.0547725 4.1352086e-09
  vertex 0.287207 -0.0548128 4.1382515e-09
  vertex 0.366268 -0.0547725 0.021545704
 endloop
endfacet
facet normal -0.25948852 -0.15953864 0.9524774
 outer loop
  vertex 0.287232 -0.0548531 4.141294e-09
  vertex 0.366268 -0.0548531 0.021532204
  vertex 0.366268 -0.0547725 0.021545704
 endloop
endfacet
facet normal -0.2571953 -0.20633253 0.9440749
 outer loop
  vertex 0.366268 -0.0549333 0.021516904
  vertex 0.287319 -0.0549733 4.150369e-09
  vertex 0.287351 -0.0550132 4.153381e-09
 endloop
endfacet
facet normal -0.2588259 -0.1742818 0.9500711
 outer loop
  vertex 0.366268 -0.0549333 0.021516904
  vertex 0.287232 -0.0548531 4.141294e-09
  vertex 0.287259 -0.0548932 4.1443213e-09
 endloop
endfacet
facet normal -0.25823095 -0.18673998 0.94786334
 outer loop
  vertex 0.287259 -0.0548932 4.1443213e-09
  vertex 0.287288 -0.0549333 4.1473487e-09
  vertex 0.366268 -0.0549333 0.021516904
 endloop
endfacet
facet normal -0.25756717 -0.19956772 0.9454268
 outer loop
  vertex 0.287288 -0.0549333 4.1473487e-09
  vertex 0.287319 -0.0549733 4.150369e-09
  vertex 0.366268 -0.0549333 0.021516904
 endloop
endfacet
facet normal -0.25742406 -0.20223598 0.94489866
 outer loop
  vertex 0.287351 -0.0550132 4.153381e-09
  vertex 0.366268 -0.0550132 0.021499803
  vertex 0.366268 -0.0549333 0.021516904
 endloop
endfacet
facet normal -0.25441438 -0.25127104 0.93388236
 outer loop
  vertex 0.366268 -0.0550927 0.021480903
  vertex 0.287457 -0.0551324 4.1623807e-09
  vertex 0.287496 -0.0551719 4.1653627e-09
 endloop
endfacet
facet normal -0.25647417 -0.2189296 0.9414302
 outer loop
  vertex 0.366268 -0.0550927 0.021480903
  vertex 0.287351 -0.0550132 4.153381e-09
  vertex 0.287385 -0.055053 4.156386e-09
 endloop
endfacet
facet normal -0.2560621 -0.22585933 0.9399041
 outer loop
  vertex 0.287385 -0.055053 4.156386e-09
  vertex 0.28742 -0.0550927 4.159383e-09
  vertex 0.366268 -0.0550927 0.021480903
 endloop
endfacet
facet normal -0.2553111 -0.23784629 0.9371475
 outer loop
  vertex 0.28742 -0.0550927 4.159383e-09
  vertex 0.287457 -0.0551324 4.1623807e-09
  vertex 0.366268 -0.0550927 0.021480903
 endloop
endfacet
facet normal -0.25495058 -0.24339673 0.93581957
 outer loop
  vertex 0.287496 -0.0551719 4.1653627e-09
  vertex 0.366268 -0.0551719 0.021460304
  vertex 0.366268 -0.0550927 0.021480903
 endloop
endfacet
facet normal -0.25182435 -0.28666127 0.92434293
 outer loop
  vertex 0.366268 -0.0552506 0.021438004
  vertex 0.287578 -0.0552506 4.171304e-09
  vertex 0.287667 -0.0553288 4.1772084e-09
 endloop
endfacet
facet normal -0.25352275 -0.26410714 0.930577
 outer loop
  vertex 0.366268 -0.0552506 0.021438004
  vertex 0.287496 -0.0551719 4.1653627e-09
  vertex 0.287578 -0.0552506 4.171304e-09
 endloop
endfacet
facet normal -0.25195488 -0.2850178 0.9248154
 outer loop
  vertex 0.287667 -0.0553288 4.1772084e-09
  vertex 0.366268 -0.0553288 0.021413904
  vertex 0.366268 -0.0552506 0.021438004
 endloop
endfacet
facet normal -0.24830998 -0.3280284 0.91144913
 outer loop
  vertex 0.366268 -0.0554064 0.021388004
  vertex 0.287761 -0.0554064 4.183067e-09
  vertex 0.287863 -0.0554836 4.188895e-09
 endloop
endfacet
facet normal -0.2504646 -0.30339515 0.91935784
 outer loop
  vertex 0.366268 -0.0554064 0.021388004
  vertex 0.287667 -0.0553288 4.1772084e-09
  vertex 0.287761 -0.0554064 4.183067e-09
 endloop
endfacet
facet normal -0.24858499 -0.325034 0.9124464
 outer loop
  vertex 0.287863 -0.0554836 4.188895e-09
  vertex 0.366268 -0.0554836 0.021360504
  vertex 0.366268 -0.0554064 0.021388004
 endloop
endfacet
facet normal -0.2445362 -0.36678627 0.8975911
 outer loop
  vertex 0.366268 -0.0555601 0.021331204
  vertex 0.28797 -0.0555601 4.194671e-09
  vertex 0.288084 -0.0556361 4.200409e-09
 endloop
endfacet
facet normal -0.24670577 -0.3451189 0.90555465
 outer loop
  vertex 0.366268 -0.0555601 0.021331204
  vertex 0.287863 -0.0554836 4.188895e-09
  vertex 0.28797 -0.0555601 4.194671e-09
 endloop
endfacet
facet normal -0.24459614 -0.3662132 0.8978088
 outer loop
  vertex 0.288084 -0.0556361 4.200409e-09
  vertex 0.366268 -0.0556361 0.021300204
  vertex 0.366268 -0.0555601 0.021331204
 endloop
endfacet
facet normal -0.24024242 -0.4057704 0.8818355
 outer loop
  vertex 0.366268 -0.0557113 0.021267604
  vertex 0.288203 -0.0557113 4.206086e-09
  vertex 0.288329 -0.0557859 4.2117185e-09
 endloop
endfacet
facet normal -0.24269548 -0.3840614 0.8908398
 outer loop
  vertex 0.366268 -0.0557113 0.021267604
  vertex 0.288084 -0.0556361 4.200409e-09
  vertex 0.288203 -0.0557113 4.206086e-09
 endloop
endfacet
facet normal -0.24027412 -0.40550095 0.8819508
 outer loop
  vertex 0.288329 -0.0557859 4.2117185e-09
  vertex 0.366268 -0.0557859 0.021233303
  vertex 0.366268 -0.0557113 0.021267604
 endloop
endfacet
facet normal -0.23539138 -0.44502848 0.8640258
 outer loop
  vertex 0.366268 -0.0558598 0.021197403
  vertex 0.288461 -0.0558598 4.2172976e-09
  vertex 0.288599 -0.0559328 4.222809e-09
 endloop
endfacet
facet normal -0.2379361 -0.4249912 0.8733664
 outer loop
  vertex 0.366268 -0.0558598 0.021197403
  vertex 0.288329 -0.0557859 4.2117185e-09
  vertex 0.288461 -0.0558598 4.2172976e-09
 endloop
endfacet
facet normal -0.23539227 -0.4450217 0.86402905
 outer loop
  vertex 0.288599 -0.0559328 4.222809e-09
  vertex 0.366268 -0.0559328 0.021159803
  vertex 0.366268 -0.0558598 0.021197403
 endloop
endfacet
facet normal -0.23800638 -0.4244161 0.8736268
 outer loop
  vertex 0.366268 -0.0558598 0.021197403
  vertex 0.366268 -0.0557859 0.021233303
  vertex 0.288329 -0.0557859 4.2117185e-09
 endloop
endfacet
facet normal -0.24249823 -0.38587818 0.8901082
 outer loop
  vertex 0.366268 -0.0557113 0.021267604
  vertex 0.366268 -0.0556361 0.021300204
  vertex 0.288084 -0.0556361 4.200409e-09
 endloop
endfacet
facet normal -0.24656267 -0.3466113 0.9050234
 outer loop
  vertex 0.366268 -0.0555601 0.021331204
  vertex 0.366268 -0.0554836 0.021360504
  vertex 0.287863 -0.0554836 4.188895e-09
 endloop
endfacet
facet normal -0.25020364 -0.30653328 0.9183874
 outer loop
  vertex 0.366268 -0.0554064 0.021388004
  vertex 0.366268 -0.0553288 0.021413904
  vertex 0.287667 -0.0553288 4.1772084e-09
 endloop
endfacet
facet normal -0.25355116 -0.26370668 0.9306829
 outer loop
  vertex 0.366268 -0.0552506 0.021438004
  vertex 0.366268 -0.0551719 0.021460304
  vertex 0.287496 -0.0551719 4.1653627e-09
 endloop
endfacet
facet normal -0.25620207 -0.22356905 0.94041336
 outer loop
  vertex 0.366268 -0.0550927 0.021480903
  vertex 0.366268 -0.0550132 0.021499803
  vertex 0.287351 -0.0550132 4.153381e-09
 endloop
endfacet
facet normal -0.25851247 -0.18102519 0.9488947
 outer loop
  vertex 0.366268 -0.0549333 0.021516904
  vertex 0.366268 -0.0548531 0.021532204
  vertex 0.287232 -0.0548531 4.141294e-09
 endloop
endfacet
facet normal -0.2603257 -0.13835526 0.9555566
 outer loop
  vertex 0.366268 -0.0547725 0.021545704
  vertex 0.366268 -0.0546917 0.021557404
  vertex 0.287139 -0.0546917 4.1291086e-09
 endloop
endfacet
facet normal -0.2616463 -0.09578873 0.9603988
 outer loop
  vertex 0.366268 -0.0546107 0.021567404
  vertex 0.366268 -0.0545295 0.021575503
  vertex 0.287073 -0.0545295 4.116863e-09
 endloop
endfacet
facet normal -0.26248187 -0.05326377 0.96346575
 outer loop
  vertex 0.366268 -0.0544481 0.021581903
  vertex 0.366268 -0.0543667 0.021586403
  vertex 0.287033 -0.0543667 4.104572e-09
 endloop
endfacet
facet normal -0.2628408 -0.01063659 0.96478057
 outer loop
  vertex 0.366268 -0.0542851 0.021589104
  vertex 0.366268 -0.0542035 0.021590004
  vertex 0.28702 -0.0542035 4.0922505e-09
 endloop
endfacet
facet normal -0.23421931 -0.45389065 0.85972357
 outer loop
  vertex 0.366268 -0.0559328 0.021159803
  vertex 0.288599 -0.0559328 4.222809e-09
  vertex 0.366268 -0.096012 7.2487047e-09
 endloop
endfacet
facet normal -3.258655e-11 -7.5499514e-08 -1
 outer loop
  vertex 0.28702 -0.0542035 4.0922505e-09
  vertex 0.287027 -0.0543259 4.1014916e-09
  vertex 0.287023 -0.0542851 4.0984114e-09
 endloop
endfacet
facet normal -1.4788264e-11 -7.549849e-08 -1
 outer loop
  vertex 0.28702 -0.0542035 4.0922505e-09
  vertex 0.287033 -0.0543667 4.104572e-09
  vertex 0.287027 -0.0543259 4.1014916e-09
 endloop
endfacet
facet normal 7.470402e-13 -7.5497255e-08 -1
 outer loop
  vertex 0.28702 -0.0542035 4.0922505e-09
  vertex 0.287041 -0.0544074 4.1076444e-09
  vertex 0.287033 -0.0543667 4.104572e-09
 endloop
endfacet
facet normal 3.4465583e-11 -7.549378e-08 -1
 outer loop
  vertex 0.28702 -0.0542035 4.0922505e-09
  vertex 0.28705 -0.0544481 4.1107175e-09
  vertex 0.287041 -0.0544074 4.1076444e-09
 endloop
endfacet
facet normal -4.109713e-12 -7.549853e-08 -1
 outer loop
  vertex 0.28702 -0.0542035 4.0922505e-09
  vertex 0.287061 -0.0544888 4.11379e-09
  vertex 0.28705 -0.0544481 4.1107175e-09
 endloop
endfacet
facet normal -3.5109693e-12 -7.549842e-08 -1
 outer loop
  vertex 0.28702 -0.0542035 4.0922505e-09
  vertex 0.287073 -0.0545295 4.116863e-09
  vertex 0.287061 -0.0544888 4.11379e-09
 endloop
endfacet
facet normal -3.4461788e-11 -7.550346e-08 -1
 outer loop
  vertex 0.28702 -0.0542035 4.0922505e-09
  vertex 0.287087 -0.0545701 4.119928e-09
  vertex 0.287073 -0.0545295 4.116863e-09
 endloop
endfacet
facet normal 6.2912314e-12 -7.5496e-08 -1
 outer loop
  vertex 0.28702 -0.0542035 4.0922505e-09
  vertex 0.287103 -0.0546107 4.122993e-09
  vertex 0.287087 -0.0545701 4.119928e-09
 endloop
endfacet
facet normal 2.9171908e-11 -7.549134e-08 -1
 outer loop
  vertex 0.28702 -0.0542035 4.0922505e-09
  vertex 0.28712 -0.0546512 4.126051e-09
  vertex 0.287103 -0.0546107 4.122993e-09
 endloop
endfacet
facet normal 6.997096e-12 -7.54963e-08 -1
 outer loop
  vertex 0.28702 -0.0542035 4.0922505e-09
  vertex 0.287139 -0.0546917 4.1291086e-09
  vertex 0.28712 -0.0546512 4.126051e-09
 endloop
endfacet
facet normal -1.9510286e-11 -7.550276e-08 -1
 outer loop
  vertex 0.28702 -0.0542035 4.0922505e-09
  vertex 0.28716 -0.0547322 4.132166e-09
  vertex 0.287139 -0.0546917 4.1291086e-09
 endloop
endfacet
facet normal -9.113782e-12 -7.55e-08 -1
 outer loop
  vertex 0.28702 -0.0542035 4.0922505e-09
  vertex 0.287183 -0.0547725 4.1352086e-09
  vertex 0.28716 -0.0547322 4.132166e-09
 endloop
endfacet
facet normal 3.2205612e-12 -7.5495926e-08 -1
 outer loop
  vertex 0.28702 -0.0542035 4.0922505e-09
  vertex 0.287667 -0.0553288 4.1772084e-09
  vertex 0.287578 -0.0552506 4.171304e-09
 endloop
endfacet
facet normal 2.7233013e-11 -7.54896e-08 -1
 outer loop
  vertex 0.28702 -0.0542035 4.0922505e-09
  vertex 0.287207 -0.0548128 4.1382515e-09
  vertex 0.287183 -0.0547725 4.1352086e-09
 endloop
endfacet
facet normal -7.4691485e-13 -7.5498214e-08 -1
 outer loop
  vertex 0.28702 -0.0542035 4.0922505e-09
  vertex 0.287761 -0.0554064 4.183067e-09
  vertex 0.287667 -0.0553288 4.1772084e-09
 endloop
endfacet
facet normal -1.0039802e-11 -7.550102e-08 -1
 outer loop
  vertex 0.28702 -0.0542035 4.0922505e-09
  vertex 0.287232 -0.0548531 4.141294e-09
  vertex 0.287207 -0.0548128 4.1382515e-09
 endloop
endfacet
facet normal -2.5357546e-12 -7.549931e-08 -1
 outer loop
  vertex 0.28702 -0.0542035 4.0922505e-09
  vertex 0.287863 -0.0554836 4.188895e-09
  vertex 0.287761 -0.0554064 4.183067e-09
 endloop
endfacet
facet normal -2.1789018e-12 -7.549848e-08 -1
 outer loop
  vertex 0.28702 -0.0542035 4.0922505e-09
  vertex 0.287259 -0.0548932 4.1443213e-09
  vertex 0.287232 -0.0548531 4.141294e-09
 endloop
endfacet
facet normal -5.7870943e-12 -7.5500736e-08 -1
 outer loop
  vertex 0.287578 -0.0552506 4.171304e-09
  vertex 0.287496 -0.0551719 4.1653627e-09
  vertex 0.28702 -0.0542035 4.0922505e-09
 endloop
endfacet
facet normal -1.9742537e-14 -7.5497894e-08 -1
 outer loop
  vertex -0.366268 -0.988702 7.464492e-08
  vertex 0.273209 -0.0551282 4.1620636e-09
  vertex 0.275033 -0.0551791 4.1659063e-09
 endloop
endfacet
facet normal -3.601329e-14 -7.549848e-08 -1
 outer loop
  vertex 0.275033 -0.0551791 4.1659063e-09
  vertex 0.273209 -0.0551282 4.1620636e-09
  vertex 0.27382 -0.0551384 4.1628336e-09
 endloop
endfacet
facet normal -1.9111316e-12 -7.549838e-08 -1
 outer loop
  vertex 0.28702 -0.0542035 4.0922505e-09
  vertex 0.287288 -0.0549333 4.1473487e-09
  vertex 0.287259 -0.0548932 4.1443213e-09
 endloop
endfacet
facet normal 1.0864547e-12 -7.549693e-08 -1
 outer loop
  vertex 0.28702 -0.0542035 4.0922505e-09
  vertex 0.28797 -0.0555601 4.194671e-09
  vertex 0.287863 -0.0554836 4.188895e-09
 endloop
endfacet
facet normal -3.5898293e-14 -7.549846e-08 -1
 outer loop
  vertex 0.27382 -0.0551384 4.1628336e-09
  vertex 0.274432 -0.0551486 4.1636037e-09
  vertex 0.275033 -0.0551791 4.1659063e-09
 endloop
endfacet
facet normal -0 -7.5497894e-08 -1
 outer loop
  vertex -0.366268 -0.988702 7.464492e-08
  vertex 0.211157 -0.055118 4.161293e-09
  vertex 0.272598 -0.055118 4.161293e-09
 endloop
endfacet
facet normal 1.10518495e-11 -7.549362e-08 -1
 outer loop
  vertex 0.28702 -0.0542035 4.0922505e-09
  vertex 0.287319 -0.0549733 4.150369e-09
  vertex 0.287288 -0.0549333 4.1473487e-09
 endloop
endfacet
facet normal 4.5924974e-12 -7.549448e-08 -1
 outer loop
  vertex 0.28702 -0.0542035 4.0922505e-09
  vertex 0.288084 -0.0556361 4.200409e-09
  vertex 0.28797 -0.0555601 4.194671e-09
 endloop
endfacet
facet normal 3.255492e-13 -7.549812e-08 -1
 outer loop
  vertex -0.366268 -0.988702 7.464492e-08
  vertex 0.275635 -0.0552096 4.168209e-09
  vertex 0.276237 -0.05524 4.1705044e-09
 endloop
endfacet
facet normal 2.3725046e-13 -7.5498065e-08 -1
 outer loop
  vertex 0.272598 -0.055118 4.161293e-09
  vertex 0.273209 -0.0551282 4.1620636e-09
  vertex -0.366268 -0.988702 7.464492e-08
 endloop
endfacet
facet normal 3.1655835e-12 -7.549668e-08 -1
 outer loop
  vertex 0.28702 -0.0542035 4.0922505e-09
  vertex 0.287351 -0.0550132 4.153381e-09
  vertex 0.287319 -0.0549733 4.150369e-09
 endloop
endfacet
facet normal -1.6946481e-12 -7.5499145e-08 -1
 outer loop
  vertex 0.28702 -0.0542035 4.0922505e-09
  vertex 0.288203 -0.0557113 4.206086e-09
  vertex 0.288084 -0.0556361 4.200409e-09
 endloop
endfacet
facet normal 1.593429e-13 -7.549801e-08 -1
 outer loop
  vertex -0.366268 -0.988702 7.464492e-08
  vertex 0.284911 -0.056918 4.2971893e-09
  vertex 0.285223 -0.0570567 4.307661e-09
 endloop
endfacet
facet normal 8.971289e-14 -7.5497965e-08 -1
 outer loop
  vertex -0.366268 -0.988702 7.464492e-08
  vertex 0.280165 -0.0556825 4.203912e-09
  vertex 0.280687 -0.0557666 4.2102615e-09
 endloop
endfacet
facet normal -6.7116375e-15 -7.5497894e-08 -1
 outer loop
  vertex 0.275033 -0.0551791 4.1659063e-09
  vertex 0.275635 -0.0552096 4.168209e-09
  vertex -0.366268 -0.988702 7.464492e-08
 endloop
endfacet
facet normal -1.0591941e-11 -7.55023e-08 -1
 outer loop
  vertex 0.28702 -0.0542035 4.0922505e-09
  vertex 0.287385 -0.055053 4.156386e-09
  vertex 0.287351 -0.0550132 4.153381e-09
 endloop
endfacet
facet normal 6.7440265e-13 -7.549729e-08 -1
 outer loop
  vertex 0.28702 -0.0542035 4.0922505e-09
  vertex 0.288329 -0.0557859 4.2117185e-09
  vertex 0.288203 -0.0557113 4.206086e-09
 endloop
endfacet
facet normal 3.477092e-14 -7.549792e-08 -1
 outer loop
  vertex -0.366268 -0.988702 7.464492e-08
  vertex 0.284577 -0.056783 4.286997e-09
  vertex 0.284911 -0.056918 4.2971893e-09
 endloop
endfacet
facet normal 2.2938103e-14 -7.5497915e-08 -1
 outer loop
  vertex -0.366268 -0.988702 7.464492e-08
  vertex 0.278536 -0.0554599 4.187106e-09
  vertex 0.280165 -0.0556825 4.203912e-09
 endloop
endfacet
facet normal 9.182974e-14 -7.549743e-08 -1
 outer loop
  vertex 0.280165 -0.0556825 4.203912e-09
  vertex 0.278536 -0.0554599 4.187106e-09
  vertex 0.279089 -0.0555291 4.1923305e-09
 endloop
endfacet
facet normal -4.686904e-13 -7.5497574e-08 -1
 outer loop
  vertex -0.366268 -0.988702 7.464492e-08
  vertex 0.277401 -0.0553405 4.1780917e-09
  vertex 0.277983 -0.0553907 4.1818815e-09
 endloop
endfacet
facet normal -8.438935e-14 -7.549784e-08 -1
 outer loop
  vertex 0.276237 -0.05524 4.1705044e-09
  vertex 0.276819 -0.0552903 4.174302e-09
  vertex -0.366268 -0.988702 7.464492e-08
 endloop
endfacet
facet normal -7.480831e-12 -7.550095e-08 -1
 outer loop
  vertex 0.28702 -0.0542035 4.0922505e-09
  vertex 0.28742 -0.0550927 4.159383e-09
  vertex 0.287385 -0.055053 4.156386e-09
 endloop
endfacet
facet normal -1.2841312e-12 -7.549891e-08 -1
 outer loop
  vertex 0.28702 -0.0542035 4.0922505e-09
  vertex 0.288461 -0.0558598 4.2172976e-09
  vertex 0.288329 -0.0557859 4.2117185e-09
 endloop
endfacet
facet normal -4.4071254e-13 -7.549759e-08 -1
 outer loop
  vertex -0.366268 -0.988702 7.464492e-08
  vertex 0.284221 -0.0566517 4.2770845e-09
  vertex 0.284577 -0.056783 4.286997e-09
 endloop
endfacet
facet normal -4.071936e-12 -7.552662e-08 -1
 outer loop
  vertex 0.279089 -0.0555291 4.1923305e-09
  vertex 0.279642 -0.0555983 4.1975547e-09
  vertex 0.280165 -0.0556825 4.203912e-09
 endloop
endfacet
facet normal -1.2809919e-14 -7.549789e-08 -1
 outer loop
  vertex 0.276819 -0.0552903 4.174302e-09
  vertex 0.277401 -0.0553405 4.1780917e-09
  vertex -0.366268 -0.988702 7.464492e-08
 endloop
endfacet
facet normal 1.6510954e-11 -7.549016e-08 -1
 outer loop
  vertex 0.28702 -0.0542035 4.0922505e-09
  vertex 0.287457 -0.0551324 4.1623807e-09
  vertex 0.28742 -0.0550927 4.159383e-09
 endloop
endfacet
facet normal 2.5946513e-12 -7.549553e-08 -1
 outer loop
  vertex 0.28702 -0.0542035 4.0922505e-09
  vertex 0.288599 -0.0559328 4.222809e-09
  vertex 0.288461 -0.0558598 4.2172976e-09
 endloop
endfacet
facet normal 2.9774027e-13 -7.549811e-08 -1
 outer loop
  vertex -0.366268 -0.988702 7.464492e-08
  vertex 0.283844 -0.0565246 4.2674886e-09
  vertex 0.284221 -0.0566517 4.2770845e-09
 endloop
endfacet
facet normal 6.608675e-14 -7.5497944e-08 -1
 outer loop
  vertex -0.366268 -0.988702 7.464492e-08
  vertex 0.283022 -0.0562858 4.2494595e-09
  vertex 0.283448 -0.0564017 4.25821e-09
 endloop
endfacet
facet normal 1.1782589e-13 -7.549799e-08 -1
 outer loop
  vertex -0.366268 -0.988702 7.464492e-08
  vertex 0.281181 -0.0558621 4.2174713e-09
  vertex 0.281675 -0.0559576 4.2246815e-09
 endloop
endfacet
facet normal 2.9933713e-13 -7.549811e-08 -1
 outer loop
  vertex 0.277983 -0.0553907 4.1818815e-09
  vertex 0.278536 -0.0554599 4.187106e-09
  vertex -0.366268 -0.988702 7.464492e-08
 endloop
endfacet
facet normal -2.6000066e-12 -7.549917e-08 -1
 outer loop
  vertex 0.287496 -0.0551719 4.1653627e-09
  vertex 0.287457 -0.0551324 4.1623807e-09
  vertex 0.28702 -0.0542035 4.0922505e-09
 endloop
endfacet
facet normal 6.1812805e-14 -7.549793e-08 -1
 outer loop
  vertex 0.283448 -0.0564017 4.25821e-09
  vertex 0.283844 -0.0565246 4.2674886e-09
  vertex -0.366268 -0.988702 7.464492e-08
 endloop
endfacet
facet normal 2.8868395e-13 -7.549811e-08 -1
 outer loop
  vertex -0.366268 -0.988702 7.464492e-08
  vertex 0.282136 -0.0560637 4.2326915e-09
  vertex 0.282597 -0.0561698 4.240702e-09
 endloop
endfacet
facet normal -1.7259082e-13 -7.549778e-08 -1
 outer loop
  vertex 0.280687 -0.0557666 4.2102615e-09
  vertex 0.281181 -0.0558621 4.2174713e-09
  vertex -0.366268 -0.988702 7.464492e-08
 endloop
endfacet
facet normal 1.6559502e-10 -7.54922e-08 -1
 outer loop
  vertex 0.287023 -0.0542851 4.0984114e-09
  vertex 0.287021 -0.0542443 4.0953307e-09
  vertex 0.28702 -0.0542035 4.0922505e-09
 endloop
endfacet
facet normal -1.7425617e-16 -7.549791e-08 -1
 outer loop
  vertex 0.28702 -0.0500009 3.774963e-09
  vertex 3.66268 1.4729867e-24 1.95103e-17
  vertex 0.366268 -0.096012 7.2487047e-09
 endloop
endfacet
facet normal 2.3914339e-14 -7.549791e-08 -1
 outer loop
  vertex 0.285223 -0.0570567 4.307661e-09
  vertex 0.285513 -0.0571987 4.3183817e-09
  vertex -0.366268 -0.988702 7.464492e-08
 endloop
endfacet
facet normal -5.426169e-13 -7.5497525e-08 -1
 outer loop
  vertex 0.281675 -0.0559576 4.2246815e-09
  vertex 0.282136 -0.0560637 4.2326915e-09
  vertex -0.366268 -0.988702 7.464492e-08
 endloop
endfacet
facet normal 1.8471253e-16 -7.5497894e-08 -1
 outer loop
  vertex -0.366268 -0.988702 7.464492e-08
  vertex -0.366268 -4.190979e-24 -5.55112e-17
  vertex 8.06646e-17 -1.2067099e-17 1.2143101e-17
 endloop
endfacet
facet normal -4.364752e-15 -7.549791e-08 -1
 outer loop
  vertex 0.366268 -0.096012 7.2487047e-09
  vertex 0.288599 -0.0559328 4.222809e-09
  vertex 0.28702 -0.0500009 3.774963e-09
 endloop
endfacet
facet normal 0 -7.5497894e-08 -1
 outer loop
  vertex 3.66268 1.4729867e-24 1.95103e-17
  vertex 3.66268 -0.988702 7.464492e-08
  vertex 0.366268 -0.0988702 7.464493e-09
 endloop
endfacet
facet normal -3.4210688e-13 -7.549766e-08 -1
 outer loop
  vertex 0.282597 -0.0561698 4.240702e-09
  vertex 0.283022 -0.0562858 4.2494595e-09
  vertex -0.366268 -0.988702 7.464492e-08
 endloop
endfacet
facet normal 0 -7.5497894e-08 -1
 outer loop
  vertex 8.06646e-17 -1.2067099e-17 1.2143101e-17
  vertex 0.185166 -0.05 3.774895e-09
  vertex -0.366268 -0.988702 7.464492e-08
 endloop
endfacet
facet normal 4.794263e-18 -7.54979e-08 -1
 outer loop
  vertex 0.285166 2.504726e-25 3.31761e-18
  vertex 3.66268 1.4729867e-24 1.95103e-17
  vertex 0.28702 -0.0500009 3.774963e-09
 endloop
endfacet
facet normal 2.393534e-15 -7.549798e-08 -1
 outer loop
  vertex 0.366268 -0.0988702 7.464493e-09
  vertex 0.366268 -0.096012 7.2487047e-09
  vertex 3.66268 1.4729867e-24 1.95103e-17
 endloop
endfacet
facet normal -2.039349e-15 -7.54979e-08 -1
 outer loop
  vertex 0.185166 -0.05 3.774895e-09
  vertex 0.211157 -0.055118 4.161293e-09
  vertex -0.366268 -0.988702 7.464492e-08
 endloop
endfacet
facet normal 0 -7.549791e-08 -1
 outer loop
  vertex 0.28702 -0.0542035 4.0922505e-09
  vertex 0.28702 -0.0500009 3.774963e-09
  vertex 0.288599 -0.0559328 4.222809e-09
 endloop
endfacet
facet normal 4.337476e-15 -7.54979e-08 -1
 outer loop
  vertex 0.285513 -0.0571987 4.3183817e-09
  vertex 0.366268 -0.0988702 7.464493e-09
  vertex -0.366268 -0.988702 7.464492e-08
 endloop
endfacet
facet normal 0 -7.54979e-08 -1
 outer loop
  vertex 0.366268 -0.0988702 7.464493e-09
  vertex 3.66268 -0.988702 7.464492e-08
  vertex -0.366268 -0.988702 7.464492e-08
 endloop
endfacet
facet normal 8.846548e-14 -7.54979e-08 -1
 outer loop
  vertex 0.28702 -0.0500009 3.774963e-09
  vertex 0.285166 -0.05 3.774895e-09
  vertex 0.285166 2.504726e-25 3.31761e-18
 endloop
endfacet
facet normal -1.6559502e-10 1 -7.54922e-08
 outer loop
  vertex 0.28702 4.0922505e-09 0.0542035
  vertex 0.287021 4.0953307e-09 0.0542443
  vertex 0.287023 4.0984114e-09 0.0542851
 endloop
endfacet
facet normal 3.258655e-11 1 -7.5499514e-08
 outer loop
  vertex 0.287023 4.0984114e-09 0.0542851
  vertex 0.287027 4.1014916e-09 0.0543259
  vertex 0.28702 4.0922505e-09 0.0542035
 endloop
endfacet
facet normal 1.4788264e-11 1 -7.549849e-08
 outer loop
  vertex 0.287027 4.1014916e-09 0.0543259
  vertex 0.287033 4.104572e-09 0.0543667
  vertex 0.28702 4.0922505e-09 0.0542035
 endloop
endfacet
facet normal -7.470402e-13 1 -7.5497255e-08
 outer loop
  vertex 0.287033 4.104572e-09 0.0543667
  vertex 0.287041 4.1076444e-09 0.0544074
  vertex 0.28702 4.0922505e-09 0.0542035
 endloop
endfacet
facet normal -3.4465583e-11 1 -7.549378e-08
 outer loop
  vertex 0.287041 4.1076444e-09 0.0544074
  vertex 0.28705 4.1107175e-09 0.0544481
  vertex 0.28702 4.0922505e-09 0.0542035
 endloop
endfacet
facet normal 4.109713e-12 1 -7.549853e-08
 outer loop
  vertex 0.28705 4.1107175e-09 0.0544481
  vertex 0.287061 4.11379e-09 0.0544888
  vertex 0.28702 4.0922505e-09 0.0542035
 endloop
endfacet
facet normal 3.5109693e-12 1 -7.549842e-08
 outer loop
  vertex 0.287061 4.11379e-09 0.0544888
  vertex 0.287073 4.116863e-09 0.0545295
  vertex 0.28702 4.0922505e-09 0.0542035
 endloop
endfacet
facet normal -2.3914339e-14 1 -7.549791e-08
 outer loop
  vertex -0.366268 7.464492e-08 0.988702
  vertex 0.285513 4.3183817e-09 0.0571987
  vertex 0.285223 4.307661e-09 0.0570567
 endloop
endfacet
facet normal 3.4461788e-11 1 -7.550346e-08
 outer loop
  vertex 0.287073 4.116863e-09 0.0545295
  vertex 0.287087 4.119928e-09 0.0545701
  vertex 0.28702 4.0922505e-09 0.0542035
 endloop
endfacet
facet normal -1.593429e-13 1 -7.549801e-08
 outer loop
  vertex 0.285223 4.307661e-09 0.0570567
  vertex 0.284911 4.2971893e-09 0.056918
  vertex -0.366268 7.464492e-08 0.988702
 endloop
endfacet
facet normal -6.2912314e-12 1 -7.5496e-08
 outer loop
  vertex 0.287087 4.119928e-09 0.0545701
  vertex 0.287103 4.122993e-09 0.0546107
  vertex 0.28702 4.0922505e-09 0.0542035
 endloop
endfacet
facet normal -3.477092e-14 1 -7.549792e-08
 outer loop
  vertex 0.284911 4.2971893e-09 0.056918
  vertex 0.284577 4.286997e-09 0.056783
  vertex -0.366268 7.464492e-08 0.988702
 endloop
endfacet
facet normal -2.9171908e-11 1 -7.549134e-08
 outer loop
  vertex 0.287103 4.122993e-09 0.0546107
  vertex 0.28712 4.126051e-09 0.0546512
  vertex 0.28702 4.0922505e-09 0.0542035
 endloop
endfacet
facet normal -6.1812805e-14 1 -7.549793e-08
 outer loop
  vertex -0.366268 7.464492e-08 0.988702
  vertex 0.283844 4.2674886e-09 0.0565246
  vertex 0.283448 4.25821e-09 0.0564017
 endloop
endfacet
facet normal 4.4071254e-13 1 -7.549759e-08
 outer loop
  vertex 0.284577 4.286997e-09 0.056783
  vertex 0.284221 4.2770845e-09 0.0566517
  vertex -0.366268 7.464492e-08 0.988702
 endloop
endfacet
facet normal -6.997096e-12 1 -7.54963e-08
 outer loop
  vertex 0.28712 4.126051e-09 0.0546512
  vertex 0.287139 4.1291086e-09 0.0546917
  vertex 0.28702 4.0922505e-09 0.0542035
 endloop
endfacet
facet normal -2.9774027e-13 1 -7.549811e-08
 outer loop
  vertex 0.284221 4.2770845e-09 0.0566517
  vertex 0.283844 4.2674886e-09 0.0565246
  vertex -0.366268 7.464492e-08 0.988702
 endloop
endfacet
facet normal 5.7870943e-12 1 -7.5500736e-08
 outer loop
  vertex 0.28702 4.0922505e-09 0.0542035
  vertex 0.287496 4.1653627e-09 0.0551719
  vertex 0.287578 4.171304e-09 0.0552506
 endloop
endfacet
facet normal 1.9510286e-11 1 -7.550276e-08
 outer loop
  vertex 0.287139 4.1291086e-09 0.0546917
  vertex 0.28716 4.132166e-09 0.0547322
  vertex 0.28702 4.0922505e-09 0.0542035
 endloop
endfacet
facet normal 3.4210688e-13 1 -7.549766e-08
 outer loop
  vertex -0.366268 7.464492e-08 0.988702
  vertex 0.283022 4.2494595e-09 0.0562858
  vertex 0.282597 4.240702e-09 0.0561698
 endloop
endfacet
facet normal -4.337476e-15 1 -7.54979e-08
 outer loop
  vertex -0.366268 7.464492e-08 0.988702
  vertex 0.366268 7.464493e-09 0.0988702
  vertex 0.285513 4.3183817e-09 0.0571987
 endloop
endfacet
facet normal -3.2205612e-12 1 -7.5495926e-08
 outer loop
  vertex 0.287578 4.171304e-09 0.0552506
  vertex 0.287667 4.1772084e-09 0.0553288
  vertex 0.28702 4.0922505e-09 0.0542035
 endloop
endfacet
facet normal 9.113782e-12 1 -7.55e-08
 outer loop
  vertex 0.28716 4.132166e-09 0.0547322
  vertex 0.287183 4.1352086e-09 0.0547725
  vertex 0.28702 4.0922505e-09 0.0542035
 endloop
endfacet
facet normal 5.426169e-13 1 -7.5497525e-08
 outer loop
  vertex -0.366268 7.464492e-08 0.988702
  vertex 0.282136 4.2326915e-09 0.0560637
  vertex 0.281675 4.2246815e-09 0.0559576
 endloop
endfacet
facet normal -6.608675e-14 1 -7.5497944e-08
 outer loop
  vertex 0.283448 4.25821e-09 0.0564017
  vertex 0.283022 4.2494595e-09 0.0562858
  vertex -0.366268 7.464492e-08 0.988702
 endloop
endfacet
facet normal 7.4691485e-13 1 -7.5498214e-08
 outer loop
  vertex 0.287667 4.1772084e-09 0.0553288
  vertex 0.287761 4.183067e-09 0.0554064
  vertex 0.28702 4.0922505e-09 0.0542035
 endloop
endfacet
facet normal -2.7233013e-11 1 -7.54896e-08
 outer loop
  vertex 0.287183 4.1352086e-09 0.0547725
  vertex 0.287207 4.1382515e-09 0.0548128
  vertex 0.28702 4.0922505e-09 0.0542035
 endloop
endfacet
facet normal 1.7259082e-13 1 -7.549778e-08
 outer loop
  vertex -0.366268 7.464492e-08 0.988702
  vertex 0.281181 4.2174713e-09 0.0558621
  vertex 0.280687 4.2102615e-09 0.0557666
 endloop
endfacet
facet normal -2.8868395e-13 1 -7.549811e-08
 outer loop
  vertex 0.282597 4.240702e-09 0.0561698
  vertex 0.282136 4.2326915e-09 0.0560637
  vertex -0.366268 7.464492e-08 0.988702
 endloop
endfacet
facet normal 2.6000066e-12 1 -7.549917e-08
 outer loop
  vertex 0.28702 4.0922505e-09 0.0542035
  vertex 0.287457 4.1623807e-09 0.0551324
  vertex 0.287496 4.1653627e-09 0.0551719
 endloop
endfacet
facet normal 1.0039802e-11 1 -7.550102e-08
 outer loop
  vertex 0.287207 4.1382515e-09 0.0548128
  vertex 0.287232 4.141294e-09 0.0548531
  vertex 0.28702 4.0922505e-09 0.0542035
 endloop
endfacet
facet normal -2.86175e-14 1 -7.549792e-08
 outer loop
  vertex -0.366268 7.464492e-08 0.988702
  vertex 0.279089 4.1923305e-09 0.0555291
  vertex 0.278536 4.187106e-09 0.0554599
 endloop
endfacet
facet normal -4.9732657e-13 1 -7.5498235e-08
 outer loop
  vertex -0.366268 7.464492e-08 0.988702
  vertex 0.280165 4.203912e-09 0.0556825
  vertex 0.279642 4.1975547e-09 0.0555983
 endloop
endfacet
facet normal -1.1782589e-13 1 -7.549799e-08
 outer loop
  vertex 0.281675 4.2246815e-09 0.0559576
  vertex 0.281181 4.2174713e-09 0.0558621
  vertex -0.366268 7.464492e-08 0.988702
 endloop
endfacet
facet normal 2.5357546e-12 1 -7.549931e-08
 outer loop
  vertex 0.287761 4.183067e-09 0.0554064
  vertex 0.287863 4.188895e-09 0.0554836
  vertex 0.28702 4.0922505e-09 0.0542035
 endloop
endfacet
facet normal 2.1789018e-12 1 -7.549848e-08
 outer loop
  vertex 0.287232 4.141294e-09 0.0548531
  vertex 0.287259 4.1443213e-09 0.0548932
  vertex 0.28702 4.0922505e-09 0.0542035
 endloop
endfacet
facet normal 8.931536e-14 1 -7.549784e-08
 outer loop
  vertex 0.278536 4.187106e-09 0.0554599
  vertex 0.277401 4.1780917e-09 0.0553405
  vertex -0.366268 7.464492e-08 0.988702
 endloop
endfacet
facet normal -8.971289e-14 1 -7.5497965e-08
 outer loop
  vertex 0.280687 4.2102615e-09 0.0557666
  vertex 0.280165 4.203912e-09 0.0556825
  vertex -0.366268 7.464492e-08 0.988702
 endloop
endfacet
facet normal -1.0864547e-12 1 -7.549693e-08
 outer loop
  vertex 0.287863 4.188895e-09 0.0554836
  vertex 0.28797 4.194671e-09 0.0555601
  vertex 0.28702 4.0922505e-09 0.0542035
 endloop
endfacet
facet normal 1.9111316e-12 1 -7.549838e-08
 outer loop
  vertex 0.287259 4.1443213e-09 0.0548932
  vertex 0.287288 4.1473487e-09 0.0549333
  vertex 0.28702 4.0922505e-09 0.0542035
 endloop
endfacet
facet normal 4.401106e-13 1 -7.549759e-08
 outer loop
  vertex 0.279642 4.1975547e-09 0.0555983
  vertex 0.279089 4.1923305e-09 0.0555291
  vertex -0.366268 7.464492e-08 0.988702
 endloop
endfacet
facet normal -4.5924974e-12 1 -7.549448e-08
 outer loop
  vertex 0.28797 4.194671e-09 0.0555601
  vertex 0.288084 4.200409e-09 0.0556361
  vertex 0.28702 4.0922505e-09 0.0542035
 endloop
endfacet
facet normal -1.10518495e-11 1 -7.549362e-08
 outer loop
  vertex 0.287288 4.1473487e-09 0.0549333
  vertex 0.287319 4.150369e-09 0.0549733
  vertex 0.28702 4.0922505e-09 0.0542035
 endloop
endfacet
facet normal 8.438935e-14 1 -7.549784e-08
 outer loop
  vertex -0.366268 7.464492e-08 0.988702
  vertex 0.276819 4.174302e-09 0.0552903
  vertex 0.276237 4.1705044e-09 0.05524
 endloop
endfacet
facet normal 2.3202365e-12 1 -7.551906e-08
 outer loop
  vertex 0.278536 4.187106e-09 0.0554599
  vertex 0.277983 4.1818815e-09 0.0553907
  vertex 0.277401 4.1780917e-09 0.0553405
 endloop
endfacet
facet normal 1.6946481e-12 1 -7.5499145e-08
 outer loop
  vertex 0.288084 4.200409e-09 0.0556361
  vertex 0.288203 4.206086e-09 0.0557113
  vertex 0.28702 4.0922505e-09 0.0542035
 endloop
endfacet
facet normal -3.1655835e-12 1 -7.549668e-08
 outer loop
  vertex 0.287319 4.150369e-09 0.0549733
  vertex 0.287351 4.153381e-09 0.0550132
  vertex 0.28702 4.0922505e-09 0.0542035
 endloop
endfacet
facet normal 1.2056394e-14 1 -7.549789e-08
 outer loop
  vertex 0.277401 4.1780917e-09 0.0553405
  vertex 0.276819 4.174302e-09 0.0552903
  vertex -0.366268 7.464492e-08 0.988702
 endloop
endfacet
facet normal -6.7440265e-13 1 -7.549729e-08
 outer loop
  vertex 0.288203 4.206086e-09 0.0557113
  vertex 0.288329 4.2117185e-09 0.0557859
  vertex 0.28702 4.0922505e-09 0.0542035
 endloop
endfacet
facet normal 1.0591941e-11 1 -7.55023e-08
 outer loop
  vertex 0.287351 4.153381e-09 0.0550132
  vertex 0.287385 4.156386e-09 0.055053
  vertex 0.28702 4.0922505e-09 0.0542035
 endloop
endfacet
facet normal 7.0960494e-15 1 -7.54979e-08
 outer loop
  vertex -0.366268 7.464492e-08 0.988702
  vertex 0.275033 4.1659063e-09 0.0551791
  vertex 0.274432 4.1636037e-09 0.0551486
 endloop
endfacet
facet normal -3.255492e-13 1 -7.549812e-08
 outer loop
  vertex 0.276237 4.1705044e-09 0.05524
  vertex 0.275635 4.168209e-09 0.0552096
  vertex -0.366268 7.464492e-08 0.988702
 endloop
endfacet
facet normal 1.2841312e-12 1 -7.549891e-08
 outer loop
  vertex 0.288329 4.2117185e-09 0.0557859
  vertex 0.288461 4.2172976e-09 0.0558598
  vertex 0.28702 4.0922505e-09 0.0542035
 endloop
endfacet
facet normal 7.480831e-12 1 -7.550095e-08
 outer loop
  vertex 0.287385 4.156386e-09 0.055053
  vertex 0.28742 4.159383e-09 0.0550927
  vertex 0.28702 4.0922505e-09 0.0542035
 endloop
endfacet
facet normal 7.084507e-15 1 -7.54979e-08
 outer loop
  vertex 0.275635 4.168209e-09 0.0552096
  vertex 0.275033 4.1659063e-09 0.0551791
  vertex -0.366268 7.464492e-08 0.988702
 endloop
endfacet
facet normal -1.6510954e-11 1 -7.549016e-08
 outer loop
  vertex 0.28742 4.159383e-09 0.0550927
  vertex 0.287457 4.1623807e-09 0.0551324
  vertex 0.28702 4.0922505e-09 0.0542035
 endloop
endfacet
facet normal 0 1 -7.5497894e-08
 outer loop
  vertex -0.366268 7.464492e-08 0.988702
  vertex 0.185166 3.774895e-09 0.05
  vertex 8.06646e-17 -1.2067099e-17 1.2143101e-17
 endloop
endfacet
facet normal -2.3725046e-13 1 -7.5498065e-08
 outer loop
  vertex -0.366268 7.464492e-08 0.988702
  vertex 0.273209 4.1620636e-09 0.0551282
  vertex 0.272598 4.161293e-09 0.055118
 endloop
endfacet
facet normal 2.6079645e-14 1 -7.549788e-08
 outer loop
  vertex 0.274432 4.1636037e-09 0.0551486
  vertex 0.27382 4.1628336e-09 0.0551384
  vertex -0.366268 7.464492e-08 0.988702
 endloop
endfacet
facet normal 4.364752e-15 1 -7.549791e-08
 outer loop
  vertex 0.28702 3.774963e-09 0.0500009
  vertex 0.288599 4.222809e-09 0.0559328
  vertex 0.366268 7.2487047e-09 0.096012
 endloop
endfacet
facet normal 0 1 -7.549791e-08
 outer loop
  vertex 0.288599 4.222809e-09 0.0559328
  vertex 0.28702 3.774963e-09 0.0500009
  vertex 0.28702 4.0922505e-09 0.0542035
 endloop
endfacet
facet normal 2.039349e-15 1 -7.54979e-08
 outer loop
  vertex -0.366268 7.464492e-08 0.988702
  vertex 0.211157 4.161293e-09 0.055118
  vertex 0.185166 3.774895e-09 0.05
 endloop
endfacet
facet normal 2.6215109e-14 1 -7.549789e-08
 outer loop
  vertex 0.27382 4.1628336e-09 0.0551384
  vertex 0.273209 4.1620636e-09 0.0551282
  vertex -0.366268 7.464492e-08 0.988702
 endloop
endfacet
facet normal -2.393534e-15 1 -7.549798e-08
 outer loop
  vertex 3.66268 1.4729867e-24 1.95103e-17
  vertex 0.366268 7.2487047e-09 0.096012
  vertex 0.366268 7.464493e-09 0.0988702
 endloop
endfacet
facet normal -2.5946513e-12 1 -7.549553e-08
 outer loop
  vertex 0.288461 4.2172976e-09 0.0558598
  vertex 0.288599 4.222809e-09 0.0559328
  vertex 0.28702 4.0922505e-09 0.0542035
 endloop
endfacet
facet normal 0 1 -7.5497894e-08
 outer loop
  vertex 0.272598 4.161293e-09 0.055118
  vertex 0.211157 4.161293e-09 0.055118
  vertex -0.366268 7.464492e-08 0.988702
 endloop
endfacet
facet normal 1.7425617e-16 1 -7.549791e-08
 outer loop
  vertex 0.366268 7.2487047e-09 0.096012
  vertex 3.66268 1.4729867e-24 1.95103e-17
  vertex 0.28702 3.774963e-09 0.0500009
 endloop
endfacet
facet normal -8.846548e-14 1 -7.54979e-08
 outer loop
  vertex 0.285166 2.504726e-25 3.31761e-18
  vertex 0.285166 3.774895e-09 0.05
  vertex 0.28702 3.774963e-09 0.0500009
 endloop
endfacet
facet normal 0 1 -7.54979e-08
 outer loop
  vertex -0.366268 7.464492e-08 0.988702
  vertex 3.66268 7.464492e-08 0.988702
  vertex 0.366268 7.464493e-09 0.0988702
 endloop
endfacet
facet normal 3.6493498e-32 1 -7.54979e-08
 outer loop
  vertex 0.28702 3.774963e-09 0.0500009
  vertex 3.66268 1.4729867e-24 1.95103e-17
  vertex 0.285166 2.504726e-25 3.31761e-18
 endloop
endfacet
facet normal 0 1 -7.5497894e-08
 outer loop
  vertex 0.366268 7.464493e-09 0.0988702
  vertex 3.66268 7.464492e-08 0.988702
  vertex 3.66268 1.4729867e-24 1.95103e-17
 endloop
endfacet
facet normal 3.294609e-17 1 -7.5497894e-08
 outer loop
  vertex 8.06646e-17 -1.2067099e-17 1.2143101e-17
  vertex -0.366268 -4.190979e-24 -5.55112e-17
  vertex -0.366268 7.464492e-08 0.988702
 endloop
endfacet
facet normal -0 6.028576e-08 1
 outer loop
  vertex 3.66268 -0.98870194 0.98870206
  vertex 3.66268 7.464492e-08 0.988702
  vertex -0.366268 7.464492e-08 0.988702
 endloop
endfacet
facet normal 0 6.028576e-08 1
 outer loop
  vertex -0.366268 7.464492e-08 0.988702
  vertex -0.366268 -0.98870194 0.98870206
  vertex 3.66268 -0.98870194 0.98870206
 endloop
endfacet
facet normal 0 -1 6.028576e-08
 outer loop
  vertex 3.66268 -0.988702 7.464492e-08
  vertex 3.66268 -0.98870194 0.98870206
  vertex -0.366268 -0.98870194 0.98870206
 endloop
endfacet
facet normal 0 -1 6.028576e-08
 outer loop
  vertex -0.366268 -0.98870194 0.98870206
  vertex -0.366268 -0.988702 7.464492e-08
  vertex 3.66268 -0.988702 7.464492e-08
 endloop
endfacet
facet normal -1 0 0
 outer loop
  vertex -0.366268 -0.98870194 0.98870206
  vertex -0.366268 7.464492e-08 0.988702
  vertex -0.366268 -4.190979e-24 -5.55112e-17
 endloop
endfacet
facet normal -1 0 -0
 outer loop
  vertex -0.366268 -4.190979e-24 -5.55112e-17
  vertex -0.366268 -0.988702 7.464492e-08
  vertex -0.366268 -0.98870194 0.98870206
 endloop
endfacet
facet normal 1 0 0
 outer loop
  vertex 3.66268 -0.988702 7.464492e-08
  vertex 3.66268 1.4729867e-24 1.95103e-17
  vertex 3.66268 7.464492e-08 0.988702
 endloop
endfacet
facet normal 1 -0 0
 outer loop
  vertex 3.66268 7.464492e-08 0.988702
  vertex 3.66268 -0.98870194 0.98870206
  vertex 3.66268 -0.988702 7.464492e-08
 endloop
endfacet
endsolid 
