solid 
facet normal -0 -0.70710677 -0.70710677
 outer loop
  vertex 0.211157 0.055118 0.044958
  vertex 0.366268 0.055118 0.044958
  vertex 0.366268 0.050038 0.050038
 endloop
endfacet
facet normal 0 -0.70710677 -0.70710677
 outer loop
  vertex 0.366268 0.044958 0.055118
  vertex 0.211157 0.044958 0.055118
  vertex 0.366268 0.050038 0.050038
 endloop
endfacet
facet normal -0 -0.70710677 -0.70710677
 outer loop
  vertex 0.211157 0.044958 0.055118
  vertex 0.185359 0.050038 0.050038
  vertex 0.366268 0.050038 0.050038
 endloop
endfacet
facet normal 0 -0.70710677 -0.70710677
 outer loop
  vertex 0.366268 0.050038 0.050038
  vertex 0.185359 0.050038 0.050038
  vertex 0.211157 0.055118 0.044958
 endloop
endfacet
facet normal -0.23539083 0.8640237 0.44503278
 outer loop
  vertex 0.288599 -3.72588e-17 0.0559328
  vertex 0.366268 0.0211598 0.0559328
  vertex 0.288461 0 0.0558598
 endloop
endfacet
facet normal -0.23539226 0.864029 0.4450217
 outer loop
  vertex 0.366268 0.0211598 0.0559328
  vertex 0.366268 0.0211974 0.0558598
  vertex 0.288461 0 0.0558598
 endloop
endfacet
facet normal -0.2379363 0.8733672 0.42498955
 outer loop
  vertex 0.288461 0 0.0558598
  vertex 0.366268 0.0211974 0.0558598
  vertex 0.288329 0 0.0557859
 endloop
endfacet
facet normal -0.2380064 0.8736269 0.42441612
 outer loop
  vertex 0.366268 0.0211974 0.0558598
  vertex 0.366268 0.0212333 0.0557859
  vertex 0.288329 0 0.0557859
 endloop
endfacet
facet normal -0.24024306 0.88183683 0.40576726
 outer loop
  vertex 0.288329 0 0.0557859
  vertex 0.366268 0.0212333 0.0557859
  vertex 0.288203 0 0.0557113
 endloop
endfacet
facet normal -0.24027385 0.8819509 0.405501
 outer loop
  vertex 0.366268 0.0212333 0.0557859
  vertex 0.366268 0.0212676 0.0557113
  vertex 0.288203 0 0.0557113
 endloop
endfacet
facet normal -0.24269535 0.8908393 0.38406283
 outer loop
  vertex 0.288203 0 0.0557113
  vertex 0.366268 0.0212676 0.0557113
  vertex 0.288084 0 0.0556361
 endloop
endfacet
facet normal -0.24249823 0.8901082 0.38587818
 outer loop
  vertex 0.366268 0.0212676 0.0557113
  vertex 0.366268 0.0213002 0.0556361
  vertex 0.288084 0 0.0556361
 endloop
endfacet
facet normal -0.24453697 0.8975916 0.36678472
 outer loop
  vertex 0.288084 0 0.0556361
  vertex 0.366268 0.0213002 0.0556361
  vertex 0.28797 0 0.0555601
 endloop
endfacet
facet normal -0.24459556 0.89780897 0.3662133
 outer loop
  vertex 0.366268 0.0213002 0.0556361
  vertex 0.366268 0.0213312 0.0555601
  vertex 0.28797 0 0.0555601
 endloop
endfacet
facet normal -0.24670528 0.90555286 0.3451238
 outer loop
  vertex 0.28797 0 0.0555601
  vertex 0.366268 0.0213312 0.0555601
  vertex 0.287863 0 0.0554836
 endloop
endfacet
facet normal -0.24656267 0.9050234 0.3466113
 outer loop
  vertex 0.366268 0.0213312 0.0555601
  vertex 0.366268 0.0213605 0.0554836
  vertex 0.287863 0 0.0554836
 endloop
endfacet
facet normal -0.24831343 0.9114496 0.3280246
 outer loop
  vertex 0.287863 0 0.0554836
  vertex 0.366268 0.0213605 0.0554836
  vertex 0.287761 0 0.0554064
 endloop
endfacet
facet normal -0.24858189 0.91244715 0.32503426
 outer loop
  vertex 0.366268 0.0213605 0.0554836
  vertex 0.366268 0.021388 0.0554064
  vertex 0.287761 0 0.0554064
 endloop
endfacet
facet normal -0.25046483 0.91935873 0.3033923
 outer loop
  vertex 0.287761 0 0.0554064
  vertex 0.366268 0.021388 0.0554064
  vertex 0.287667 0 0.0553288
 endloop
endfacet
facet normal -0.25020364 0.9183874 0.30653328
 outer loop
  vertex 0.366268 0.021388 0.0554064
  vertex 0.366268 0.0214139 0.0553288
  vertex 0.287667 0 0.0553288
 endloop
endfacet
facet normal -0.25182664 0.9243448 0.28665328
 outer loop
  vertex 0.287667 0 0.0553288
  vertex 0.366268 0.0214139 0.0553288
  vertex 0.287578 0 0.0552506
 endloop
endfacet
facet normal -0.25195318 0.92481583 0.2850179
 outer loop
  vertex 0.366268 0.0214139 0.0553288
  vertex 0.366268 0.021438 0.0552506
  vertex 0.287578 0 0.0552506
 endloop
endfacet
facet normal -0.25352255 0.9305763 0.2641098
 outer loop
  vertex 0.287578 0 0.0552506
  vertex 0.366268 0.021438 0.0552506
  vertex 0.287496 0 0.0551719
 endloop
endfacet
facet normal -0.25355116 0.9306829 0.26370668
 outer loop
  vertex 0.366268 0.021438 0.0552506
  vertex 0.366268 0.0214603 0.0551719
  vertex 0.287496 0 0.0551719
 endloop
endfacet
facet normal -0.2544227 0.93388194 0.25126418
 outer loop
  vertex 0.287496 0 0.0551719
  vertex 0.366268 0.0214603 0.0551719
  vertex 0.287457 0 0.0551324
 endloop
endfacet
facet normal -0.25494665 0.9358206 0.24339697
 outer loop
  vertex 0.366268 0.0214603 0.0551719
  vertex 0.366268 0.0214809 0.0550927
  vertex 0.287457 0 0.0551324
 endloop
endfacet
facet normal -0.25531194 0.93715054 0.23783334
 outer loop
  vertex 0.287457 0 0.0551324
  vertex 0.366268 0.0214809 0.0550927
  vertex 0.28742 0 0.0550927
 endloop
endfacet
facet normal -0.25823095 0.94786334 0.18674004
 outer loop
  vertex 0.287259 0 0.0548932
  vertex 0.287288 0 0.0549333
  vertex 0.366268 0.0215169 0.0549333
 endloop
endfacet
facet normal -0.25756717 0.9454268 0.1995678
 outer loop
  vertex 0.287288 0 0.0549333
  vertex 0.287319 0 0.0549733
  vertex 0.366268 0.0215169 0.0549333
 endloop
endfacet
facet normal -0.2574223 0.94490016 0.2022312
 outer loop
  vertex 0.366268 0.0215169 0.0549333
  vertex 0.287319 0 0.0549733
  vertex 0.366268 0.0214998 0.0550132
 endloop
endfacet
facet normal -0.25719914 0.9440732 0.20633566
 outer loop
  vertex 0.287319 0 0.0549733
  vertex 0.287351 0 0.0550132
  vertex 0.366268 0.0214998 0.0550132
 endloop
endfacet
facet normal -0.25620142 0.9404109 0.22358014
 outer loop
  vertex 0.366268 0.0214998 0.0550132
  vertex 0.287351 0 0.0550132
  vertex 0.366268 0.0214809 0.0550927
 endloop
endfacet
facet normal -0.25647417 0.9414302 0.21892968
 outer loop
  vertex 0.287351 0 0.0550132
  vertex 0.287385 0 0.055053
  vertex 0.366268 0.0214809 0.0550927
 endloop
endfacet
facet normal -0.2560621 0.9399041 0.2258594
 outer loop
  vertex 0.366268 0.0214809 0.0550927
  vertex 0.287385 0 0.055053
  vertex 0.28742 0 0.0550927
 endloop
endfacet
facet normal -0.25882515 0.9500684 0.17429732
 outer loop
  vertex 0.287259 0 0.0548932
  vertex 0.366268 0.0215169 0.0549333
  vertex 0.287232 0 0.0548531
 endloop
endfacet
facet normal -0.25851247 0.9488947 0.18102519
 outer loop
  vertex 0.366268 0.0215169 0.0549333
  vertex 0.366268 0.0215322 0.0548531
  vertex 0.287232 0 0.0548531
 endloop
endfacet
facet normal -0.2594275 0.9522533 0.16096903
 outer loop
  vertex 0.287232 0 0.0548531
  vertex 0.366268 0.0215322 0.0548531
  vertex 0.287207 0 0.0548128
 endloop
endfacet
facet normal -0.2594878 0.9524775 0.15953866
 outer loop
  vertex 0.366268 0.0215322 0.0548531
  vertex 0.366268 0.0215457 0.0547725
  vertex 0.287207 0 0.0548128
 endloop
endfacet
facet normal -0.25968987 0.95321006 0.15476373
 outer loop
  vertex 0.287207 0 0.0548128
  vertex 0.366268 0.0215457 0.0547725
  vertex 0.287183 0 0.0547725
 endloop
endfacet
facet normal -0.261456 0.95969695 0.103066154
 outer loop
  vertex 0.287087 0 0.0545701
  vertex 0.287103 0 0.0546107
  vertex 0.366268 0.0215674 0.0546107
 endloop
endfacet
facet normal -0.26126727 0.95900416 0.109774545
 outer loop
  vertex 0.287103 0 0.0546107
  vertex 0.28712 0 0.0546512
  vertex 0.366268 0.0215674 0.0546107
 endloop
endfacet
facet normal -0.2610064 0.95806277 0.118285
 outer loop
  vertex 0.366268 0.0215674 0.0546107
  vertex 0.28712 0 0.0546512
  vertex 0.366268 0.0215574 0.0546917
 endloop
endfacet
facet normal -0.26088068 0.9575937 0.12229307
 outer loop
  vertex 0.28712 0 0.0546512
  vertex 0.287139 0 0.0546917
  vertex 0.366268 0.0215574 0.0546917
 endloop
endfacet
facet normal -0.26032516 0.9555546 0.13836977
 outer loop
  vertex 0.366268 0.0215574 0.0546917
  vertex 0.287139 0 0.0546917
  vertex 0.366268 0.0215457 0.0547725
 endloop
endfacet
facet normal -0.2604404 0.95599 0.13510706
 outer loop
  vertex 0.287139 0 0.0546917
  vertex 0.28716 0 0.0547322
  vertex 0.366268 0.0215457 0.0547725
 endloop
endfacet
facet normal -0.25995368 0.9541784 0.1482154
 outer loop
  vertex 0.366268 0.0215457 0.0547725
  vertex 0.28716 0 0.0547322
  vertex 0.287183 0 0.0547725
 endloop
endfacet
facet normal -0.2617756 0.9608942 0.09030922
 outer loop
  vertex 0.287087 0 0.0545701
  vertex 0.366268 0.0215674 0.0546107
  vertex 0.287073 0 0.0545295
 endloop
endfacet
facet normal -0.2616463 0.9603988 0.09578873
 outer loop
  vertex 0.366268 0.0215674 0.0546107
  vertex 0.366268 0.0215755 0.0545295
  vertex 0.287073 0 0.0545295
 endloop
endfacet
facet normal -0.26207188 0.961961 0.07713316
 outer loop
  vertex 0.287073 0 0.0545295
  vertex 0.366268 0.0215755 0.0545295
  vertex 0.287061 0 0.0544888
 endloop
endfacet
facet normal -0.26210114 0.9620711 0.075644776
 outer loop
  vertex 0.366268 0.0215755 0.0545295
  vertex 0.366268 0.0215819 0.0544481
  vertex 0.287061 0 0.0544888
 endloop
endfacet
facet normal -0.26219586 0.9624098 0.07085687
 outer loop
  vertex 0.287061 0 0.0544888
  vertex 0.366268 0.0215819 0.0544481
  vertex 0.28705 0 0.0544481
 endloop
endfacet
facet normal -0.2628408 0.9647805 0.010646513
 outer loop
  vertex 0.366268 0.02159 0.0542035
  vertex 0.28702 -3.61068e-17 0.0542035
  vertex 0.366268 0.0215891 0.0542851
 endloop
endfacet
facet normal -0.26284614 0.9648157 0.0065279542
 outer loop
  vertex 0.28702 -3.61068e-17 0.0542035
  vertex 0.287021 0 0.0542443
  vertex 0.366268 0.0215891 0.0542851
 endloop
endfacet
facet normal -0.26283306 0.96475565 0.012862095
 outer loop
  vertex 0.287021 0 0.0542443
  vertex 0.287023 0 0.0542851
  vertex 0.366268 0.0215891 0.0542851
 endloop
endfacet
facet normal -0.26276782 0.9645162 0.025720153
 outer loop
  vertex 0.287023 0 0.0542851
  vertex 0.287027 0 0.0543259
  vertex 0.366268 0.0215891 0.0542851
 endloop
endfacet
facet normal -0.26271796 0.9643448 0.031912033
 outer loop
  vertex 0.366268 0.0215891 0.0542851
  vertex 0.287027 0 0.0543259
  vertex 0.366268 0.0215864 0.0543667
 endloop
endfacet
facet normal -0.2626595 0.96411765 0.03856432
 outer loop
  vertex 0.287027 0 0.0543259
  vertex 0.287033 0 0.0543667
  vertex 0.366268 0.0215864 0.0543667
 endloop
endfacet
facet normal -0.26248187 0.9634657 0.053265348
 outer loop
  vertex 0.366268 0.0215864 0.0543667
  vertex 0.287033 0 0.0543667
  vertex 0.366268 0.0215819 0.0544481
 endloop
endfacet
facet normal -0.2625019 0.96354514 0.05170747
 outer loop
  vertex 0.287033 0 0.0543667
  vertex 0.287041 0 0.0544074
  vertex 0.366268 0.0215819 0.0544481
 endloop
endfacet
facet normal -0.26241365 0.9632093 0.058025938
 outer loop
  vertex 0.366268 0.0215819 0.0544481
  vertex 0.287041 0 0.0544074
  vertex 0.28705 0 0.0544481
 endloop
endfacet
facet normal 0.15109545 -0.5546049 -0.8182809
 outer loop
  vertex 0.280687 0 0.0557666
  vertex 0.366268 0.0231786 0.0558594
  vertex 0.281182 -3.78906e-17 0.055858
 endloop
endfacet
facet normal 0.16019782 -0.58802015 -0.79282343
 outer loop
  vertex 0.366268 0.0231786 0.0558594
  vertex 0.366268 0.0230462 0.0559576
  vertex 0.281182 -3.78906e-17 0.055858
 endloop
endfacet
facet normal 0.16017836 -0.587948 -0.79288083
 outer loop
  vertex 0.281182 -3.78906e-17 0.055858
  vertex 0.366268 0.0230462 0.0559576
  vertex 0.281675 0 0.0559576
 endloop
endfacet
facet normal 0.16891657 -0.62002236 -0.766185
 outer loop
  vertex 0.366268 0.0230462 0.0559576
  vertex 0.366268 0.0229183 0.0560611
  vertex 0.281675 0 0.0559576
 endloop
endfacet
facet normal 0.16886504 -0.61983144 -0.76635087
 outer loop
  vertex 0.281675 0 0.0559576
  vertex 0.366268 0.0229183 0.0560611
  vertex 0.282137 -3.798e-17 0.0560594
 endloop
endfacet
facet normal 0.17730564 -0.65081817 -0.73824
 outer loop
  vertex 0.366268 0.0229183 0.0560611
  vertex 0.366268 0.022795 0.0561698
  vertex 0.282137 -3.798e-17 0.0560594
 endloop
endfacet
facet normal 0.17723468 -0.6505551 -0.738489
 outer loop
  vertex 0.282137 -3.798e-17 0.0560594
  vertex 0.366268 0.022795 0.0561698
  vertex 0.282597 0 0.0561698
 endloop
endfacet
facet normal 0.18526801 -0.68004215 -0.7093789
 outer loop
  vertex 0.366268 0.022795 0.0561698
  vertex 0.366268 0.0226765 0.0562834
  vertex 0.282597 0 0.0561698
 endloop
endfacet
facet normal 0.18516867 -0.6796737 -0.7097579
 outer loop
  vertex 0.282597 0 0.0561698
  vertex 0.366268 0.0226765 0.0562834
  vertex 0.283024 -3.80785e-17 0.0562812
 endloop
endfacet
facet normal 0.1930536 -0.7086218 -0.67866445
 outer loop
  vertex 0.366268 0.0226765 0.0562834
  vertex 0.366268 0.0225632 0.0564017
  vertex 0.283024 -3.80785e-17 0.0562812
 endloop
endfacet
facet normal 0.1929707 -0.70831406 -0.6790092
 outer loop
  vertex 0.283024 -3.80785e-17 0.0562812
  vertex 0.366268 0.0225632 0.0564017
  vertex 0.283448 0 0.0564017
 endloop
endfacet
facet normal 0.20041476 -0.7356381 -0.6470476
 outer loop
  vertex 0.366268 0.0225632 0.0564017
  vertex 0.366268 0.0224551 0.0565246
  vertex 0.283448 0 0.0564017
 endloop
endfacet
facet normal 0.20037141 -0.73547715 -0.6472439
 outer loop
  vertex 0.283448 0 0.0564017
  vertex 0.366268 0.0224551 0.0565246
  vertex 0.283845 0 0.0565246
 endloop
endfacet
facet normal 0.20737837 -0.7611967 -0.6144703
 outer loop
  vertex 0.366268 0.0224551 0.0565246
  vertex 0.366268 0.0223525 0.0566517
  vertex 0.283845 0 0.0565246
 endloop
endfacet
facet normal 0.20750505 -0.7616673 -0.6138441
 outer loop
  vertex 0.283845 0 0.0565246
  vertex 0.366268 0.0223525 0.0566517
  vertex 0.284221 0 0.0566517
 endloop
endfacet
facet normal 0.21411848 -0.78594255 -0.580041
 outer loop
  vertex 0.366268 0.0223525 0.0566517
  vertex 0.366268 0.0222556 0.056783
  vertex 0.284221 0 0.0566517
 endloop
endfacet
facet normal 0.21405041 -0.78568953 -0.5804088
 outer loop
  vertex 0.284221 0 0.0566517
  vertex 0.366268 0.0222556 0.056783
  vertex 0.284577 0 0.056783
 endloop
endfacet
facet normal 0.2202811 -0.8085598 -0.54562557
 outer loop
  vertex 0.366268 0.0222556 0.056783
  vertex 0.366268 0.0221645 0.056918
  vertex 0.284577 0 0.056783
 endloop
endfacet
facet normal 0.22035779 -0.80884516 -0.54517144
 outer loop
  vertex 0.284577 0 0.056783
  vertex 0.366268 0.0221645 0.056918
  vertex 0.284911 0 0.056918
 endloop
endfacet
facet normal 0.22619368 -0.8302664 -0.5094056
 outer loop
  vertex 0.366268 0.0221645 0.056918
  vertex 0.366268 0.0220794 0.0570567
  vertex 0.284911 0 0.056918
 endloop
endfacet
facet normal 0.22626032 -0.8305147 -0.508971
 outer loop
  vertex 0.284911 0 0.056918
  vertex 0.366268 0.0220794 0.0570567
  vertex 0.285223 0 0.0570567
 endloop
endfacet
facet normal 0.23166282 -0.85034525 -0.47248837
 outer loop
  vertex 0.366268 0.0220794 0.0570567
  vertex 0.366268 0.0220005 0.0571987
  vertex 0.285223 0 0.0570567
 endloop
endfacet
facet normal 0.23159443 -0.8500901 -0.47298086
 outer loop
  vertex 0.285223 0 0.0570567
  vertex 0.366268 0.0220005 0.0571987
  vertex 0.285513 -3.8102e-17 0.0571987
 endloop
endfacet
facet normal 0.005565275 -0.020427732 -0.9997758
 outer loop
  vertex 0.272598 -3.6716e-17 0.055118
  vertex 0.366268 0.0255192 0.055118
  vertex 0.273209 -3.75635e-17 0.0551214
 endloop
endfacet
facet normal 0.0055472422 -0.020361973 -0.9997773
 outer loop
  vertex 0.366268 0.0255192 0.055118
  vertex 0.366268 0.0253522 0.0551214
  vertex 0.273209 -3.75635e-17 0.0551214
 endloop
endfacet
facet normal 0.0166332 -0.06105462 -0.99799573
 outer loop
  vertex 0.273209 -3.75635e-17 0.0551214
  vertex 0.366268 0.0253522 0.0551214
  vertex 0.273821 -3.7568e-17 0.0551316
 endloop
endfacet
facet normal 0.016635703 -0.061063744 -0.99799526
 outer loop
  vertex 0.366268 0.0253522 0.0551214
  vertex 0.366268 0.0251855 0.0551316
  vertex 0.273821 -3.7568e-17 0.0551316
 endloop
endfacet
facet normal 0.027672006 -0.10157409 -0.99444306
 outer loop
  vertex 0.273821 -3.7568e-17 0.0551316
  vertex 0.366268 0.0251855 0.0551316
  vertex 0.274432 0 0.0551486
 endloop
endfacet
facet normal 0.027748065 -0.1018514 -0.99441254
 outer loop
  vertex 0.366268 0.0251855 0.0551316
  vertex 0.366268 0.0250195 0.0551486
  vertex 0.274432 0 0.0551486
 endloop
endfacet
facet normal 0.03877257 -0.14231771 -0.98906136
 outer loop
  vertex 0.274432 0 0.0551486
  vertex 0.366268 0.0250195 0.0551486
  vertex 0.275034 -3.7586e-17 0.0551722
 endloop
endfacet
facet normal 0.03881476 -0.14247154 -0.9890375
 outer loop
  vertex 0.366268 0.0250195 0.0551486
  vertex 0.366268 0.0248543 0.0551724
  vertex 0.275034 -3.7586e-17 0.0551722
 endloop
endfacet
facet normal 0.04966906 -0.18231505 -0.9819848
 outer loop
  vertex 0.275034 -3.7586e-17 0.0551722
  vertex 0.366268 0.0248543 0.0551724
  vertex 0.275635 -3.75995e-17 0.0552026
 endloop
endfacet
facet normal 0.04975524 -0.18262923 -0.9819221
 outer loop
  vertex 0.366268 0.0248543 0.0551724
  vertex 0.366268 0.0246903 0.0552029
  vertex 0.275635 -3.75995e-17 0.0552026
 endloop
endfacet
facet normal 0.06046296 -0.22193518 -0.97318506
 outer loop
  vertex 0.275635 -3.75995e-17 0.0552026
  vertex 0.366268 0.0246903 0.0552029
  vertex 0.276237 0 0.05524
 endloop
endfacet
facet normal 0.06052797 -0.22217214 -0.9731269
 outer loop
  vertex 0.366268 0.0246903 0.0552029
  vertex 0.366268 0.0245278 0.05524
  vertex 0.276237 0 0.05524
 endloop
endfacet
facet normal 0.071433604 -0.26220205 -0.96236545
 outer loop
  vertex 0.276237 0 0.05524
  vertex 0.366268 0.0245278 0.05524
  vertex 0.276819 -3.76353e-17 0.0552832
 endloop
endfacet
facet normal 0.07145594 -0.2622834 -0.96234167
 outer loop
  vertex 0.366268 0.0245278 0.05524
  vertex 0.366268 0.0243671 0.0552838
  vertex 0.276819 -3.76353e-17 0.0552832
 endloop
endfacet
facet normal 0.08180782 -0.3002844 -0.9503351
 outer loop
  vertex 0.276819 -3.76353e-17 0.0552832
  vertex 0.366268 0.0243671 0.0552838
  vertex 0.277401 -3.76576e-17 0.0553333
 endloop
endfacet
facet normal 0.081891865 -0.30059066 -0.950231
 outer loop
  vertex 0.366268 0.0243671 0.0552838
  vertex 0.366268 0.0242084 0.055334
  vertex 0.277401 -3.76576e-17 0.0553333
 endloop
endfacet
facet normal 0.092337154 -0.33893487 -0.9362676
 outer loop
  vertex 0.277401 -3.76576e-17 0.0553333
  vertex 0.366268 0.0242084 0.055334
  vertex 0.277983 0 0.0553907
 endloop
endfacet
facet normal 0.09250607 -0.33955032 -0.9360279
 outer loop
  vertex 0.366268 0.0242084 0.055334
  vertex 0.366268 0.0240521 0.0553907
  vertex 0.277983 0 0.0553907
 endloop
endfacet
facet normal 0.10268595 -0.3769163 -0.92053765
 outer loop
  vertex 0.277983 0 0.0553907
  vertex 0.366268 0.0240521 0.0553907
  vertex 0.278537 -3.77105e-17 0.0554525
 endloop
endfacet
facet normal 0.1027773 -0.37724918 -0.92039114
 outer loop
  vertex 0.366268 0.0240521 0.0553907
  vertex 0.366268 0.0238984 0.0554537
  vertex 0.278537 -3.77105e-17 0.0554525
 endloop
endfacet
facet normal 0.112855405 -0.41424677 -0.9031408
 outer loop
  vertex 0.278537 -3.77105e-17 0.0554525
  vertex 0.366268 0.0238984 0.0554537
  vertex 0.27909 -3.77412e-17 0.0555216
 endloop
endfacet
facet normal 0.11303462 -0.4148996 -0.9028187
 outer loop
  vertex 0.366268 0.0238984 0.0554537
  vertex 0.366268 0.0237476 0.055523
  vertex 0.27909 -3.77412e-17 0.0555216
 endloop
endfacet
facet normal 0.12284267 -0.4509063 -0.8840776
 outer loop
  vertex 0.27909 -3.77412e-17 0.0555216
  vertex 0.366268 0.0237476 0.055523
  vertex 0.279642 0 0.0555983
 endloop
endfacet
facet normal 0.12280113 -0.45075503 -0.88416046
 outer loop
  vertex 0.366268 0.0237476 0.055523
  vertex 0.366268 0.0235999 0.0555983
  vertex 0.279642 0 0.0555983
 endloop
endfacet
facet normal 0.13238303 -0.48592642 -0.8639156
 outer loop
  vertex 0.279642 0 0.0555983
  vertex 0.366268 0.0235999 0.0555983
  vertex 0.280166 -3.78109e-17 0.0556786
 endloop
endfacet
facet normal 0.13261902 -0.48678568 -0.8633955
 outer loop
  vertex 0.366268 0.0235999 0.0555983
  vertex 0.366268 0.0234557 0.0556796
  vertex 0.280166 -3.78109e-17 0.0556786
 endloop
endfacet
facet normal 0.14210147 -0.5215951 -0.8412763
 outer loop
  vertex 0.280166 -3.78109e-17 0.0556786
  vertex 0.366268 0.0234557 0.0556796
  vertex 0.280687 0 0.0557666
 endloop
endfacet
facet normal 0.14197358 -0.52112967 -0.8415862
 outer loop
  vertex 0.366268 0.0234557 0.0556796
  vertex 0.366268 0.0233152 0.0557666
  vertex 0.280687 0 0.0557666
 endloop
endfacet
facet normal 0.15133029 -0.55547446 -0.8176474
 outer loop
  vertex 0.280687 0 0.0557666
  vertex 0.366268 0.0233152 0.0557666
  vertex 0.366268 0.0231786 0.0558594
 endloop
endfacet
facet normal 0.23421882 -0.8597232 -0.45389146
 outer loop
  vertex 0.285513 -3.8102e-17 0.0571987
  vertex 0.366268 0.0220005 0.0571987
  vertex 0.366268 -6.75955e-17 0.0988702
 endloop
endfacet
facet normal -0.2342193 0.8597235 0.45389068
 outer loop
  vertex 0.366268 0.0211598 0.0559328
  vertex 0.288599 -3.72588e-17 0.0559328
  vertex 0.366268 -6.22221e-17 0.096012
 endloop
endfacet
facet normal -0.26285568 0.96483517 0
 outer loop
  vertex 0.366268 0.02159 0.0542035
  vertex 0.366268 0.02159 0.050038
  vertex 0.28702 -3.61068e-17 0.0542035
 endloop
endfacet
facet normal -0.26285568 0.96483517 6.427107e-16
 outer loop
  vertex 0.366268 0.02159 0.050038
  vertex 0.28702 -3.33073e-17 0.0500009
  vertex 0.28702 -3.61068e-17 0.0542035
 endloop
endfacet
facet normal 0.19320437 0 -0.98115855
 outer loop
  vertex 0.211157 0.044958 0.055118
  vertex 0.211157 -3.6716e-17 0.055118
  vertex 0.185359 0.050038 0.050038
 endloop
endfacet
facet normal 0.19320412 -1.2676549e-07 -0.98115855
 outer loop
  vertex 0.211157 -3.6716e-17 0.055118
  vertex 0.185166 -3.33067e-17 0.05
  vertex 0.185359 0.050038 0.050038
 endloop
endfacet
facet normal 0.1931725 0 -0.9811648
 outer loop
  vertex 0.185359 0.050038 0.050038
  vertex 0.185166 -3.33067e-17 0.05
  vertex 0.185166 0.05 0.05
 endloop
endfacet
facet normal 0 0 -1
 outer loop
  vertex 0.366268 0.044958 0.055118
  vertex 0.366268 0.0255192 0.055118
  vertex 0.211157 0.044958 0.055118
 endloop
endfacet
facet normal 0 0 -1
 outer loop
  vertex 0.366268 0.0255192 0.055118
  vertex 0.272598 -3.6716e-17 0.055118
  vertex 0.211157 0.044958 0.055118
 endloop
endfacet
facet normal 0 0 -1
 outer loop
  vertex 0.211157 0.044958 0.055118
  vertex 0.272598 -3.6716e-17 0.055118
  vertex 0.211157 -3.6716e-17 0.055118
 endloop
endfacet
facet normal 0.005565282 -0.9997758 -0.020427758
 outer loop
  vertex 0.366268 0.055118 0.0255192
  vertex 0.272598 0.055118 0
  vertex 0.273209 0.0551214 0
 endloop
endfacet
facet normal 0.0055472525 -0.9997773 -0.02036201
 outer loop
  vertex 0.366268 0.055118 0.0255192
  vertex 0.273209 0.0551214 0
  vertex 0.366268 0.0551214 0.0253522
 endloop
endfacet
facet normal 0.016633265 -0.99799585 -0.06105486
 outer loop
  vertex 0.273209 0.0551214 0
  vertex 0.273821 0.0551316 0
  vertex 0.366268 0.0551214 0.0253522
 endloop
endfacet
facet normal 0.016635662 -0.99799526 -0.0610636
 outer loop
  vertex 0.366268 0.0551214 0.0253522
  vertex 0.273821 0.0551316 0
  vertex 0.366268 0.0551316 0.0251855
 endloop
endfacet
facet normal 0.027671924 -0.99444306 -0.101573795
 outer loop
  vertex 0.273821 0.0551316 0
  vertex 0.274432 0.0551486 -1.97867e-17
  vertex 0.366268 0.0551316 0.0251855
 endloop
endfacet
facet normal 0.027748233 -0.9944125 -0.10185202
 outer loop
  vertex 0.366268 0.0551316 0.0251855
  vertex 0.274432 0.0551486 -1.97867e-17
  vertex 0.366268 0.0551486 0.0250195
 endloop
endfacet
facet normal 0.03877291 -0.9890612 -0.14231896
 outer loop
  vertex 0.274432 0.0551486 -1.97867e-17
  vertex 0.275034 0.0551722 0
  vertex 0.366268 0.0551486 0.0250195
 endloop
endfacet
facet normal 0.038814805 -0.9890375 -0.14247172
 outer loop
  vertex 0.366268 0.0551486 0.0250195
  vertex 0.275034 0.0551722 0
  vertex 0.366268 0.0551724 0.0248543
 endloop
endfacet
facet normal 0.04966898 -0.9819849 -0.18231474
 outer loop
  vertex 0.275034 0.0551722 0
  vertex 0.275635 0.0552026 0
  vertex 0.366268 0.0551724 0.0248543
 endloop
endfacet
facet normal 0.049755022 -0.9819222 -0.18262844
 outer loop
  vertex 0.366268 0.0551724 0.0248543
  vertex 0.275635 0.0552026 0
  vertex 0.366268 0.0552029 0.0246903
 endloop
endfacet
facet normal 0.060462736 -0.9731851 -0.22193435
 outer loop
  vertex 0.275635 0.0552026 0
  vertex 0.276237 0.05524 -1.87567e-17
  vertex 0.366268 0.0552029 0.0246903
 endloop
endfacet
facet normal 0.060527854 -0.97312695 -0.22217171
 outer loop
  vertex 0.366268 0.0552029 0.0246903
  vertex 0.276237 0.05524 -1.87567e-17
  vertex 0.366268 0.05524 0.0245278
 endloop
endfacet
facet normal 0.07143329 -0.9623658 -0.2622009
 outer loop
  vertex 0.276237 0.05524 -1.87567e-17
  vertex 0.276819 0.0552832 0
  vertex 0.366268 0.05524 0.0245278
 endloop
endfacet
facet normal 0.07145563 -0.96234196 -0.26228228
 outer loop
  vertex 0.366268 0.05524 0.0245278
  vertex 0.276819 0.0552832 0
  vertex 0.366268 0.0552838 0.0243671
 endloop
endfacet
facet normal 0.08180815 -0.95033467 -0.30028558
 outer loop
  vertex 0.276819 0.0552832 0
  vertex 0.277401 0.0553333 0
  vertex 0.366268 0.0552838 0.0243671
 endloop
endfacet
facet normal 0.08189243 -0.9502303 -0.30059278
 outer loop
  vertex 0.366268 0.0552838 0.0243671
  vertex 0.277401 0.0553333 0
  vertex 0.366268 0.055334 0.0242084
 endloop
endfacet
facet normal 0.09233712 -0.9362677 -0.33893475
 outer loop
  vertex 0.277401 0.0553333 0
  vertex 0.277983 0.0553907 -2.88398e-17
  vertex 0.366268 0.055334 0.0242084
 endloop
endfacet
facet normal 0.09250618 -0.9360277 -0.3395507
 outer loop
  vertex 0.366268 0.055334 0.0242084
  vertex 0.277983 0.0553907 -2.88398e-17
  vertex 0.366268 0.0553907 0.0240521
 endloop
endfacet
facet normal 0.102686904 -0.92053616 -0.3769198
 outer loop
  vertex 0.277983 0.0553907 -2.88398e-17
  vertex 0.278537 0.0554525 0
  vertex 0.366268 0.0553907 0.0240521
 endloop
endfacet
facet normal 0.10277789 -0.9203902 -0.37725136
 outer loop
  vertex 0.366268 0.0553907 0.0240521
  vertex 0.278537 0.0554525 0
  vertex 0.366268 0.0554537 0.0238984
 endloop
endfacet
facet normal 0.11285597 -0.90313977 -0.4142488
 outer loop
  vertex 0.278537 0.0554525 0
  vertex 0.27909 0.0555216 0
  vertex 0.366268 0.0554537 0.0238984
 endloop
endfacet
facet normal 0.113035366 -0.90281725 -0.41490233
 outer loop
  vertex 0.366268 0.0554537 0.0238984
  vertex 0.27909 0.0555216 0
  vertex 0.366268 0.055523 0.0237476
 endloop
endfacet
facet normal 0.12284234 -0.8840782 -0.45090508
 outer loop
  vertex 0.27909 0.0555216 0
  vertex 0.279642 0.0555983 -1.66967e-17
  vertex 0.366268 0.055523 0.0237476
 endloop
endfacet
facet normal 0.122800745 -0.8841613 -0.45075363
 outer loop
  vertex 0.366268 0.055523 0.0237476
  vertex 0.279642 0.0555983 -1.66967e-17
  vertex 0.366268 0.0555983 0.0235999
 endloop
endfacet
facet normal 0.13238396 -0.8639136 -0.48592985
 outer loop
  vertex 0.279642 0.0555983 -1.66967e-17
  vertex 0.280166 0.0556786 0
  vertex 0.366268 0.0555983 0.0235999
 endloop
endfacet
facet normal 0.13261916 -0.8633953 -0.48678625
 outer loop
  vertex 0.366268 0.0555983 0.0235999
  vertex 0.280166 0.0556786 0
  vertex 0.366268 0.0556796 0.0234557
 endloop
endfacet
facet normal 0.14210008 -0.8412796 -0.52159
 outer loop
  vertex 0.280166 0.0556786 0
  vertex 0.280687 0.0557666 -1.9082e-17
  vertex 0.366268 0.0556796 0.0234557
 endloop
endfacet
facet normal 0.14197358 -0.8415862 -0.52112967
 outer loop
  vertex 0.366268 0.0556796 0.0234557
  vertex 0.280687 0.0557666 -1.9082e-17
  vertex 0.366268 0.0557666 0.0233152
 endloop
endfacet
facet normal 0.15109566 -0.81827515 -0.55461323
 outer loop
  vertex 0.280687 0.0557666 -1.9082e-17
  vertex 0.281182 0.055858 0
  vertex 0.366268 0.0557666 0.0233152
 endloop
endfacet
facet normal 0.15133153 -0.8176491 -0.5554715
 outer loop
  vertex 0.366268 0.0557666 0.0233152
  vertex 0.281182 0.055858 0
  vertex 0.366268 0.0558594 0.0231786
 endloop
endfacet
facet normal 0.16017744 -0.79288304 -0.58794534
 outer loop
  vertex 0.281182 0.055858 0
  vertex 0.281675 0.0559576 -2.42861e-17
  vertex 0.366268 0.0558594 0.0231786
 endloop
endfacet
facet normal 0.16019867 -0.79282147 -0.5880226
 outer loop
  vertex 0.366268 0.0558594 0.0231786
  vertex 0.281675 0.0559576 -2.42861e-17
  vertex 0.366268 0.0559576 0.0230462
 endloop
endfacet
facet normal 0.16886534 -0.7663484 -0.6198343
 outer loop
  vertex 0.281675 0.0559576 -2.42861e-17
  vertex 0.282137 0.0560594 0
  vertex 0.366268 0.0559576 0.0230462
 endloop
endfacet
facet normal 0.1689167 -0.766186 -0.62002105
 outer loop
  vertex 0.366268 0.0559576 0.0230462
  vertex 0.282137 0.0560594 0
  vertex 0.366268 0.0560611 0.0229183
 endloop
endfacet
facet normal 0.17723519 -0.7384849 -0.65055954
 outer loop
  vertex 0.282137 0.0560594 0
  vertex 0.282597 0.0561698 -1.77809e-17
  vertex 0.366268 0.0560611 0.0229183
 endloop
endfacet
facet normal 0.17730556 -0.73824257 -0.65081537
 outer loop
  vertex 0.366268 0.0560611 0.0229183
  vertex 0.282597 0.0561698 -1.77809e-17
  vertex 0.366268 0.0561698 0.022795
 endloop
endfacet
facet normal 0.18516743 -0.70975894 -0.67967296
 outer loop
  vertex 0.282597 0.0561698 -1.77809e-17
  vertex 0.283024 0.0562812 0
  vertex 0.366268 0.0561698 0.022795
 endloop
endfacet
facet normal 0.18526943 -0.7093771 -0.6800436
 outer loop
  vertex 0.366268 0.0561698 0.022795
  vertex 0.283024 0.0562812 0
  vertex 0.366268 0.0562834 0.0226765
 endloop
endfacet
facet normal 0.19297057 -0.6790063 -0.7083169
 outer loop
  vertex 0.283024 0.0562812 0
  vertex 0.283448 0.0564017 -2.12504e-17
  vertex 0.366268 0.0562834 0.0226765
 endloop
endfacet
facet normal 0.19305456 -0.678664 -0.708622
 outer loop
  vertex 0.366268 0.0562834 0.0226765
  vertex 0.283448 0.0564017 -2.12504e-17
  vertex 0.366268 0.0564017 0.0225632
 endloop
endfacet
facet normal 0.20037131 -0.64724225 -0.73547864
 outer loop
  vertex 0.283448 0.0564017 -2.12504e-17
  vertex 0.283845 0.0565246 -3.20924e-17
  vertex 0.366268 0.0564017 0.0225632
 endloop
endfacet
facet normal 0.20041525 -0.6470474 -0.7356381
 outer loop
  vertex 0.366268 0.0564017 0.0225632
  vertex 0.283845 0.0565246 -3.20924e-17
  vertex 0.366268 0.0565246 0.0224551
 endloop
endfacet
facet normal 0.20750618 -0.6138456 -0.7616658
 outer loop
  vertex 0.283845 0.0565246 -3.20924e-17
  vertex 0.284221 0.0566517 -1.56125e-17
  vertex 0.366268 0.0565246 0.0224551
 endloop
endfacet
facet normal 0.20737618 -0.6144741 -0.76119435
 outer loop
  vertex 0.366268 0.0565246 0.0224551
  vertex 0.284221 0.0566517 -1.56125e-17
  vertex 0.366268 0.0566517 0.0223525
 endloop
endfacet
facet normal 0.21405035 -0.5804047 -0.7856926
 outer loop
  vertex 0.284221 0.0566517 -1.56125e-17
  vertex 0.284577 0.056783 -2.42861e-17
  vertex 0.366268 0.0566517 0.0223525
 endloop
endfacet
facet normal 0.21411927 -0.58004105 -0.7859423
 outer loop
  vertex 0.366268 0.0566517 0.0223525
  vertex 0.284577 0.056783 -2.42861e-17
  vertex 0.366268 0.056783 0.0222556
 endloop
endfacet
facet normal 0.22035873 -0.5451718 -0.8088447
 outer loop
  vertex 0.284577 0.056783 -2.42861e-17
  vertex 0.284911 0.056918 -2.0383e-17
  vertex 0.366268 0.056783 0.0222556
 endloop
endfacet
facet normal 0.22028053 -0.5456231 -0.8085616
 outer loop
  vertex 0.366268 0.056783 0.0222556
  vertex 0.284911 0.056918 -2.0383e-17
  vertex 0.366268 0.056918 0.0221645
 endloop
endfacet
facet normal 0.22626181 -0.5089675 -0.8305165
 outer loop
  vertex 0.284911 0.056918 -2.0383e-17
  vertex 0.285223 0.0570567 -2.68882e-17
  vertex 0.366268 0.056918 0.0221645
 endloop
endfacet
facet normal 0.22619197 -0.50941056 -0.83026385
 outer loop
  vertex 0.366268 0.056918 0.0221645
  vertex 0.285223 0.0570567 -2.68882e-17
  vertex 0.366268 0.0570567 0.0220794
 endloop
endfacet
facet normal 0.2315934 -0.4729808 -0.85009044
 outer loop
  vertex 0.285223 0.0570567 -2.68882e-17
  vertex 0.285513 0.0571987 0
  vertex 0.366268 0.0570567 0.0220794
 endloop
endfacet
facet normal 0.2316634 -0.4724916 -0.85034335
 outer loop
  vertex 0.366268 0.0570567 0.0220794
  vertex 0.285513 0.0571987 0
  vertex 0.366268 0.0571987 0.0220005
 endloop
endfacet
facet normal -0.2626531 0.038563386 0.96411943
 outer loop
  vertex 0.287033 0.0543667 9.1073e-18
  vertex 0.287027 0.0543259 1.51788e-17
  vertex 0.366268 0.0542851 0.0215891
 endloop
endfacet
facet normal -0.26276785 0.025720155 0.9645162
 outer loop
  vertex 0.287027 0.0543259 1.51788e-17
  vertex 0.287023 0.0542851 3.1225e-17
  vertex 0.366268 0.0542851 0.0215891
 endloop
endfacet
facet normal -0.26283306 0.012862094 0.9647556
 outer loop
  vertex 0.287023 0.0542851 3.1225e-17
  vertex 0.287021 0.0542443 2.73219e-17
  vertex 0.366268 0.0542851 0.0215891
 endloop
endfacet
facet normal -0.26284617 0.0065279542 0.9648157
 outer loop
  vertex 0.287021 0.0542443 2.73219e-17
  vertex 0.28702 0.0542035 0
  vertex 0.366268 0.0542851 0.0215891
 endloop
endfacet
facet normal -0.2628408 0.010646513 0.9647805
 outer loop
  vertex 0.366268 0.0542851 0.0215891
  vertex 0.28702 0.0542035 0
  vertex 0.366268 0.0542035 0.02159
 endloop
endfacet
facet normal -0.26207018 0.07714578 0.9619604
 outer loop
  vertex 0.287073 0.0545295 2.60209e-17
  vertex 0.287061 0.0544888 9.1073e-18
  vertex 0.366268 0.0544481 0.0215819
 endloop
endfacet
facet normal -0.26219603 0.07084693 0.96241045
 outer loop
  vertex 0.287061 0.0544888 9.1073e-18
  vertex 0.28705 0.0544481 2.34188e-17
  vertex 0.366268 0.0544481 0.0215819
 endloop
endfacet
facet normal -0.26272106 0.03191879 0.9643437
 outer loop
  vertex 0.366268 0.0542851 0.0215891
  vertex 0.366268 0.0543667 0.0215864
  vertex 0.287033 0.0543667 9.1073e-18
 endloop
endfacet
facet normal -0.26248187 0.05326377 0.96346575
 outer loop
  vertex 0.366268 0.0543667 0.0215864
  vertex 0.366268 0.0544481 0.0215819
  vertex 0.287033 0.0543667 9.1073e-18
 endloop
endfacet
facet normal -0.26250198 0.051699974 0.96354544
 outer loop
  vertex 0.287033 0.0543667 9.1073e-18
  vertex 0.366268 0.0544481 0.0215819
  vertex 0.287041 0.0544074 1.34441e-17
 endloop
endfacet
facet normal -0.26241365 0.058025934 0.9632092
 outer loop
  vertex 0.366268 0.0544481 0.0215819
  vertex 0.28705 0.0544481 2.34188e-17
  vertex 0.287041 0.0544074 1.34441e-17
 endloop
endfacet
facet normal -0.26087686 0.122291274 0.95759493
 outer loop
  vertex 0.287139 0.0546917 2.42861e-17
  vertex 0.28712 0.0546512 9.97466e-18
  vertex 0.366268 0.0546107 0.0215674
 endloop
endfacet
facet normal -0.26126727 0.109774545 0.95900416
 outer loop
  vertex 0.28712 0.0546512 9.97466e-18
  vertex 0.287103 0.0546107 1.77809e-17
  vertex 0.366268 0.0546107 0.0215674
 endloop
endfacet
facet normal -0.26210183 0.07564476 0.962071
 outer loop
  vertex 0.366268 0.0544481 0.0215819
  vertex 0.366268 0.0545295 0.0215755
  vertex 0.287073 0.0545295 2.60209e-17
 endloop
endfacet
facet normal -0.2616463 0.095788725 0.96039873
 outer loop
  vertex 0.366268 0.0545295 0.0215755
  vertex 0.366268 0.0546107 0.0215674
  vertex 0.287073 0.0545295 2.60209e-17
 endloop
endfacet
facet normal -0.2617756 0.09030922 0.9608942
 outer loop
  vertex 0.287073 0.0545295 2.60209e-17
  vertex 0.366268 0.0546107 0.0215674
  vertex 0.287087 0.0545701 2.29851e-17
 endloop
endfacet
facet normal -0.261456 0.103066154 0.95969695
 outer loop
  vertex 0.366268 0.0546107 0.0215674
  vertex 0.287103 0.0546107 1.77809e-17
  vertex 0.287087 0.0545701 2.29851e-17
 endloop
endfacet
facet normal -0.25942644 0.16096047 0.952255
 outer loop
  vertex 0.287232 0.0548531 2.60209e-17
  vertex 0.287207 0.0548128 9.97466e-18
  vertex 0.366268 0.0547725 0.0215457
 endloop
endfacet
facet normal -0.25968894 0.15478595 0.95320666
 outer loop
  vertex 0.287207 0.0548128 9.97466e-18
  vertex 0.287183 0.0547725 2.60209e-17
  vertex 0.366268 0.0547725 0.0215457
 endloop
endfacet
facet normal -0.26100826 0.118287146 0.958062
 outer loop
  vertex 0.366268 0.0546107 0.0215674
  vertex 0.366268 0.0546917 0.0215574
  vertex 0.287139 0.0546917 2.42861e-17
 endloop
endfacet
facet normal -0.2603257 0.13835526 0.9555566
 outer loop
  vertex 0.366268 0.0546917 0.0215574
  vertex 0.366268 0.0547725 0.0215457
  vertex 0.287139 0.0546917 2.42861e-17
 endloop
endfacet
facet normal -0.2604411 0.13508767 0.9559926
 outer loop
  vertex 0.287139 0.0546917 2.42861e-17
  vertex 0.366268 0.0547725 0.0215457
  vertex 0.28716 0.0547322 2.55872e-17
 endloop
endfacet
facet normal -0.25995368 0.1482154 0.9541784
 outer loop
  vertex 0.366268 0.0547725 0.0215457
  vertex 0.287183 0.0547725 2.60209e-17
  vertex 0.28716 0.0547322 2.55872e-17
 endloop
endfacet
facet normal -0.2571953 0.2063326 0.9440749
 outer loop
  vertex 0.287351 0.0550132 1.60462e-17
  vertex 0.287319 0.0549733 2.38524e-17
  vertex 0.366268 0.0549333 0.0215169
 endloop
endfacet
facet normal -0.25756717 0.19956778 0.94542676
 outer loop
  vertex 0.287319 0.0549733 2.38524e-17
  vertex 0.287288 0.0549333 2.51535e-17
  vertex 0.366268 0.0549333 0.0215169
 endloop
endfacet
facet normal -0.25948852 0.15953864 0.9524774
 outer loop
  vertex 0.366268 0.0547725 0.0215457
  vertex 0.366268 0.0548531 0.0215322
  vertex 0.287232 0.0548531 2.60209e-17
 endloop
endfacet
facet normal -0.25851247 0.18102519 0.9488947
 outer loop
  vertex 0.366268 0.0548531 0.0215322
  vertex 0.366268 0.0549333 0.0215169
  vertex 0.287232 0.0548531 2.60209e-17
 endloop
endfacet
facet normal -0.25882515 0.17429732 0.9500684
 outer loop
  vertex 0.287232 0.0548531 2.60209e-17
  vertex 0.366268 0.0549333 0.0215169
  vertex 0.287259 0.0548932 3.77302e-17
 endloop
endfacet
facet normal -0.25823095 0.18674004 0.94786334
 outer loop
  vertex 0.366268 0.0549333 0.0215169
  vertex 0.287288 0.0549333 2.51535e-17
  vertex 0.287259 0.0548932 3.77302e-17
 endloop
endfacet
facet normal -0.25441438 0.25127107 0.9338823
 outer loop
  vertex 0.287496 0.0551719 2.55872e-17
  vertex 0.287457 0.0551324 3.1225e-17
  vertex 0.366268 0.0550927 0.0214809
 endloop
endfacet
facet normal -0.2553111 0.23784634 0.93714744
 outer loop
  vertex 0.287457 0.0551324 3.1225e-17
  vertex 0.28742 0.0550927 1.73472e-17
  vertex 0.366268 0.0550927 0.0214809
 endloop
endfacet
facet normal -0.25742406 0.20223598 0.94489866
 outer loop
  vertex 0.366268 0.0549333 0.0215169
  vertex 0.366268 0.0550132 0.0214998
  vertex 0.287351 0.0550132 1.60462e-17
 endloop
endfacet
facet normal -0.25620207 0.22356905 0.94041336
 outer loop
  vertex 0.366268 0.0550132 0.0214998
  vertex 0.366268 0.0550927 0.0214809
  vertex 0.287351 0.0550132 1.60462e-17
 endloop
endfacet
facet normal -0.25647414 0.21893014 0.94143015
 outer loop
  vertex 0.287351 0.0550132 1.60462e-17
  vertex 0.366268 0.0550927 0.0214809
  vertex 0.287385 0.055053 6.07153e-18
 endloop
endfacet
facet normal -0.2560621 0.2258594 0.9399041
 outer loop
  vertex 0.366268 0.0550927 0.0214809
  vertex 0.28742 0.0550927 1.73472e-17
  vertex 0.287385 0.055053 6.07153e-18
 endloop
endfacet
facet normal -0.25495058 0.24339673 0.93581957
 outer loop
  vertex 0.366268 0.0550927 0.0214809
  vertex 0.366268 0.0551719 0.0214603
  vertex 0.287496 0.0551719 2.55872e-17
 endloop
endfacet
facet normal -0.25355116 0.26370668 0.9306829
 outer loop
  vertex 0.366268 0.0551719 0.0214603
  vertex 0.366268 0.0552506 0.021438
  vertex 0.287496 0.0551719 2.55872e-17
 endloop
endfacet
facet normal -0.25352255 0.2641098 0.9305763
 outer loop
  vertex 0.287496 0.0551719 2.55872e-17
  vertex 0.366268 0.0552506 0.021438
  vertex 0.287578 0.0552506 2.68882e-17
 endloop
endfacet
facet normal -0.25182435 0.28666136 0.9243429
 outer loop
  vertex 0.366268 0.0552506 0.021438
  vertex 0.287667 0.0553288 1.38778e-17
  vertex 0.287578 0.0552506 2.68882e-17
 endloop
endfacet
facet normal -0.25195488 0.2850178 0.9248154
 outer loop
  vertex 0.366268 0.0552506 0.021438
  vertex 0.366268 0.0553288 0.0214139
  vertex 0.287667 0.0553288 1.38778e-17
 endloop
endfacet
facet normal -0.2502036 0.30653328 0.9183874
 outer loop
  vertex 0.366268 0.0553288 0.0214139
  vertex 0.366268 0.0554064 0.021388
  vertex 0.287667 0.0553288 1.38778e-17
 endloop
endfacet
facet normal -0.25046486 0.30339232 0.9193588
 outer loop
  vertex 0.287667 0.0553288 1.38778e-17
  vertex 0.366268 0.0554064 0.021388
  vertex 0.287761 0.0554064 1.43115e-17
 endloop
endfacet
facet normal -0.24830998 0.3280285 0.91144913
 outer loop
  vertex 0.366268 0.0554064 0.021388
  vertex 0.287863 0.0554836 2.25514e-17
  vertex 0.287761 0.0554064 1.43115e-17
 endloop
endfacet
facet normal -0.24858499 0.325034 0.9124464
 outer loop
  vertex 0.366268 0.0554064 0.021388
  vertex 0.366268 0.0554836 0.0213605
  vertex 0.287863 0.0554836 2.25514e-17
 endloop
endfacet
facet normal -0.24656267 0.3466113 0.9050234
 outer loop
  vertex 0.366268 0.0554836 0.0213605
  vertex 0.366268 0.0555601 0.0213312
  vertex 0.287863 0.0554836 2.25514e-17
 endloop
endfacet
facet normal -0.2467053 0.34512383 0.9055529
 outer loop
  vertex 0.287863 0.0554836 2.25514e-17
  vertex 0.366268 0.0555601 0.0213312
  vertex 0.28797 0.0555601 2.9924e-17
 endloop
endfacet
facet normal -0.2445362 0.36678633 0.8975911
 outer loop
  vertex 0.366268 0.0555601 0.0213312
  vertex 0.288084 0.0556361 1.34441e-17
  vertex 0.28797 0.0555601 2.9924e-17
 endloop
endfacet
facet normal -0.24459614 0.3662132 0.8978088
 outer loop
  vertex 0.366268 0.0555601 0.0213312
  vertex 0.366268 0.0556361 0.0213002
  vertex 0.288084 0.0556361 1.34441e-17
 endloop
endfacet
facet normal -0.24249822 0.38587818 0.8901082
 outer loop
  vertex 0.366268 0.0556361 0.0213002
  vertex 0.366268 0.0557113 0.0212676
  vertex 0.288084 0.0556361 1.34441e-17
 endloop
endfacet
facet normal -0.24269536 0.38406283 0.89083934
 outer loop
  vertex 0.288084 0.0556361 1.34441e-17
  vertex 0.366268 0.0557113 0.0212676
  vertex 0.288203 0.0557113 2.64545e-17
 endloop
endfacet
facet normal -0.24024242 0.40577045 0.8818355
 outer loop
  vertex 0.366268 0.0557113 0.0212676
  vertex 0.288329 0.0557859 2.86229e-17
  vertex 0.288203 0.0557113 2.64545e-17
 endloop
endfacet
facet normal -0.23539227 0.4450217 0.86402905
 outer loop
  vertex 0.366268 0.0558598 0.0211974
  vertex 0.366268 0.0559328 0.0211598
  vertex 0.288599 0.0559328 0
 endloop
endfacet
facet normal -0.24027412 0.40550095 0.8819508
 outer loop
  vertex 0.366268 0.0557113 0.0212676
  vertex 0.366268 0.0557859 0.0212333
  vertex 0.288329 0.0557859 2.86229e-17
 endloop
endfacet
facet normal -0.23800638 0.4244161 0.8736268
 outer loop
  vertex 0.366268 0.0557859 0.0212333
  vertex 0.366268 0.0558598 0.0211974
  vertex 0.288329 0.0557859 2.86229e-17
 endloop
endfacet
facet normal -0.2379363 0.42498955 0.8733672
 outer loop
  vertex 0.288329 0.0557859 2.86229e-17
  vertex 0.366268 0.0558598 0.0211974
  vertex 0.288461 0.0558598 1.56125e-17
 endloop
endfacet
facet normal -0.23539136 0.4450285 0.8640257
 outer loop
  vertex 0.366268 0.0558598 0.0211974
  vertex 0.288599 0.0559328 0
  vertex 0.288461 0.0558598 1.56125e-17
 endloop
endfacet
facet normal -1 -0 -0
 outer loop
  vertex 0.366268 -6.22221e-17 0.096012
  vertex 0.366268 -6.75955e-17 0.0988702
  vertex 0.366268 0.0211598 0.0559328
 endloop
endfacet
facet normal -1 0 0
 outer loop
  vertex 0.366268 -6.75955e-17 0.0988702
  vertex 0.366268 0.0220005 0.0571987
  vertex 0.366268 0.0211598 0.0559328
 endloop
endfacet
facet normal -1 -0 0
 outer loop
  vertex 0.366268 0.0211598 0.0559328
  vertex 0.366268 0.0220005 0.0571987
  vertex 0.366268 0.0220794 0.0570567
 endloop
endfacet
facet normal -1 0 0
 outer loop
  vertex 0.366268 0.0220794 0.0570567
  vertex 0.366268 0.0221645 0.056918
  vertex 0.366268 0.0211598 0.0559328
 endloop
endfacet
facet normal -1 0 0
 outer loop
  vertex 0.366268 0.0221645 0.056918
  vertex 0.366268 0.0222556 0.056783
  vertex 0.366268 0.0211598 0.0559328
 endloop
endfacet
facet normal -1 -0 0
 outer loop
  vertex 0.366268 0.0211598 0.0559328
  vertex 0.366268 0.0222556 0.056783
  vertex 0.366268 0.0211974 0.0558598
 endloop
endfacet
facet normal -1 0 0
 outer loop
  vertex 0.366268 0.0222556 0.056783
  vertex 0.366268 0.0223525 0.0566517
  vertex 0.366268 0.0211974 0.0558598
 endloop
endfacet
facet normal -1 -0 0
 outer loop
  vertex 0.366268 0.0211974 0.0558598
  vertex 0.366268 0.0223525 0.0566517
  vertex 0.366268 0.0212333 0.0557859
 endloop
endfacet
facet normal -1 -0 0
 outer loop
  vertex 0.366268 0.0212333 0.0557859
  vertex 0.366268 0.0223525 0.0566517
  vertex 0.366268 0.0212676 0.0557113
 endloop
endfacet
facet normal -1 0 0
 outer loop
  vertex 0.366268 0.0223525 0.0566517
  vertex 0.366268 0.0224551 0.0565246
  vertex 0.366268 0.0212676 0.0557113
 endloop
endfacet
facet normal -1 -0 0
 outer loop
  vertex 0.366268 0.0212676 0.0557113
  vertex 0.366268 0.0224551 0.0565246
  vertex 0.366268 0.0213002 0.0556361
 endloop
endfacet
facet normal -1 0 -0
 outer loop
  vertex 0.366268 0.0214139 0.0553288
  vertex 0.366268 0.021388 0.0554064
  vertex 0.366268 0.0225632 0.0564017
 endloop
endfacet
facet normal -1 0 -0
 outer loop
  vertex 0.366268 0.021388 0.0554064
  vertex 0.366268 0.0213605 0.0554836
  vertex 0.366268 0.0225632 0.0564017
 endloop
endfacet
facet normal -1 0 -0
 outer loop
  vertex 0.366268 0.0225632 0.0564017
  vertex 0.366268 0.0213605 0.0554836
  vertex 0.366268 0.0224551 0.0565246
 endloop
endfacet
facet normal -1 0 -0
 outer loop
  vertex 0.366268 0.0213605 0.0554836
  vertex 0.366268 0.0213312 0.0555601
  vertex 0.366268 0.0224551 0.0565246
 endloop
endfacet
facet normal -1 0 0
 outer loop
  vertex 0.366268 0.0224551 0.0565246
  vertex 0.366268 0.0213312 0.0555601
  vertex 0.366268 0.0213002 0.0556361
 endloop
endfacet
facet normal -1 -0 0
 outer loop
  vertex 0.366268 0.0214139 0.0553288
  vertex 0.366268 0.0225632 0.0564017
  vertex 0.366268 0.021438 0.0552506
 endloop
endfacet
facet normal -1 0 0
 outer loop
  vertex 0.366268 0.0225632 0.0564017
  vertex 0.366268 0.0226765 0.0562834
  vertex 0.366268 0.021438 0.0552506
 endloop
endfacet
facet normal -1 -0 0
 outer loop
  vertex 0.366268 0.021438 0.0552506
  vertex 0.366268 0.0226765 0.0562834
  vertex 0.366268 0.0214603 0.0551719
 endloop
endfacet
facet normal -1 0 -0
 outer loop
  vertex 0.366268 0.0215322 0.0548531
  vertex 0.366268 0.0215169 0.0549333
  vertex 0.366268 0.022795 0.0561698
 endloop
endfacet
facet normal -1 0 -0
 outer loop
  vertex 0.366268 0.0215169 0.0549333
  vertex 0.366268 0.0214998 0.0550132
  vertex 0.366268 0.022795 0.0561698
 endloop
endfacet
facet normal -1 0 -0
 outer loop
  vertex 0.366268 0.022795 0.0561698
  vertex 0.366268 0.0214998 0.0550132
  vertex 0.366268 0.0226765 0.0562834
 endloop
endfacet
facet normal -1 0 -0
 outer loop
  vertex 0.366268 0.0214998 0.0550132
  vertex 0.366268 0.0214809 0.0550927
  vertex 0.366268 0.0226765 0.0562834
 endloop
endfacet
facet normal -1 0 0
 outer loop
  vertex 0.366268 0.0226765 0.0562834
  vertex 0.366268 0.0214809 0.0550927
  vertex 0.366268 0.0214603 0.0551719
 endloop
endfacet
facet normal -1 0 -0
 outer loop
  vertex 0.366268 0.0215755 0.0545295
  vertex 0.366268 0.0215674 0.0546107
  vertex 0.366268 0.0229183 0.0560611
 endloop
endfacet
facet normal -1 0 -0
 outer loop
  vertex 0.366268 0.0215674 0.0546107
  vertex 0.366268 0.0215574 0.0546917
  vertex 0.366268 0.0229183 0.0560611
 endloop
endfacet
facet normal -1 0 -0
 outer loop
  vertex 0.366268 0.0229183 0.0560611
  vertex 0.366268 0.0215574 0.0546917
  vertex 0.366268 0.022795 0.0561698
 endloop
endfacet
facet normal -1 0 -0
 outer loop
  vertex 0.366268 0.0215574 0.0546917
  vertex 0.366268 0.0215457 0.0547725
  vertex 0.366268 0.022795 0.0561698
 endloop
endfacet
facet normal -1 0 0
 outer loop
  vertex 0.366268 0.022795 0.0561698
  vertex 0.366268 0.0215457 0.0547725
  vertex 0.366268 0.0215322 0.0548531
 endloop
endfacet
facet normal -1 0 -0
 outer loop
  vertex 0.366268 0.02159 0.0542035
  vertex 0.366268 0.0215891 0.0542851
  vertex 0.366268 0.0230462 0.0559576
 endloop
endfacet
facet normal -1 0 -0
 outer loop
  vertex 0.366268 0.0215891 0.0542851
  vertex 0.366268 0.0215864 0.0543667
  vertex 0.366268 0.0230462 0.0559576
 endloop
endfacet
facet normal -1 0 -0
 outer loop
  vertex 0.366268 0.0230462 0.0559576
  vertex 0.366268 0.0215864 0.0543667
  vertex 0.366268 0.0229183 0.0560611
 endloop
endfacet
facet normal -1 0 -0
 outer loop
  vertex 0.366268 0.0215864 0.0543667
  vertex 0.366268 0.0215819 0.0544481
  vertex 0.366268 0.0229183 0.0560611
 endloop
endfacet
facet normal -1 0 0
 outer loop
  vertex 0.366268 0.0229183 0.0560611
  vertex 0.366268 0.0215819 0.0544481
  vertex 0.366268 0.0215755 0.0545295
 endloop
endfacet
facet normal -1 0 0
 outer loop
  vertex 0.366268 0.0230462 0.0559576
  vertex 0.366268 0.0231786 0.0558594
  vertex 0.366268 0.02159 0.0542035
 endloop
endfacet
facet normal -1 0 0
 outer loop
  vertex 0.366268 0.0231786 0.0558594
  vertex 0.366268 0.0233152 0.0557666
  vertex 0.366268 0.02159 0.0542035
 endloop
endfacet
facet normal -1 -0 0
 outer loop
  vertex 0.366268 0.02159 0.0542035
  vertex 0.366268 0.0233152 0.0557666
  vertex 0.366268 0.02159 0.050038
 endloop
endfacet
facet normal -1 0 0
 outer loop
  vertex 0.366268 0.0233152 0.0557666
  vertex 0.366268 0.0234557 0.0556796
  vertex 0.366268 0.02159 0.050038
 endloop
endfacet
facet normal -1 0 0
 outer loop
  vertex 0.366268 0.0234557 0.0556796
  vertex 0.366268 0.0235999 0.0555983
  vertex 0.366268 0.02159 0.050038
 endloop
endfacet
facet normal -1 -0 0
 outer loop
  vertex 0.366268 0.02159 0.050038
  vertex 0.366268 0.0235999 0.0555983
  vertex 0.366268 0.0237476 0.055523
 endloop
endfacet
facet normal -1 0 0
 outer loop
  vertex 0.366268 0.0237476 0.055523
  vertex 0.366268 0.0238984 0.0554537
  vertex 0.366268 0.02159 0.050038
 endloop
endfacet
facet normal -1 0 0
 outer loop
  vertex 0.366268 0.0238984 0.0554537
  vertex 0.366268 0.0240521 0.0553907
  vertex 0.366268 0.02159 0.050038
 endloop
endfacet
facet normal -1 -0 0
 outer loop
  vertex 0.366268 0.02159 0.050038
  vertex 0.366268 0.0240521 0.0553907
  vertex 0.366268 0.0242084 0.055334
 endloop
endfacet
facet normal -1 0 0
 outer loop
  vertex 0.366268 0.0242084 0.055334
  vertex 0.366268 0.0243671 0.0552838
  vertex 0.366268 0.02159 0.050038
 endloop
endfacet
facet normal -1 0 0
 outer loop
  vertex 0.366268 0.0243671 0.0552838
  vertex 0.366268 0.0245278 0.05524
  vertex 0.366268 0.02159 0.050038
 endloop
endfacet
facet normal -1 -0 0
 outer loop
  vertex 0.366268 0.02159 0.050038
  vertex 0.366268 0.0245278 0.05524
  vertex 0.366268 0.0246903 0.0552029
 endloop
endfacet
facet normal -1 0 0
 outer loop
  vertex 0.366268 0.0246903 0.0552029
  vertex 0.366268 0.0248543 0.0551724
  vertex 0.366268 0.02159 0.050038
 endloop
endfacet
facet normal -1 0 0
 outer loop
  vertex 0.366268 0.0248543 0.0551724
  vertex 0.366268 0.0250195 0.0551486
  vertex 0.366268 0.02159 0.050038
 endloop
endfacet
facet normal -1 -0 0
 outer loop
  vertex 0.366268 0.02159 0.050038
  vertex 0.366268 0.0250195 0.0551486
  vertex 0.366268 0.0251855 0.0551316
 endloop
endfacet
facet normal -1 0 0
 outer loop
  vertex 0.366268 0.044958 0.055118
  vertex 0.366268 0.050038 0.050038
  vertex 0.366268 0.0255192 0.055118
 endloop
endfacet
facet normal -1 0 -0
 outer loop
  vertex 0.366268 0.050038 0.050038
  vertex 0.366268 0.02159 0.050038
  vertex 0.366268 0.0255192 0.055118
 endloop
endfacet
facet normal -1 0 -0
 outer loop
  vertex 0.366268 0.0255192 0.055118
  vertex 0.366268 0.02159 0.050038
  vertex 0.366268 0.0253522 0.0551214
 endloop
endfacet
facet normal -1 -0 0
 outer loop
  vertex 0.366268 0.02159 0.050038
  vertex 0.366268 0.0251855 0.0551316
  vertex 0.366268 0.0253522 0.0551214
 endloop
endfacet
facet normal 0.26069102 0 -0.9654222
 outer loop
  vertex 0.185166 0.05 0.05
  vertex 0.185166 -3.33067e-17 0.05
  vertex 8.06646e-17 1.21431e-17 1.20671e-17
 endloop
endfacet
facet normal -0.26285568 0 0.96483517
 outer loop
  vertex 0.366268 0.050038 0.02159
  vertex 0.366268 0.0542035 0.02159
  vertex 0.28702 0.0500009 0
 endloop
endfacet
facet normal -0.26285568 0 0.96483517
 outer loop
  vertex 0.366268 0.0542035 0.02159
  vertex 0.28702 0.0542035 0
  vertex 0.28702 0.0500009 0
 endloop
endfacet
facet normal -0.00046815263 0 0.9999999
 outer loop
  vertex 0.366268 0.02159 0.050038
  vertex 0.366268 0.050038 0.050038
  vertex 0.28702 -3.33073e-17 0.0500009
 endloop
endfacet
facet normal -0.00046852077 5.8312327e-07 0.9999999
 outer loop
  vertex 0.366268 0.050038 0.050038
  vertex 0.285166 0.05 0.05
  vertex 0.28702 -3.33073e-17 0.0500009
 endloop
endfacet
facet normal -0.00048424688 0 0.99999994
 outer loop
  vertex 0.28702 -3.33073e-17 0.0500009
  vertex 0.285166 0.05 0.05
  vertex 0.285166 -3.33067e-17 0.05
 endloop
endfacet
facet normal -0.2342193 0.45389068 0.8597235
 outer loop
  vertex 0.366268 0.096012 1.73472e-18
  vertex 0.288599 0.0559328 0
  vertex 0.366268 0.0559328 0.0211598
 endloop
endfacet
facet normal -1 0 0
 outer loop
  vertex 0.366268 0.0988702 -1.73472e-18
  vertex 0.366268 0.096012 1.73472e-18
  vertex 0.366268 0.0571987 0.0220005
 endloop
endfacet
facet normal -1 0 -0
 outer loop
  vertex 0.366268 0.096012 1.73472e-18
  vertex 0.366268 0.0559328 0.0211598
  vertex 0.366268 0.0571987 0.0220005
 endloop
endfacet
facet normal -1 0 -0
 outer loop
  vertex 0.366268 0.0571987 0.0220005
  vertex 0.366268 0.0559328 0.0211598
  vertex 0.366268 0.0570567 0.0220794
 endloop
endfacet
facet normal -1 0 0
 outer loop
  vertex 0.366268 0.0566517 0.0223525
  vertex 0.366268 0.056783 0.0222556
  vertex 0.366268 0.0559328 0.0211598
 endloop
endfacet
facet normal -1 0 0
 outer loop
  vertex 0.366268 0.056783 0.0222556
  vertex 0.366268 0.056918 0.0221645
  vertex 0.366268 0.0559328 0.0211598
 endloop
endfacet
facet normal -1 -0 0
 outer loop
  vertex 0.366268 0.0559328 0.0211598
  vertex 0.366268 0.056918 0.0221645
  vertex 0.366268 0.0570567 0.0220794
 endloop
endfacet
facet normal -1 0 -0
 outer loop
  vertex 0.366268 0.0559328 0.0211598
  vertex 0.366268 0.0558598 0.0211974
  vertex 0.366268 0.0566517 0.0223525
 endloop
endfacet
facet normal -1 0 -0
 outer loop
  vertex 0.366268 0.0558598 0.0211974
  vertex 0.366268 0.0557859 0.0212333
  vertex 0.366268 0.0566517 0.0223525
 endloop
endfacet
facet normal -1 0 -0
 outer loop
  vertex 0.366268 0.0566517 0.0223525
  vertex 0.366268 0.0557859 0.0212333
  vertex 0.366268 0.0565246 0.0224551
 endloop
endfacet
facet normal -1 0 -0
 outer loop
  vertex 0.366268 0.0557859 0.0212333
  vertex 0.366268 0.0557113 0.0212676
  vertex 0.366268 0.0565246 0.0224551
 endloop
endfacet
facet normal -1 0 -0
 outer loop
  vertex 0.366268 0.0542851 0.0215891
  vertex 0.366268 0.0542035 0.02159
  vertex 0.366268 0.0559576 0.0230462
 endloop
endfacet
facet normal -1 0 -0
 outer loop
  vertex 0.366268 0.0557113 0.0212676
  vertex 0.366268 0.0556361 0.0213002
  vertex 0.366268 0.0565246 0.0224551
 endloop
endfacet
facet normal -1 0 -0
 outer loop
  vertex 0.366268 0.0556361 0.0213002
  vertex 0.366268 0.0555601 0.0213312
  vertex 0.366268 0.0565246 0.0224551
 endloop
endfacet
facet normal -1 0 -0
 outer loop
  vertex 0.366268 0.0565246 0.0224551
  vertex 0.366268 0.0555601 0.0213312
  vertex 0.366268 0.0564017 0.0225632
 endloop
endfacet
facet normal -1 0 -0
 outer loop
  vertex 0.366268 0.0555601 0.0213312
  vertex 0.366268 0.0554836 0.0213605
  vertex 0.366268 0.0564017 0.0225632
 endloop
endfacet
facet normal -1 0 -0
 outer loop
  vertex 0.366268 0.0559576 0.0230462
  vertex 0.366268 0.0542035 0.02159
  vertex 0.366268 0.0558594 0.0231786
 endloop
endfacet
facet normal -1 0 -0
 outer loop
  vertex 0.366268 0.0554836 0.0213605
  vertex 0.366268 0.0554064 0.021388
  vertex 0.366268 0.0564017 0.0225632
 endloop
endfacet
facet normal -1 0 -0
 outer loop
  vertex 0.366268 0.0554064 0.021388
  vertex 0.366268 0.0553288 0.0214139
  vertex 0.366268 0.0564017 0.0225632
 endloop
endfacet
facet normal -1 0 -0
 outer loop
  vertex 0.366268 0.0564017 0.0225632
  vertex 0.366268 0.0553288 0.0214139
  vertex 0.366268 0.0562834 0.0226765
 endloop
endfacet
facet normal -1 0 -0
 outer loop
  vertex 0.366268 0.0553288 0.0214139
  vertex 0.366268 0.0552506 0.021438
  vertex 0.366268 0.0562834 0.0226765
 endloop
endfacet
facet normal -1 0 -0
 outer loop
  vertex 0.366268 0.0552506 0.021438
  vertex 0.366268 0.0551719 0.0214603
  vertex 0.366268 0.0562834 0.0226765
 endloop
endfacet
facet normal -1 0 -0
 outer loop
  vertex 0.366268 0.0551719 0.0214603
  vertex 0.366268 0.0550927 0.0214809
  vertex 0.366268 0.0562834 0.0226765
 endloop
endfacet
facet normal -1 0 -0
 outer loop
  vertex 0.366268 0.0562834 0.0226765
  vertex 0.366268 0.0550927 0.0214809
  vertex 0.366268 0.0561698 0.022795
 endloop
endfacet
facet normal -1 0 -0
 outer loop
  vertex 0.366268 0.0550927 0.0214809
  vertex 0.366268 0.0550132 0.0214998
  vertex 0.366268 0.0561698 0.022795
 endloop
endfacet
facet normal -1 0 0
 outer loop
  vertex 0.366268 0.0561698 0.022795
  vertex 0.366268 0.0550132 0.0214998
  vertex 0.366268 0.0549333 0.0215169
 endloop
endfacet
facet normal -1 0 -0
 outer loop
  vertex 0.366268 0.0546107 0.0215674
  vertex 0.366268 0.0545295 0.0215755
  vertex 0.366268 0.0560611 0.0229183
 endloop
endfacet
facet normal -1 0 -0
 outer loop
  vertex 0.366268 0.0545295 0.0215755
  vertex 0.366268 0.0544481 0.0215819
  vertex 0.366268 0.0560611 0.0229183
 endloop
endfacet
facet normal -1 0 -0
 outer loop
  vertex 0.366268 0.0560611 0.0229183
  vertex 0.366268 0.0544481 0.0215819
  vertex 0.366268 0.0559576 0.0230462
 endloop
endfacet
facet normal -1 0 -0
 outer loop
  vertex 0.366268 0.0544481 0.0215819
  vertex 0.366268 0.0543667 0.0215864
  vertex 0.366268 0.0559576 0.0230462
 endloop
endfacet
facet normal -1 0 0
 outer loop
  vertex 0.366268 0.0559576 0.0230462
  vertex 0.366268 0.0543667 0.0215864
  vertex 0.366268 0.0542851 0.0215891
 endloop
endfacet
facet normal -1 0 -0
 outer loop
  vertex 0.366268 0.0549333 0.0215169
  vertex 0.366268 0.0548531 0.0215322
  vertex 0.366268 0.0561698 0.022795
 endloop
endfacet
facet normal -1 0 -0
 outer loop
  vertex 0.366268 0.0548531 0.0215322
  vertex 0.366268 0.0547725 0.0215457
  vertex 0.366268 0.0561698 0.022795
 endloop
endfacet
facet normal -1 0 -0
 outer loop
  vertex 0.366268 0.0561698 0.022795
  vertex 0.366268 0.0547725 0.0215457
  vertex 0.366268 0.0560611 0.0229183
 endloop
endfacet
facet normal -1 0 -0
 outer loop
  vertex 0.366268 0.0547725 0.0215457
  vertex 0.366268 0.0546917 0.0215574
  vertex 0.366268 0.0560611 0.0229183
 endloop
endfacet
facet normal -1 0 0
 outer loop
  vertex 0.366268 0.0560611 0.0229183
  vertex 0.366268 0.0546917 0.0215574
  vertex 0.366268 0.0546107 0.0215674
 endloop
endfacet
facet normal -1 -0 0
 outer loop
  vertex 0.366268 0.050038 0.02159
  vertex 0.366268 0.0556796 0.0234557
  vertex 0.366268 0.0542035 0.02159
 endloop
endfacet
facet normal -1 0 0
 outer loop
  vertex 0.366268 0.0556796 0.0234557
  vertex 0.366268 0.0557666 0.0233152
  vertex 0.366268 0.0542035 0.02159
 endloop
endfacet
facet normal -1 -0 0
 outer loop
  vertex 0.366268 0.0542035 0.02159
  vertex 0.366268 0.0557666 0.0233152
  vertex 0.366268 0.0558594 0.0231786
 endloop
endfacet
facet normal -1 0 0
 outer loop
  vertex 0.366268 0.0554537 0.0238984
  vertex 0.366268 0.055523 0.0237476
  vertex 0.366268 0.050038 0.02159
 endloop
endfacet
facet normal -1 0 0
 outer loop
  vertex 0.366268 0.055523 0.0237476
  vertex 0.366268 0.0555983 0.0235999
  vertex 0.366268 0.050038 0.02159
 endloop
endfacet
facet normal -1 -0 0
 outer loop
  vertex 0.366268 0.050038 0.02159
  vertex 0.366268 0.0555983 0.0235999
  vertex 0.366268 0.0556796 0.0234557
 endloop
endfacet
facet normal -1 0 0
 outer loop
  vertex 0.366268 0.0552838 0.0243671
  vertex 0.366268 0.055334 0.0242084
  vertex 0.366268 0.050038 0.02159
 endloop
endfacet
facet normal -1 0 0
 outer loop
  vertex 0.366268 0.055334 0.0242084
  vertex 0.366268 0.0553907 0.0240521
  vertex 0.366268 0.050038 0.02159
 endloop
endfacet
facet normal -1 -0 0
 outer loop
  vertex 0.366268 0.050038 0.02159
  vertex 0.366268 0.0553907 0.0240521
  vertex 0.366268 0.0554537 0.0238984
 endloop
endfacet
facet normal -1 0 0
 outer loop
  vertex 0.366268 0.0551724 0.0248543
  vertex 0.366268 0.0552029 0.0246903
  vertex 0.366268 0.050038 0.02159
 endloop
endfacet
facet normal -1 0 0
 outer loop
  vertex 0.366268 0.0552029 0.0246903
  vertex 0.366268 0.05524 0.0245278
  vertex 0.366268 0.050038 0.02159
 endloop
endfacet
facet normal -1 -0 0
 outer loop
  vertex 0.366268 0.050038 0.02159
  vertex 0.366268 0.05524 0.0245278
  vertex 0.366268 0.0552838 0.0243671
 endloop
endfacet
facet normal -1 0 0
 outer loop
  vertex 0.366268 0.0551214 0.0253522
  vertex 0.366268 0.0551316 0.0251855
  vertex 0.366268 0.050038 0.02159
 endloop
endfacet
facet normal -1 0 0
 outer loop
  vertex 0.366268 0.0551316 0.0251855
  vertex 0.366268 0.0551486 0.0250195
  vertex 0.366268 0.050038 0.02159
 endloop
endfacet
facet normal -1 -0 0
 outer loop
  vertex 0.366268 0.050038 0.02159
  vertex 0.366268 0.0551486 0.0250195
  vertex 0.366268 0.0551724 0.0248543
 endloop
endfacet
facet normal -1 0 0
 outer loop
  vertex 0.366268 0.050038 0.050038
  vertex 0.366268 0.055118 0.044958
  vertex 0.366268 0.050038 0.02159
 endloop
endfacet
facet normal -1 0 0
 outer loop
  vertex 0.366268 0.055118 0.044958
  vertex 0.366268 0.055118 0.0255192
  vertex 0.366268 0.050038 0.02159
 endloop
endfacet
facet normal -1 -0 0
 outer loop
  vertex 0.366268 0.050038 0.02159
  vertex 0.366268 0.055118 0.0255192
  vertex 0.366268 0.0551214 0.0253522
 endloop
endfacet
facet normal 0.23421882 -0.45389146 -0.8597232
 outer loop
  vertex 0.366268 0.0988702 -1.73472e-18
  vertex 0.366268 0.0571987 0.0220005
  vertex 0.285513 0.0571987 0
 endloop
endfacet
facet normal 0 -1 0
 outer loop
  vertex 0.366268 0.055118 0.0255192
  vertex 0.366268 0.055118 0.044958
  vertex 0.272598 0.055118 0
 endloop
endfacet
facet normal 0 -1 0
 outer loop
  vertex 0.366268 0.055118 0.044958
  vertex 0.211157 0.055118 0.044958
  vertex 0.272598 0.055118 0
 endloop
endfacet
facet normal 0 -1 0
 outer loop
  vertex 0.272598 0.055118 0
  vertex 0.211157 0.055118 0.044958
  vertex 0.211157 0.055118 0
 endloop
endfacet
facet normal 0.26069102 -0.9654222 0
 outer loop
  vertex 8.06646e-17 1.21431e-17 1.20671e-17
  vertex 0.185166 0.05 0
  vertex 0.185166 0.05 0.05
 endloop
endfacet
facet normal -1 -0 -0
 outer loop
  vertex 0.285166 3.31761e-18 0
  vertex 0.285166 -3.33067e-17 0.05
  vertex 0.285166 0.05 0
 endloop
endfacet
facet normal -1 0 0
 outer loop
  vertex 0.285166 -3.33067e-17 0.05
  vertex 0.285166 0.05 0.05
  vertex 0.285166 0.05 0
 endloop
endfacet
facet normal -0.00048424688 0.99999994 0
 outer loop
  vertex 0.285166 0.05 0
  vertex 0.285166 0.05 0.05
  vertex 0.28702 0.0500009 0
 endloop
endfacet
facet normal -0.00046852083 0.9999999 5.8312855e-07
 outer loop
  vertex 0.285166 0.05 0.05
  vertex 0.366268 0.050038 0.050038
  vertex 0.28702 0.0500009 0
 endloop
endfacet
facet normal -0.00046815263 0.9999999 0
 outer loop
  vertex 0.28702 0.0500009 0
  vertex 0.366268 0.050038 0.050038
  vertex 0.366268 0.050038 0.02159
 endloop
endfacet
facet normal 0.1931725 -0.9811648 0
 outer loop
  vertex 0.185166 0.05 0.05
  vertex 0.185166 0.05 0
  vertex 0.185359 0.050038 0.050038
 endloop
endfacet
facet normal 0.19320412 -0.98115855 -1.207617e-07
 outer loop
  vertex 0.185166 0.05 0
  vertex 0.211157 0.055118 0
  vertex 0.185359 0.050038 0.050038
 endloop
endfacet
facet normal 0.19320437 -0.98115855 0
 outer loop
  vertex 0.185359 0.050038 0.050038
  vertex 0.211157 0.055118 0
  vertex 0.211157 0.055118 0.044958
 endloop
endfacet
endsolid 
