solid 
facet normal 0 -0 1
 outer loop
  vertex 3.66268 0.988702 0.988702
  vertex -0.366268 0.988702 0.988702
  vertex 3.66268 1.95103e-17 0.988702
 endloop
endfacet
facet normal 0 -0 1
 outer loop
  vertex -0.366268 0.988702 0.988702
  vertex -0.366268 -5.55112e-17 0.988702
  vertex 3.66268 1.95103e-17 0.988702
 endloop
endfacet
facet normal 0 1 -0
 outer loop
  vertex -0.366268 0.988702 0.988702
  vertex 3.66268 0.988702 0.988702
  vertex -0.366268 0.988702 0
 endloop
endfacet
facet normal 0 1 0
 outer loop
  vertex 3.66268 0.988702 0.988702
  vertex 3.66268 0.988702 0
  vertex -0.366268 0.988702 0
 endloop
endfacet
endsolid 
