solid 
facet normal 1.8620618e-17 -1 2.8909476e-17
 outer loop
  vertex 0.366268 -6.75955e-17 0.0988702
  vertex 3.66268 1.95103e-17 0.988702
  vertex -0.366268 -5.55112e-17 0.988702
 endloop
endfacet
facet normal 3.1231157e-20 -1 -7.3248614e-16
 outer loop
  vertex 0.285166 -3.33067e-17 0.05
  vertex 0.285166 3.31761e-18 0
  vertex 0.28702 -3.33073e-17 0.0500009
 endloop
endfacet
facet normal 4.794263e-18 -1 -7.3266275e-16
 outer loop
  vertex 0.285166 3.31761e-18 0
  vertex 3.66268 1.95103e-17 0
  vertex 0.28702 -3.33073e-17 0.0500009
 endloop
endfacet
facet normal -0 -1 -2.0132306e-17
 outer loop
  vertex -0.366268 -5.55112e-17 0.988702
  vertex 0.211157 -3.6716e-17 0.055118
  vertex 0.272598 -3.6716e-17 0.055118
 endloop
endfacet
facet normal 1.8471253e-16 -1 0
 outer loop
  vertex -0.366268 -5.55112e-17 0
  vertex 8.06646e-17 1.21431e-17 1.20671e-17
  vertex -0.366268 -5.55112e-17 0.988702
 endloop
endfacet
facet normal -2.0633659e-16 -1 -1.4486549e-16
 outer loop
  vertex 8.06646e-17 1.21431e-17 1.20671e-17
  vertex 0.185166 -3.33067e-17 0.05
  vertex -0.366268 -5.55112e-17 0.988702
 endloop
endfacet
facet normal -1.1339717e-16 -1 -9.026888e-17
 outer loop
  vertex -0.366268 -5.55112e-17 0.988702
  vertex 0.185166 -3.33067e-17 0.05
  vertex 0.211157 -3.6716e-17 0.055118
 endloop
endfacet
facet normal -1.3816778e-15 -1 -9.65636e-16
 outer loop
  vertex 0.272598 -3.6716e-17 0.055118
  vertex 0.273209 -3.75635e-17 0.0551214
  vertex -0.366268 -5.55112e-17 0.988702
 endloop
endfacet
facet normal -6.953042e-18 -1 -2.3987229e-17
 outer loop
  vertex 0.273209 -3.75635e-17 0.0551214
  vertex 0.273821 -3.7568e-17 0.0551316
  vertex -0.366268 -5.55112e-17 0.988702
 endloop
endfacet
facet normal 6.033478e-14 -1 4.134845e-14
 outer loop
  vertex -0.366268 -5.55112e-17 0.988702
  vertex 0.273821 -3.7568e-17 0.0551316
  vertex 0.274432 0 0.0551486
 endloop
endfacet
facet normal -8.42893e-14 -1 7.852343e-14
 outer loop
  vertex 0.28702 -3.61068e-17 0.0542035
  vertex 0.287457 0 0.0551324
  vertex 0.28742 0 0.0550927
 endloop
endfacet
facet normal 2.6424427e-17 -1 0
 outer loop
  vertex 3.66268 1.95103e-17 0.988702
  vertex 0.366268 -6.75955e-17 0.0988702
  vertex 3.66268 1.95103e-17 0
 endloop
endfacet
facet normal -2.9962765e-17 -1 -1.8799943e-15
 outer loop
  vertex 0.366268 -6.75955e-17 0.0988702
  vertex 0.366268 -6.22221e-17 0.096012
  vertex 3.66268 1.95103e-17 0
 endloop
endfacet
facet normal 6.1804884e-18 -1 -6.39076e-16
 outer loop
  vertex 3.66268 1.95103e-17 0
  vertex 0.366268 -6.22221e-17 0.096012
  vertex 0.28702 -3.33073e-17 0.0500009
 endloop
endfacet
facet normal 2.5898357e-17 -1 -6.7303735e-16
 outer loop
  vertex 0.366268 -6.22221e-17 0.096012
  vertex 0.288599 -3.72588e-17 0.0559328
  vertex 0.28702 -3.33073e-17 0.0500009
 endloop
endfacet
facet normal -3.0919275e-20 -1 -6.661351e-16
 outer loop
  vertex 0.28702 -3.33073e-17 0.0500009
  vertex 0.288599 -3.72588e-17 0.0559328
  vertex 0.28702 -3.61068e-17 0.0542035
 endloop
endfacet
facet normal -5.2145804e-13 -1 4.754744e-13
 outer loop
  vertex 0.288599 -3.72588e-17 0.0559328
  vertex 0.288461 0 0.0558598
  vertex 0.28702 -3.61068e-17 0.0542035
 endloop
endfacet
facet normal -2.379498e-14 -1 4.2501572e-14
 outer loop
  vertex 0.28702 -3.61068e-17 0.0542035
  vertex 0.288461 0 0.0558598
  vertex 0.288329 0 0.0557859
 endloop
endfacet
facet normal -6.079648e-14 -1 -4.1784237e-14
 outer loop
  vertex 0.274432 0 0.0551486
  vertex 0.275034 -3.7586e-17 0.0551722
  vertex -0.366268 -5.55112e-17 0.988702
 endloop
endfacet
facet normal -2.0774555e-17 -1 -3.3472916e-17
 outer loop
  vertex 0.275034 -3.7586e-17 0.0551722
  vertex 0.275635 -3.75995e-17 0.0552026
  vertex -0.366268 -5.55112e-17 0.988702
 endloop
endfacet
facet normal 5.9899134e-14 -1 4.1169308e-14
 outer loop
  vertex -0.366268 -5.55112e-17 0.988702
  vertex 0.275635 -3.75995e-17 0.0552026
  vertex 0.276237 0 0.05524
 endloop
endfacet
facet normal -9.3951756e-14 -1 8.287009e-14
 outer loop
  vertex 0.28742 0 0.0550927
  vertex 0.287385 0 0.055053
  vertex 0.28702 -3.61068e-17 0.0542035
 endloop
endfacet
facet normal -1.00253403e-13 -1 8.5577595e-14
 outer loop
  vertex 0.287385 0 0.055053
  vertex 0.287351 0 0.0550132
  vertex 0.28702 -3.61068e-17 0.0542035
 endloop
endfacet
facet normal -1.1334397e-13 -1 9.092917e-14
 outer loop
  vertex 0.28702 -3.61068e-17 0.0542035
  vertex 0.287351 0 0.0550132
  vertex 0.287319 0 0.0549733
 endloop
endfacet
facet normal -2.6477523e-14 -1 4.472065e-14
 outer loop
  vertex 0.288329 0 0.0557859
  vertex 0.288203 0 0.0557113
  vertex 0.28702 -3.61068e-17 0.0542035
 endloop
endfacet
facet normal -3.001235e-14 -1 4.7494032e-14
 outer loop
  vertex 0.288203 0 0.0557113
  vertex 0.288084 0 0.0556361
  vertex 0.28702 -3.61068e-17 0.0542035
 endloop
endfacet
facet normal -3.328447e-14 -1 4.992426e-14
 outer loop
  vertex 0.28702 -3.61068e-17 0.0542035
  vertex 0.288084 0 0.0556361
  vertex 0.28797 0 0.0555601
 endloop
endfacet
facet normal -6.1520206e-14 -1 -4.2404028e-14
 outer loop
  vertex 0.276237 0 0.05524
  vertex 0.276819 -3.76353e-17 0.0552832
  vertex -0.366268 -5.55112e-17 0.988702
 endloop
endfacet
facet normal -3.4615325e-17 -1 -4.2999525e-17
 outer loop
  vertex 0.276819 -3.76353e-17 0.0552832
  vertex 0.277401 -3.76576e-17 0.0553333
  vertex -0.366268 -5.55112e-17 0.988702
 endloop
endfacet
facet normal 6.058415e-14 -1 4.1760866e-14
 outer loop
  vertex -0.366268 -5.55112e-17 0.988702
  vertex 0.277401 -3.76576e-17 0.0553333
  vertex 0.277983 0 0.0553907
 endloop
endfacet
facet normal -1.2138795e-13 -1 9.4053624e-14
 outer loop
  vertex 0.287319 0 0.0549733
  vertex 0.287288 0 0.0549333
  vertex 0.28702 -3.61068e-17 0.0542035
 endloop
endfacet
facet normal -1.3900973e-13 -1 1.0052507e-13
 outer loop
  vertex 0.287288 0 0.0549333
  vertex 0.287259 0 0.0548932
  vertex 0.28702 -3.61068e-17 0.0542035
 endloop
endfacet
facet normal -1.6019067e-13 -1 1.0786529e-13
 outer loop
  vertex 0.28702 -3.61068e-17 0.0542035
  vertex 0.287259 0 0.0548932
  vertex 0.287232 0 0.0548531
 endloop
endfacet
facet normal -3.8097228e-14 -1 5.329456e-14
 outer loop
  vertex 0.28797 0 0.0555601
  vertex 0.287863 0 0.0554836
  vertex 0.28702 -3.61068e-17 0.0542035
 endloop
endfacet
facet normal -4.257481e-14 -1 5.6243205e-14
 outer loop
  vertex 0.287863 0 0.0554836
  vertex 0.287761 0 0.0554064
  vertex 0.28702 -3.61068e-17 0.0542035
 endloop
endfacet
facet normal -5.042119e-14 -1 6.10767e-14
 outer loop
  vertex 0.28702 -3.61068e-17 0.0542035
  vertex 0.287761 0 0.0554064
  vertex 0.287667 0 0.0553288
 endloop
endfacet
facet normal -6.3197115e-14 -1 -4.3683515e-14
 outer loop
  vertex 0.277983 0 0.0553907
  vertex 0.278537 -3.77105e-17 0.0554525
  vertex -0.366268 -5.55112e-17 0.988702
 endloop
endfacet
facet normal -4.8913575e-17 -1 -5.2869477e-17
 outer loop
  vertex 0.278537 -3.77105e-17 0.0554525
  vertex 0.27909 -3.77412e-17 0.0555216
  vertex -0.366268 -5.55112e-17 0.988702
 endloop
endfacet
facet normal 6.238024e-14 -1 4.3121153e-14
 outer loop
  vertex -0.366268 -5.55112e-17 0.988702
  vertex 0.27909 -3.77412e-17 0.0555216
  vertex 0.279642 0 0.0555983
 endloop
endfacet
facet normal -5.695382e-14 -1 6.483272e-14
 outer loop
  vertex 0.287667 0 0.0553288
  vertex 0.287578 0 0.0552506
  vertex 0.28702 -3.61068e-17 0.0542035
 endloop
endfacet
facet normal -6.776447e-14 -1 7.059361e-14
 outer loop
  vertex 0.287578 0 0.0552506
  vertex 0.287496 0 0.0551719
  vertex 0.28702 -3.61068e-17 0.0542035
 endloop
endfacet
facet normal -7.515469e-14 -1 7.422616e-14
 outer loop
  vertex 0.28702 -3.61068e-17 0.0542035
  vertex 0.287496 0 0.0551719
  vertex 0.287457 0 0.0551324
 endloop
endfacet
facet normal -1.8901147e-13 -1 1.1727167e-13
 outer loop
  vertex 0.287232 0 0.0548531
  vertex 0.287207 0 0.0548128
  vertex 0.28702 -3.61068e-17 0.0542035
 endloop
endfacet
facet normal -2.0496544e-13 -1 1.2216835e-13
 outer loop
  vertex 0.287207 0 0.0548128
  vertex 0.287183 0 0.0547725
  vertex 0.28702 -3.61068e-17 0.0542035
 endloop
endfacet
facet normal -2.2366416e-13 -1 1.2752455e-13
 outer loop
  vertex 0.28702 -3.61068e-17 0.0542035
  vertex 0.287183 0 0.0547725
  vertex 0.28716 0 0.0547322
 endloop
endfacet
facet normal -6.5228144e-14 -1 -4.5211505e-14
 outer loop
  vertex 0.279642 0 0.0555983
  vertex 0.280166 -3.78109e-17 0.0556786
  vertex -0.366268 -5.55112e-17 0.988702
 endloop
endfacet
facet normal 6.497276e-14 -1 4.4996623e-14
 outer loop
  vertex 0.280166 -3.78109e-17 0.0556786
  vertex 0.280687 0 0.0557666
  vertex -0.366268 -5.55112e-17 0.988702
 endloop
endfacet
facet normal -6.784966e-14 -1 -4.711065e-14
 outer loop
  vertex -0.366268 -5.55112e-17 0.988702
  vertex 0.280687 0 0.0557666
  vertex 0.281182 -3.78906e-17 0.055858
 endloop
endfacet
facet normal -2.6893307e-13 -1 1.3951274e-13
 outer loop
  vertex 0.28716 0 0.0547322
  vertex 0.287139 0 0.0546917
  vertex 0.28702 -3.61068e-17 0.0542035
 endloop
endfacet
facet normal -3.2868418e-13 -1 1.5407733e-13
 outer loop
  vertex 0.287139 0 0.0546917
  vertex 0.28712 0 0.0546512
  vertex 0.28702 -3.61068e-17 0.0542035
 endloop
endfacet
facet normal -4.0988269e-13 -1 1.7221707e-13
 outer loop
  vertex 0.28702 -3.61068e-17 0.0542035
  vertex 0.28712 0 0.0546512
  vertex 0.287103 0 0.0546107
 endloop
endfacet
facet normal 6.740662e-14 -1 4.6765367e-14
 outer loop
  vertex 0.281182 -3.78906e-17 0.055858
  vertex 0.281675 0 0.0559576
  vertex -0.366268 -5.55112e-17 0.988702
 endloop
endfacet
facet normal -7.128406e-14 -1 -4.9577912e-14
 outer loop
  vertex 0.281675 0 0.0559576
  vertex 0.282137 -3.798e-17 0.0560594
  vertex -0.366268 -5.55112e-17 0.988702
 endloop
endfacet
facet normal 7.0762806e-14 -1 4.9177923e-14
 outer loop
  vertex -0.366268 -5.55112e-17 0.988702
  vertex 0.282137 -3.798e-17 0.0560594
  vertex 0.282597 0 0.0561698
 endloop
endfacet
facet normal -4.657788e-13 -1 1.8361036e-13
 outer loop
  vertex 0.287103 0 0.0546107
  vertex 0.287087 0 0.0545701
  vertex 0.28702 -3.61068e-17 0.0542035
 endloop
endfacet
facet normal -6.0707277e-13 -1 2.0943148e-13
 outer loop
  vertex 0.287087 0 0.0545701
  vertex 0.287073 0 0.0545295
  vertex 0.28702 -3.61068e-17 0.0542035
 endloop
endfacet
facet normal -8.4015477e-13 -1 2.4731698e-13
 outer loop
  vertex 0.28702 -3.61068e-17 0.0542035
  vertex 0.287073 0 0.0545295
  vertex 0.287061 0 0.0544888
 endloop
endfacet
facet normal -1.0006838e-12 -1 2.7039072e-13
 outer loop
  vertex 0.287061 0 0.0544888
  vertex 0.28705 0 0.0544481
  vertex 0.28702 -3.61068e-17 0.0542035
 endloop
endfacet
facet normal -1.4996674e-12 -1 3.3161234e-13
 outer loop
  vertex 0.28705 0 0.0544481
  vertex 0.287041 0 0.0544074
  vertex 0.28702 -3.61068e-17 0.0542035
 endloop
endfacet
facet normal -1.885131e-12 -1 3.7133198e-13
 outer loop
  vertex 0.28702 -3.61068e-17 0.0542035
  vertex 0.287041 0 0.0544074
  vertex 0.287033 0 0.0543667
 endloop
endfacet
facet normal -7.546132e-14 -1 -5.256625e-14
 outer loop
  vertex 0.282597 0 0.0561698
  vertex 0.283024 -3.80785e-17 0.0562812
  vertex -0.366268 -5.55112e-17 0.988702
 endloop
endfacet
facet normal 7.497589e-14 -1 5.2190823e-14
 outer loop
  vertex 0.283024 -3.80785e-17 0.0562812
  vertex 0.283448 0 0.0564017
  vertex -0.366268 -5.55112e-17 0.988702
 endloop
endfacet
facet normal 1.5161832e-17 -1 -4.8975968e-17
 outer loop
  vertex -0.366268 -5.55112e-17 0.988702
  vertex 0.283448 0 0.0564017
  vertex 0.283845 0 0.0565246
 endloop
endfacet
facet normal -3.2920728e-12 -1 4.8335034e-13
 outer loop
  vertex 0.287033 0 0.0543667
  vertex 0.287027 0 0.0543259
  vertex 0.28702 -3.61068e-17 0.0542035
 endloop
endfacet
facet normal -7.254218e-12 -1 7.10055e-13
 outer loop
  vertex 0.287027 0 0.0543259
  vertex 0.287023 0 0.0542851
  vertex 0.28702 -3.61068e-17 0.0542035
 endloop
endfacet
facet normal -3.6720238e-11 -1 1.796955e-12
 outer loop
  vertex 0.28702 -3.61068e-17 0.0542035
  vertex 0.287023 0 0.0542851
  vertex 0.287021 0 0.0542443
 endloop
endfacet
facet normal 1.6290009e-17 -1 -4.818917e-17
 outer loop
  vertex 0.283845 0 0.0565246
  vertex 0.284221 0 0.0566517
  vertex -0.366268 -5.55112e-17 0.988702
 endloop
endfacet
facet normal 1.7468577e-17 -1 -4.7366632e-17
 outer loop
  vertex 0.284221 0 0.0566517
  vertex 0.284577 0 0.056783
  vertex -0.366268 -5.55112e-17 0.988702
 endloop
endfacet
facet normal 1.8776423e-17 -1 -4.6453242e-17
 outer loop
  vertex -0.366268 -5.55112e-17 0.988702
  vertex 0.284577 0 0.056783
  vertex 0.284911 0 0.056918
 endloop
endfacet
facet normal 2.020652e-17 -1 -4.5453816e-17
 outer loop
  vertex 0.284911 0 0.056918
  vertex 0.285223 0 0.0570567
  vertex -0.366268 -5.55112e-17 0.988702
 endloop
endfacet
facet normal -9.784983e-14 -1 -6.848507e-14
 outer loop
  vertex 0.285223 0 0.0570567
  vertex 0.285513 -3.8102e-17 0.0571987
  vertex -0.366268 -5.55112e-17 0.988702
 endloop
endfacet
facet normal -2.6124945e-16 -1 -2.0148786e-16
 outer loop
  vertex -0.366268 -5.55112e-17 0.988702
  vertex 0.285513 -3.8102e-17 0.0571987
  vertex 0.366268 -6.75955e-17 0.0988702
 endloop
endfacet
endsolid 
