solid hedge
facet normal 0.000000 -0.707107 -0.707107
outer loop
vertex 0.211157 0.055118 0.044958
vertex 0.366268 0.055118 0.044958
vertex 0.366268 0.050038 0.050038
endloop
endfacet
facet normal 0.000000 -0.707107 -0.707107
outer loop
vertex 0.366268 0.044958 0.055118
vertex 0.211157 0.044958 0.055118
vertex 0.366268 0.050038 0.050038
endloop
endfacet
facet normal 0.000000 -0.707107 -0.707107
outer loop
vertex 0.211157 0.044958 0.055118
vertex 0.185359 0.050038 0.050038
vertex 0.366268 0.050038 0.050038
endloop
endfacet
facet normal 0.000000 -0.707107 -0.707107
outer loop
vertex 0.366268 0.050038 0.050038
vertex 0.185359 0.050038 0.050038
vertex 0.211157 0.055118 0.044958
endloop
endfacet
facet normal -0.235379 0.864026 0.445034
outer loop
vertex 0.288599 -0.000000 0.055933
vertex 0.366268 0.021160 0.055933
vertex 0.288461 0.000000 0.055860
endloop
endfacet
facet normal -0.235387 0.864029 0.445025
outer loop
vertex 0.366268 0.021160 0.055933
vertex 0.366268 0.021197 0.055860
vertex 0.288461 0.000000 0.055860
endloop
endfacet
facet normal -0.237940 0.873366 0.424989
outer loop
vertex 0.288461 0.000000 0.055860
vertex 0.366268 0.021197 0.055860
vertex 0.288329 0.000000 0.055786
endloop
endfacet
facet normal -0.237997 0.873630 0.424415
outer loop
vertex 0.366268 0.021197 0.055860
vertex 0.366268 0.021233 0.055786
vertex 0.288329 0.000000 0.055786
endloop
endfacet
facet normal -0.240260 0.881833 0.405765
outer loop
vertex 0.288329 0.000000 0.055786
vertex 0.366268 0.021233 0.055786
vertex 0.288203 0.000000 0.055711
endloop
endfacet
facet normal -0.240258 0.881955 0.405502
outer loop
vertex 0.366268 0.021233 0.055786
vertex 0.366268 0.021268 0.055711
vertex 0.288203 0.000000 0.055711
endloop
endfacet
facet normal -0.242698 0.890839 0.384063
outer loop
vertex 0.288203 0.000000 0.055711
vertex 0.366268 0.021268 0.055711
vertex 0.288084 0.000000 0.055636
endloop
endfacet
facet normal -0.242483 0.890112 0.385879
outer loop
vertex 0.366268 0.021268 0.055711
vertex 0.366268 0.021300 0.055636
vertex 0.288084 0.000000 0.055636
endloop
endfacet
facet normal -0.244546 0.897590 0.366784
outer loop
vertex 0.288084 0.000000 0.055636
vertex 0.366268 0.021300 0.055636
vertex 0.287970 0.000000 0.055560
endloop
endfacet
facet normal -0.244600 0.897807 0.366215
outer loop
vertex 0.366268 0.021300 0.055636
vertex 0.366268 0.021331 0.055560
vertex 0.287970 0.000000 0.055560
endloop
endfacet
facet normal -0.246708 0.905552 0.345123
outer loop
vertex 0.287970 0.000000 0.055560
vertex 0.366268 0.021331 0.055560
vertex 0.287863 0.000000 0.055484
endloop
endfacet
facet normal -0.246578 0.905020 0.346610
outer loop
vertex 0.366268 0.021331 0.055560
vertex 0.366268 0.021360 0.055484
vertex 0.287863 0.000000 0.055484
endloop
endfacet
facet normal -0.248298 0.911453 0.328026
outer loop
vertex 0.287863 0.000000 0.055484
vertex 0.366268 0.021360 0.055484
vertex 0.287761 0.000000 0.055406
endloop
endfacet
facet normal -0.248562 0.912448 0.325048
outer loop
vertex 0.366268 0.021360 0.055484
vertex 0.366268 0.021388 0.055406
vertex 0.287761 0.000000 0.055406
endloop
endfacet
facet normal -0.250458 0.919360 0.303393
outer loop
vertex 0.287761 0.000000 0.055406
vertex 0.366268 0.021388 0.055406
vertex 0.287667 0.000000 0.055329
endloop
endfacet
facet normal -0.250210 0.918387 0.306530
outer loop
vertex 0.366268 0.021388 0.055406
vertex 0.366268 0.021414 0.055329
vertex 0.287667 0.000000 0.055329
endloop
endfacet
facet normal -0.251816 0.924347 0.286654
outer loop
vertex 0.287667 0.000000 0.055329
vertex 0.366268 0.021414 0.055329
vertex 0.287578 0.000000 0.055251
endloop
endfacet
facet normal -0.251939 0.924818 0.285024
outer loop
vertex 0.366268 0.021414 0.055329
vertex 0.366268 0.021438 0.055251
vertex 0.287578 0.000000 0.055251
endloop
endfacet
facet normal -0.253543 0.930571 0.264108
outer loop
vertex 0.287578 0.000000 0.055251
vertex 0.366268 0.021438 0.055251
vertex 0.287496 0.000000 0.055172
endloop
endfacet
facet normal -0.253554 0.930682 0.263708
outer loop
vertex 0.366268 0.021438 0.055251
vertex 0.366268 0.021460 0.055172
vertex 0.287496 0.000000 0.055172
endloop
endfacet
facet normal -0.254442 0.933877 0.251263
outer loop
vertex 0.287496 0.000000 0.055172
vertex 0.366268 0.021460 0.055172
vertex 0.287457 0.000000 0.055132
endloop
endfacet
facet normal -0.254932 0.935821 0.243412
outer loop
vertex 0.366268 0.021460 0.055172
vertex 0.366268 0.021481 0.055093
vertex 0.287457 0.000000 0.055132
endloop
endfacet
facet normal -0.255263 0.937163 0.237837
outer loop
vertex 0.287457 0.000000 0.055132
vertex 0.366268 0.021481 0.055093
vertex 0.287420 0.000000 0.055093
endloop
endfacet
facet normal -0.258250 0.947862 0.186719
outer loop
vertex 0.287259 0.000000 0.054893
vertex 0.287288 0.000000 0.054933
vertex 0.366268 0.021517 0.054933
endloop
endfacet
facet normal -0.257581 0.945421 0.199578
outer loop
vertex 0.287288 0.000000 0.054933
vertex 0.287319 0.000000 0.054973
vertex 0.366268 0.021517 0.054933
endloop
endfacet
facet normal -0.257390 0.944908 0.202233
outer loop
vertex 0.366268 0.021517 0.054933
vertex 0.287319 0.000000 0.054973
vertex 0.366268 0.021500 0.055013
endloop
endfacet
facet normal -0.257186 0.944078 0.206328
outer loop
vertex 0.287319 0.000000 0.054973
vertex 0.287351 0.000000 0.055013
vertex 0.366268 0.021500 0.055013
endloop
endfacet
facet normal -0.256226 0.940404 0.223579
outer loop
vertex 0.366268 0.021500 0.055013
vertex 0.287351 0.000000 0.055013
vertex 0.366268 0.021481 0.055093
endloop
endfacet
facet normal -0.256472 0.941431 0.218930
outer loop
vertex 0.287351 0.000000 0.055013
vertex 0.287385 0.000000 0.055053
vertex 0.366268 0.021481 0.055093
endloop
endfacet
facet normal -0.256079 0.939903 0.225843
outer loop
vertex 0.366268 0.021481 0.055093
vertex 0.287385 0.000000 0.055053
vertex 0.287420 0.000000 0.055093
endloop
endfacet
facet normal -0.258843 0.950064 0.174296
outer loop
vertex 0.287259 0.000000 0.054893
vertex 0.366268 0.021517 0.054933
vertex 0.287232 0.000000 0.054853
endloop
endfacet
facet normal -0.258489 0.948901 0.181023
outer loop
vertex 0.366268 0.021517 0.054933
vertex 0.366268 0.021532 0.054853
vertex 0.287232 0.000000 0.054853
endloop
endfacet
facet normal -0.259430 0.952253 0.160969
outer loop
vertex 0.287232 0.000000 0.054853
vertex 0.366268 0.021532 0.054853
vertex 0.287207 0.000000 0.054813
endloop
endfacet
facet normal -0.259511 0.952470 0.159545
outer loop
vertex 0.366268 0.021532 0.054853
vertex 0.366268 0.021546 0.054772
vertex 0.287207 0.000000 0.054813
endloop
endfacet
facet normal -0.259670 0.953215 0.154765
outer loop
vertex 0.287207 0.000000 0.054813
vertex 0.366268 0.021546 0.054772
vertex 0.287183 0.000000 0.054772
endloop
endfacet
facet normal -0.261478 0.959691 0.103069
outer loop
vertex 0.287087 0.000000 0.054570
vertex 0.287103 0.000000 0.054611
vertex 0.366268 0.021567 0.054611
endloop
endfacet
facet normal -0.261287 0.958997 0.109786
outer loop
vertex 0.287103 0.000000 0.054611
vertex 0.287120 0.000000 0.054651
vertex 0.366268 0.021567 0.054611
endloop
endfacet
facet normal -0.261029 0.958057 0.118284
outer loop
vertex 0.366268 0.021567 0.054611
vertex 0.287120 0.000000 0.054651
vertex 0.366268 0.021557 0.054692
endloop
endfacet
facet normal -0.260842 0.957606 0.122280
outer loop
vertex 0.287120 0.000000 0.054651
vertex 0.287139 0.000000 0.054692
vertex 0.366268 0.021557 0.054692
endloop
endfacet
facet normal -0.260316 0.955557 0.138370
outer loop
vertex 0.366268 0.021557 0.054692
vertex 0.287139 0.000000 0.054692
vertex 0.366268 0.021546 0.054772
endloop
endfacet
facet normal -0.260446 0.955991 0.135087
outer loop
vertex 0.287139 0.000000 0.054692
vertex 0.287160 0.000000 0.054732
vertex 0.366268 0.021546 0.054772
endloop
endfacet
facet normal -0.259933 0.954182 0.148230
outer loop
vertex 0.366268 0.021546 0.054772
vertex 0.287160 0.000000 0.054732
vertex 0.287183 0.000000 0.054772
endloop
endfacet
facet normal -0.261710 0.960912 0.090311
outer loop
vertex 0.287087 0.000000 0.054570
vertex 0.366268 0.021567 0.054611
vertex 0.287073 0.000000 0.054529
endloop
endfacet
facet normal -0.261663 0.960395 0.095781
outer loop
vertex 0.366268 0.021567 0.054611
vertex 0.366268 0.021575 0.054529
vertex 0.287073 0.000000 0.054529
endloop
endfacet
facet normal -0.262111 0.961950 0.077132
outer loop
vertex 0.287073 0.000000 0.054529
vertex 0.366268 0.021575 0.054529
vertex 0.287061 0.000000 0.054489
endloop
endfacet
facet normal -0.262071 0.962079 0.075654
outer loop
vertex 0.366268 0.021575 0.054529
vertex 0.366268 0.021582 0.054448
vertex 0.287061 0.000000 0.054489
endloop
endfacet
facet normal -0.262227 0.962401 0.070856
outer loop
vertex 0.287061 0.000000 0.054489
vertex 0.366268 0.021582 0.054448
vertex 0.287050 0.000000 0.054448
endloop
endfacet
facet normal -0.262845 0.964779 0.010646
outer loop
vertex 0.366268 0.021590 0.054203
vertex 0.287020 -0.000000 0.054203
vertex 0.366268 0.021589 0.054285
endloop
endfacet
facet normal -0.262904 0.964800 0.006531
outer loop
vertex 0.287020 -0.000000 0.054203
vertex 0.287021 0.000000 0.054244
vertex 0.366268 0.021589 0.054285
endloop
endfacet
facet normal -0.262804 0.964764 0.012852
outer loop
vertex 0.287021 0.000000 0.054244
vertex 0.287023 0.000000 0.054285
vertex 0.366268 0.021589 0.054285
endloop
endfacet
facet normal -0.262761 0.964518 0.025734
outer loop
vertex 0.287023 0.000000 0.054285
vertex 0.287027 0.000000 0.054326
vertex 0.366268 0.021589 0.054285
endloop
endfacet
facet normal -0.262694 0.964351 0.031912
outer loop
vertex 0.366268 0.021589 0.054285
vertex 0.287027 0.000000 0.054326
vertex 0.366268 0.021586 0.054367
endloop
endfacet
facet normal -0.262683 0.964111 0.038573
outer loop
vertex 0.287027 0.000000 0.054326
vertex 0.287033 0.000000 0.054367
vertex 0.366268 0.021586 0.054367
endloop
endfacet
facet normal -0.262483 0.963465 0.053265
outer loop
vertex 0.366268 0.021586 0.054367
vertex 0.287033 0.000000 0.054367
vertex 0.366268 0.021582 0.054448
endloop
endfacet
facet normal -0.262469 0.963555 0.051700
outer loop
vertex 0.287033 0.000000 0.054367
vertex 0.287041 0.000000 0.054407
vertex 0.366268 0.021582 0.054448
endloop
endfacet
facet normal -0.262423 0.963208 0.058007
outer loop
vertex 0.366268 0.021582 0.054448
vertex 0.287041 0.000000 0.054407
vertex 0.287050 0.000000 0.054448
endloop
endfacet
facet normal 0.151112 -0.554603 -0.818279
outer loop
vertex 0.280687 0.000000 0.055767
vertex 0.366268 0.023179 0.055859
vertex 0.281182 -0.000000 0.055858
endloop
endfacet
facet normal 0.160187 -0.588019 -0.792826
outer loop
vertex 0.366268 0.023179 0.055859
vertex 0.366268 0.023046 0.055958
vertex 0.281182 -0.000000 0.055858
endloop
endfacet
facet normal 0.160185 -0.587947 -0.792880
outer loop
vertex 0.281182 -0.000000 0.055858
vertex 0.366268 0.023046 0.055958
vertex 0.281675 0.000000 0.055958
endloop
endfacet
facet normal 0.168922 -0.620023 -0.766183
outer loop
vertex 0.366268 0.023046 0.055958
vertex 0.366268 0.022918 0.056061
vertex 0.281675 0.000000 0.055958
endloop
endfacet
facet normal 0.168855 -0.619833 -0.766352
outer loop
vertex 0.281675 0.000000 0.055958
vertex 0.366268 0.022918 0.056061
vertex 0.282137 -0.000000 0.056059
endloop
endfacet
facet normal 0.177296 -0.650821 -0.738240
outer loop
vertex 0.366268 0.022918 0.056061
vertex 0.366268 0.022795 0.056170
vertex 0.282137 -0.000000 0.056059
endloop
endfacet
facet normal 0.177243 -0.650554 -0.738488
outer loop
vertex 0.282137 -0.000000 0.056059
vertex 0.366268 0.022795 0.056170
vertex 0.282597 0.000000 0.056170
endloop
endfacet
facet normal 0.185272 -0.680042 -0.709378
outer loop
vertex 0.366268 0.022795 0.056170
vertex 0.366268 0.022676 0.056283
vertex 0.282597 0.000000 0.056170
endloop
endfacet
facet normal 0.185171 -0.679673 -0.709758
outer loop
vertex 0.282597 0.000000 0.056170
vertex 0.366268 0.022676 0.056283
vertex 0.283024 -0.000000 0.056281
endloop
endfacet
facet normal 0.193039 -0.708623 -0.678667
outer loop
vertex 0.366268 0.022676 0.056283
vertex 0.366268 0.022563 0.056402
vertex 0.283024 -0.000000 0.056281
endloop
endfacet
facet normal 0.192967 -0.708314 -0.679010
outer loop
vertex 0.283024 -0.000000 0.056281
vertex 0.366268 0.022563 0.056402
vertex 0.283448 0.000000 0.056402
endloop
endfacet
facet normal 0.200414 -0.735641 -0.647045
outer loop
vertex 0.366268 0.022563 0.056402
vertex 0.366268 0.022455 0.056525
vertex 0.283448 0.000000 0.056402
endloop
endfacet
facet normal 0.200370 -0.735477 -0.647244
outer loop
vertex 0.283448 0.000000 0.056402
vertex 0.366268 0.022455 0.056525
vertex 0.283845 0.000000 0.056525
endloop
endfacet
facet normal 0.207378 -0.761196 -0.614472
outer loop
vertex 0.366268 0.022455 0.056525
vertex 0.366268 0.022352 0.056652
vertex 0.283845 0.000000 0.056525
endloop
endfacet
facet normal 0.207506 -0.761667 -0.613844
outer loop
vertex 0.283845 0.000000 0.056525
vertex 0.366268 0.022352 0.056652
vertex 0.284221 0.000000 0.056652
endloop
endfacet
facet normal 0.214135 -0.785941 -0.580037
outer loop
vertex 0.366268 0.022352 0.056652
vertex 0.366268 0.022256 0.056783
vertex 0.284221 0.000000 0.056652
endloop
endfacet
facet normal 0.214044 -0.785691 -0.580410
outer loop
vertex 0.284221 0.000000 0.056652
vertex 0.366268 0.022256 0.056783
vertex 0.284577 0.000000 0.056783
endloop
endfacet
facet normal 0.220293 -0.808561 -0.545620
outer loop
vertex 0.366268 0.022256 0.056783
vertex 0.366268 0.022164 0.056918
vertex 0.284577 0.000000 0.056783
endloop
endfacet
facet normal 0.220349 -0.808847 -0.545172
outer loop
vertex 0.284577 0.000000 0.056783
vertex 0.366268 0.022164 0.056918
vertex 0.284911 0.000000 0.056918
endloop
endfacet
facet normal 0.226183 -0.830270 -0.509405
outer loop
vertex 0.366268 0.022164 0.056918
vertex 0.366268 0.022079 0.057057
vertex 0.284911 0.000000 0.056918
endloop
endfacet
facet normal 0.226261 -0.830515 -0.508971
outer loop
vertex 0.284911 0.000000 0.056918
vertex 0.366268 0.022079 0.057057
vertex 0.285223 0.000000 0.057057
endloop
endfacet
facet normal 0.231664 -0.850345 -0.472488
outer loop
vertex 0.366268 0.022079 0.057057
vertex 0.366268 0.022000 0.057199
vertex 0.285223 0.000000 0.057057
endloop
endfacet
facet normal 0.231597 -0.850090 -0.472981
outer loop
vertex 0.285223 0.000000 0.057057
vertex 0.366268 0.022000 0.057199
vertex 0.285513 -0.000000 0.057199
endloop
endfacet
facet normal 0.005568 -0.020428 -0.999776
outer loop
vertex 0.272598 -0.000000 0.055118
vertex 0.366268 0.025519 0.055118
vertex 0.273209 -0.000000 0.055121
endloop
endfacet
facet normal 0.005557 -0.020362 -0.999777
outer loop
vertex 0.366268 0.025519 0.055118
vertex 0.366268 0.025352 0.055121
vertex 0.273209 -0.000000 0.055121
endloop
endfacet
facet normal 0.016624 -0.061055 -0.997996
outer loop
vertex 0.273209 -0.000000 0.055121
vertex 0.366268 0.025352 0.055121
vertex 0.273821 -0.000000 0.055132
endloop
endfacet
facet normal 0.016631 -0.061064 -0.997995
outer loop
vertex 0.366268 0.025352 0.055121
vertex 0.366268 0.025185 0.055132
vertex 0.273821 -0.000000 0.055132
endloop
endfacet
facet normal 0.027670 -0.101574 -0.994443
outer loop
vertex 0.273821 -0.000000 0.055132
vertex 0.366268 0.025185 0.055132
vertex 0.274432 0.000000 0.055149
endloop
endfacet
facet normal 0.027748 -0.101852 -0.994412
outer loop
vertex 0.366268 0.025185 0.055132
vertex 0.366268 0.025020 0.055149
vertex 0.274432 0.000000 0.055149
endloop
endfacet
facet normal 0.038773 -0.142318 -0.989061
outer loop
vertex 0.274432 0.000000 0.055149
vertex 0.366268 0.025020 0.055149
vertex 0.275034 -0.000000 0.055172
endloop
endfacet
facet normal 0.038823 -0.142472 -0.989037
outer loop
vertex 0.366268 0.025020 0.055149
vertex 0.366268 0.024854 0.055172
vertex 0.275034 -0.000000 0.055172
endloop
endfacet
facet normal 0.049669 -0.182315 -0.981985
outer loop
vertex 0.275034 -0.000000 0.055172
vertex 0.366268 0.024854 0.055172
vertex 0.275635 -0.000000 0.055203
endloop
endfacet
facet normal 0.049757 -0.182628 -0.981922
outer loop
vertex 0.366268 0.024854 0.055172
vertex 0.366268 0.024690 0.055203
vertex 0.275635 -0.000000 0.055203
endloop
endfacet
facet normal 0.060459 -0.221935 -0.973185
outer loop
vertex 0.275635 -0.000000 0.055203
vertex 0.366268 0.024690 0.055203
vertex 0.276237 0.000000 0.055240
endloop
endfacet
facet normal 0.060522 -0.222172 -0.973127
outer loop
vertex 0.366268 0.024690 0.055203
vertex 0.366268 0.024528 0.055240
vertex 0.276237 0.000000 0.055240
endloop
endfacet
facet normal 0.071437 -0.262202 -0.962365
outer loop
vertex 0.276237 0.000000 0.055240
vertex 0.366268 0.024528 0.055240
vertex 0.276819 -0.000000 0.055283
endloop
endfacet
facet normal 0.071469 -0.262282 -0.962341
outer loop
vertex 0.366268 0.024528 0.055240
vertex 0.366268 0.024367 0.055284
vertex 0.276819 -0.000000 0.055283
endloop
endfacet
facet normal 0.081801 -0.300285 -0.950336
outer loop
vertex 0.276819 -0.000000 0.055283
vertex 0.366268 0.024367 0.055284
vertex 0.277401 -0.000000 0.055333
endloop
endfacet
facet normal 0.081889 -0.300593 -0.950231
outer loop
vertex 0.366268 0.024367 0.055284
vertex 0.366268 0.024208 0.055334
vertex 0.277401 -0.000000 0.055333
endloop
endfacet
facet normal 0.092336 -0.338935 -0.936268
outer loop
vertex 0.277401 -0.000000 0.055333
vertex 0.366268 0.024208 0.055334
vertex 0.277983 0.000000 0.055391
endloop
endfacet
facet normal 0.092504 -0.339551 -0.936028
outer loop
vertex 0.366268 0.024208 0.055334
vertex 0.366268 0.024052 0.055391
vertex 0.277983 0.000000 0.055391
endloop
endfacet
facet normal 0.102686 -0.376916 -0.920538
outer loop
vertex 0.277983 0.000000 0.055391
vertex 0.366268 0.024052 0.055391
vertex 0.278537 -0.000000 0.055452
endloop
endfacet
facet normal 0.102776 -0.377252 -0.920390
outer loop
vertex 0.366268 0.024052 0.055391
vertex 0.366268 0.023898 0.055454
vertex 0.278537 -0.000000 0.055452
endloop
endfacet
facet normal 0.112845 -0.414247 -0.903142
outer loop
vertex 0.278537 -0.000000 0.055452
vertex 0.366268 0.023898 0.055454
vertex 0.279090 -0.000000 0.055522
endloop
endfacet
facet normal 0.113046 -0.414902 -0.902816
outer loop
vertex 0.366268 0.023898 0.055454
vertex 0.366268 0.023748 0.055523
vertex 0.279090 -0.000000 0.055522
endloop
endfacet
facet normal 0.122827 -0.450907 -0.884079
outer loop
vertex 0.279090 -0.000000 0.055522
vertex 0.366268 0.023748 0.055523
vertex 0.279642 0.000000 0.055598
endloop
endfacet
facet normal 0.122810 -0.450753 -0.884160
outer loop
vertex 0.366268 0.023748 0.055523
vertex 0.366268 0.023600 0.055598
vertex 0.279642 0.000000 0.055598
endloop
endfacet
facet normal 0.132381 -0.485926 -0.863916
outer loop
vertex 0.279642 0.000000 0.055598
vertex 0.366268 0.023600 0.055598
vertex 0.280166 -0.000000 0.055679
endloop
endfacet
facet normal 0.132620 -0.486786 -0.863395
outer loop
vertex 0.366268 0.023600 0.055598
vertex 0.366268 0.023456 0.055680
vertex 0.280166 -0.000000 0.055679
endloop
endfacet
facet normal 0.142109 -0.521595 -0.841275
outer loop
vertex 0.280166 -0.000000 0.055679
vertex 0.366268 0.023456 0.055680
vertex 0.280687 0.000000 0.055767
endloop
endfacet
facet normal 0.141957 -0.521131 -0.841588
outer loop
vertex 0.366268 0.023456 0.055680
vertex 0.366268 0.023315 0.055767
vertex 0.280687 0.000000 0.055767
endloop
endfacet
facet normal 0.151325 -0.555475 -0.817648
outer loop
vertex 0.280687 0.000000 0.055767
vertex 0.366268 0.023315 0.055767
vertex 0.366268 0.023179 0.055859
endloop
endfacet
facet normal 0.234219 -0.859723 -0.453892
outer loop
vertex 0.285513 -0.000000 0.057199
vertex 0.366268 0.022000 0.057199
vertex 0.366268 -0.000000 0.098870
endloop
endfacet
facet normal -0.234219 0.859723 0.453891
outer loop
vertex 0.366268 0.021160 0.055933
vertex 0.288599 -0.000000 0.055933
vertex 0.366268 -0.000000 0.096012
endloop
endfacet
facet normal -0.262856 0.964835 0.000000
outer loop
vertex 0.366268 0.021590 0.054203
vertex 0.366268 0.021590 0.050038
vertex 0.287020 -0.000000 0.054203
endloop
endfacet
facet normal -0.262855 0.964835 0.000000
outer loop
vertex 0.366268 0.021590 0.050038
vertex 0.287020 -0.000000 0.050001
vertex 0.287020 -0.000000 0.054203
endloop
endfacet
facet normal 0.193204 0.000000 -0.981159
outer loop
vertex 0.211157 0.044958 0.055118
vertex 0.211157 -0.000000 0.055118
vertex 0.185359 0.050038 0.050038
endloop
endfacet
facet normal 0.193204 -0.000000 -0.981159
outer loop
vertex 0.211157 -0.000000 0.055118
vertex 0.185166 -0.000000 0.050000
vertex 0.185359 0.050038 0.050038
endloop
endfacet
facet normal 0.193172 0.000000 -0.981165
outer loop
vertex 0.185359 0.050038 0.050038
vertex 0.185166 -0.000000 0.050000
vertex 0.185166 0.050000 0.050000
endloop
endfacet
facet normal 0.000000 0.000000 -1.000000
outer loop
vertex 0.366268 0.044958 0.055118
vertex 0.366268 0.025519 0.055118
vertex 0.211157 0.044958 0.055118
endloop
endfacet
facet normal 0.000000 0.000000 -1.000000
outer loop
vertex 0.366268 0.025519 0.055118
vertex 0.272598 -0.000000 0.055118
vertex 0.211157 0.044958 0.055118
endloop
endfacet
facet normal 0.000000 0.000000 -1.000000
outer loop
vertex 0.211157 0.044958 0.055118
vertex 0.272598 -0.000000 0.055118
vertex 0.211157 -0.000000 0.055118
endloop
endfacet
facet normal 0.005565 -0.999776 -0.020429
outer loop
vertex 0.366268 0.055118 0.025519
vertex 0.272598 0.055118 0.000000
vertex 0.273209 0.055121 0.000000
endloop
endfacet
facet normal 0.005548 -0.999777 -0.020372
outer loop
vertex 0.366268 0.055118 0.025519
vertex 0.273209 0.055121 0.000000
vertex 0.366268 0.055121 0.025352
endloop
endfacet
facet normal 0.016631 -0.998001 -0.060975
outer loop
vertex 0.273209 0.055121 0.000000
vertex 0.273821 0.055132 0.000000
vertex 0.366268 0.055121 0.025352
endloop
endfacet
facet normal 0.016635 -0.997993 -0.061093
outer loop
vertex 0.366268 0.055121 0.025352
vertex 0.273821 0.055132 0.000000
vertex 0.366268 0.055132 0.025185
endloop
endfacet
facet normal 0.027677 -0.994439 -0.101611
outer loop
vertex 0.273821 0.055132 0.000000
vertex 0.274432 0.055149 -0.000000
vertex 0.366268 0.055132 0.025185
endloop
endfacet
facet normal 0.027746 -0.994417 -0.101811
outer loop
vertex 0.366268 0.055132 0.025185
vertex 0.274432 0.055149 -0.000000
vertex 0.366268 0.055149 0.025020
endloop
endfacet
facet normal 0.038770 -0.989064 -0.142300
outer loop
vertex 0.274432 0.055149 -0.000000
vertex 0.275034 0.055172 0.000000
vertex 0.366268 0.055149 0.025020
endloop
endfacet
facet normal 0.038817 -0.989029 -0.142530
outer loop
vertex 0.366268 0.055149 0.025020
vertex 0.275034 0.055172 0.000000
vertex 0.366268 0.055172 0.024854
endloop
endfacet
facet normal 0.049666 -0.981996 -0.182257
outer loop
vertex 0.275034 0.055172 0.000000
vertex 0.275635 0.055203 0.000000
vertex 0.366268 0.055172 0.024854
endloop
endfacet
facet normal 0.049755 -0.981916 -0.182663
outer loop
vertex 0.366268 0.055172 0.024854
vertex 0.275635 0.055203 0.000000
vertex 0.366268 0.055203 0.024690
endloop
endfacet
facet normal 0.060463 -0.973194 -0.221896
outer loop
vertex 0.275635 0.055203 0.000000
vertex 0.276237 0.055240 -0.000000
vertex 0.366268 0.055203 0.024690
endloop
endfacet
facet normal 0.060525 -0.973137 -0.222130
outer loop
vertex 0.366268 0.055203 0.024690
vertex 0.276237 0.055240 -0.000000
vertex 0.366268 0.055240 0.024528
endloop
endfacet
facet normal 0.071438 -0.962344 -0.262280
outer loop
vertex 0.276237 0.055240 -0.000000
vertex 0.276819 0.055283 0.000000
vertex 0.366268 0.055240 0.024528
endloop
endfacet
facet normal 0.071449 -0.962343 -0.262281
outer loop
vertex 0.366268 0.055240 0.024528
vertex 0.276819 0.055283 0.000000
vertex 0.366268 0.055284 0.024367
endloop
endfacet
facet normal 0.081808 -0.950348 -0.300245
outer loop
vertex 0.276819 0.055283 0.000000
vertex 0.277401 0.055333 0.000000
vertex 0.366268 0.055284 0.024367
endloop
endfacet
facet normal 0.081893 -0.950235 -0.300576
outer loop
vertex 0.366268 0.055284 0.024367
vertex 0.277401 0.055333 0.000000
vertex 0.366268 0.055334 0.024208
endloop
endfacet
facet normal 0.092344 -0.936249 -0.338985
outer loop
vertex 0.277401 0.055333 0.000000
vertex 0.277983 0.055391 -0.000000
vertex 0.366268 0.055334 0.024208
endloop
endfacet
facet normal 0.092503 -0.936027 -0.339552
outer loop
vertex 0.366268 0.055334 0.024208
vertex 0.277983 0.055391 -0.000000
vertex 0.366268 0.055391 0.024052
endloop
endfacet
facet normal 0.102677 -0.920558 -0.376870
outer loop
vertex 0.277983 0.055391 -0.000000
vertex 0.278537 0.055452 0.000000
vertex 0.366268 0.055391 0.024052
endloop
endfacet
facet normal 0.102780 -0.920374 -0.377291
outer loop
vertex 0.366268 0.055391 0.024052
vertex 0.278537 0.055452 0.000000
vertex 0.366268 0.055454 0.023898
endloop
endfacet
facet normal 0.112864 -0.903143 -0.414240
outer loop
vertex 0.278537 0.055452 0.000000
vertex 0.279090 0.055522 0.000000
vertex 0.366268 0.055454 0.023898
endloop
endfacet
facet normal 0.113034 -0.902822 -0.414892
outer loop
vertex 0.366268 0.055454 0.023898
vertex 0.279090 0.055522 0.000000
vertex 0.366268 0.055523 0.023748
endloop
endfacet
facet normal 0.122837 -0.884083 -0.450897
outer loop
vertex 0.279090 0.055522 0.000000
vertex 0.279642 0.055598 -0.000000
vertex 0.366268 0.055523 0.023748
endloop
endfacet
facet normal 0.122802 -0.884155 -0.450766
outer loop
vertex 0.366268 0.055523 0.023748
vertex 0.279642 0.055598 -0.000000
vertex 0.366268 0.055598 0.023600
endloop
endfacet
facet normal 0.132388 -0.863900 -0.485952
outer loop
vertex 0.279642 0.055598 -0.000000
vertex 0.280166 0.055679 0.000000
vertex 0.366268 0.055598 0.023600
endloop
endfacet
facet normal 0.132624 -0.863397 -0.486782
outer loop
vertex 0.366268 0.055598 0.023600
vertex 0.280166 0.055679 0.000000
vertex 0.366268 0.055680 0.023456
endloop
endfacet
facet normal 0.142095 -0.841268 -0.521610
outer loop
vertex 0.280166 0.055679 0.000000
vertex 0.280687 0.055767 -0.000000
vertex 0.366268 0.055680 0.023456
endloop
endfacet
facet normal 0.141982 -0.841590 -0.521121
outer loop
vertex 0.366268 0.055680 0.023456
vertex 0.280687 0.055767 -0.000000
vertex 0.366268 0.055767 0.023315
endloop
endfacet
facet normal 0.151101 -0.818256 -0.554639
outer loop
vertex 0.280687 0.055767 -0.000000
vertex 0.281182 0.055858 0.000000
vertex 0.366268 0.055767 0.023315
endloop
endfacet
facet normal 0.151333 -0.817658 -0.555457
outer loop
vertex 0.366268 0.055767 0.023315
vertex 0.281182 0.055858 0.000000
vertex 0.366268 0.055859 0.023179
endloop
endfacet
facet normal 0.160169 -0.792893 -0.587934
outer loop
vertex 0.281182 0.055858 0.000000
vertex 0.281675 0.055958 -0.000000
vertex 0.366268 0.055859 0.023179
endloop
endfacet
facet normal 0.160202 -0.792836 -0.588002
outer loop
vertex 0.366268 0.055859 0.023179
vertex 0.281675 0.055958 -0.000000
vertex 0.366268 0.055958 0.023046
endloop
endfacet
facet normal 0.168860 -0.766296 -0.619901
outer loop
vertex 0.281675 0.055958 -0.000000
vertex 0.282137 0.056059 0.000000
vertex 0.366268 0.055958 0.023046
endloop
endfacet
facet normal 0.168919 -0.766213 -0.619987
outer loop
vertex 0.366268 0.055958 0.023046
vertex 0.282137 0.056059 0.000000
vertex 0.366268 0.056061 0.022918
endloop
endfacet
facet normal 0.177250 -0.738494 -0.650545
outer loop
vertex 0.282137 0.056059 0.000000
vertex 0.282597 0.056170 -0.000000
vertex 0.366268 0.056061 0.022918
endloop
endfacet
facet normal 0.177309 -0.738215 -0.650845
outer loop
vertex 0.366268 0.056061 0.022918
vertex 0.282597 0.056170 -0.000000
vertex 0.366268 0.056170 0.022795
endloop
endfacet
facet normal 0.185174 -0.709758 -0.679672
outer loop
vertex 0.282597 0.056170 -0.000000
vertex 0.283024 0.056281 0.000000
vertex 0.366268 0.056170 0.022795
endloop
endfacet
facet normal 0.185265 -0.709378 -0.680044
outer loop
vertex 0.366268 0.056170 0.022795
vertex 0.283024 0.056281 0.000000
vertex 0.366268 0.056283 0.022676
endloop
endfacet
facet normal 0.192973 -0.679027 -0.708296
outer loop
vertex 0.283024 0.056281 0.000000
vertex 0.283448 0.056402 -0.000000
vertex 0.366268 0.056283 0.022676
endloop
endfacet
facet normal 0.193050 -0.678691 -0.708597
outer loop
vertex 0.366268 0.056283 0.022676
vertex 0.283448 0.056402 -0.000000
vertex 0.366268 0.056402 0.022563
endloop
endfacet
facet normal 0.200373 -0.647177 -0.735536
outer loop
vertex 0.283448 0.056402 -0.000000
vertex 0.283845 0.056525 -0.000000
vertex 0.366268 0.056402 0.022563
endloop
endfacet
facet normal 0.200424 -0.647075 -0.735611
outer loop
vertex 0.366268 0.056402 0.022563
vertex 0.283845 0.056525 -0.000000
vertex 0.366268 0.056525 0.022455
endloop
endfacet
facet normal 0.207495 -0.613853 -0.761663
outer loop
vertex 0.283845 0.056525 -0.000000
vertex 0.284221 0.056652 -0.000000
vertex 0.366268 0.056525 0.022455
endloop
endfacet
facet normal 0.207376 -0.614483 -0.761187
outer loop
vertex 0.366268 0.056525 0.022455
vertex 0.284221 0.056652 -0.000000
vertex 0.366268 0.056652 0.022352
endloop
endfacet
facet normal 0.214040 -0.580461 -0.785654
outer loop
vertex 0.284221 0.056652 -0.000000
vertex 0.284577 0.056783 -0.000000
vertex 0.366268 0.056652 0.022352
endloop
endfacet
facet normal 0.214122 -0.580006 -0.785967
outer loop
vertex 0.366268 0.056652 0.022352
vertex 0.284577 0.056783 -0.000000
vertex 0.366268 0.056783 0.022256
endloop
endfacet
facet normal 0.220357 -0.545141 -0.808866
outer loop
vertex 0.284577 0.056783 -0.000000
vertex 0.284911 0.056918 -0.000000
vertex 0.366268 0.056783 0.022256
endloop
endfacet
facet normal 0.220284 -0.545623 -0.808561
outer loop
vertex 0.366268 0.056783 0.022256
vertex 0.284911 0.056918 -0.000000
vertex 0.366268 0.056918 0.022164
endloop
endfacet
facet normal 0.226260 -0.509014 -0.830489
outer loop
vertex 0.284911 0.056918 -0.000000
vertex 0.285223 0.057057 -0.000000
vertex 0.366268 0.056918 0.022164
endloop
endfacet
facet normal 0.226194 -0.509381 -0.830281
outer loop
vertex 0.366268 0.056918 0.022164
vertex 0.285223 0.057057 -0.000000
vertex 0.366268 0.057057 0.022079
endloop
endfacet
facet normal 0.231611 -0.472992 -0.850079
outer loop
vertex 0.285223 0.057057 -0.000000
vertex 0.285513 0.057199 0.000000
vertex 0.366268 0.057057 0.022079
endloop
endfacet
facet normal 0.231666 -0.472455 -0.850363
outer loop
vertex 0.366268 0.057057 0.022079
vertex 0.285513 0.057199 0.000000
vertex 0.366268 0.057199 0.022000
endloop
endfacet
facet normal -0.262631 0.038321 0.964135
outer loop
vertex 0.287033 0.054367 0.000000
vertex 0.287027 0.054326 0.000000
vertex 0.366268 0.054285 0.021589
endloop
endfacet
facet normal -0.262735 0.026113 0.964515
outer loop
vertex 0.287027 0.054326 0.000000
vertex 0.287023 0.054285 0.000000
vertex 0.366268 0.054285 0.021589
endloop
endfacet
facet normal -0.262895 0.012785 0.964740
outer loop
vertex 0.287023 0.054285 0.000000
vertex 0.287021 0.054244 0.000000
vertex 0.366268 0.054285 0.021589
endloop
endfacet
facet normal -0.262819 0.006391 0.964824
outer loop
vertex 0.287021 0.054244 0.000000
vertex 0.287020 0.054203 0.000000
vertex 0.366268 0.054285 0.021589
endloop
endfacet
facet normal -0.262830 0.010698 0.964783
outer loop
vertex 0.366268 0.054285 0.021589
vertex 0.287020 0.054203 0.000000
vertex 0.366268 0.054203 0.021590
endloop
endfacet
facet normal -0.262135 0.076990 0.961955
outer loop
vertex 0.287073 0.054529 0.000000
vertex 0.287061 0.054489 0.000000
vertex 0.366268 0.054448 0.021582
endloop
endfacet
facet normal -0.262188 0.070612 0.962430
outer loop
vertex 0.287061 0.054489 0.000000
vertex 0.287050 0.054448 0.000000
vertex 0.366268 0.054448 0.021582
endloop
endfacet
facet normal -0.262731 0.031811 0.964345
outer loop
vertex 0.366268 0.054285 0.021589
vertex 0.366268 0.054367 0.021586
vertex 0.287033 0.054367 0.000000
endloop
endfacet
facet normal -0.262461 0.053418 0.963463
outer loop
vertex 0.366268 0.054367 0.021586
vertex 0.366268 0.054448 0.021582
vertex 0.287033 0.054367 0.000000
endloop
endfacet
facet normal -0.262566 0.051504 0.963539
outer loop
vertex 0.287033 0.054367 0.000000
vertex 0.366268 0.054448 0.021582
vertex 0.287041 0.054407 0.000000
endloop
endfacet
facet normal -0.262419 0.058426 0.963184
outer loop
vertex 0.366268 0.054448 0.021582
vertex 0.287050 0.054448 0.000000
vertex 0.287041 0.054407 0.000000
endloop
endfacet
facet normal -0.260848 0.122102 0.957627
outer loop
vertex 0.287139 0.054692 0.000000
vertex 0.287120 0.054651 0.000000
vertex 0.366268 0.054611 0.021567
endloop
endfacet
facet normal -0.261311 0.110049 0.958961
outer loop
vertex 0.287120 0.054651 0.000000
vertex 0.287103 0.054611 0.000000
vertex 0.366268 0.054611 0.021567
endloop
endfacet
facet normal -0.262087 0.075748 0.962067
outer loop
vertex 0.366268 0.054448 0.021582
vertex 0.366268 0.054529 0.021575
vertex 0.287073 0.054529 0.000000
endloop
endfacet
facet normal -0.261644 0.095693 0.960409
outer loop
vertex 0.366268 0.054529 0.021575
vertex 0.366268 0.054611 0.021567
vertex 0.287073 0.054529 0.000000
endloop
endfacet
facet normal -0.261797 0.090491 0.960871
outer loop
vertex 0.287073 0.054529 0.000000
vertex 0.366268 0.054611 0.021567
vertex 0.287087 0.054570 0.000000
endloop
endfacet
facet normal -0.261454 0.102616 0.959746
outer loop
vertex 0.366268 0.054611 0.021567
vertex 0.287103 0.054611 0.000000
vertex 0.287087 0.054570 0.000000
endloop
endfacet
facet normal -0.259458 0.160574 0.952312
outer loop
vertex 0.287232 0.054853 0.000000
vertex 0.287207 0.054813 0.000000
vertex 0.366268 0.054772 0.021546
endloop
endfacet
facet normal -0.259675 0.155416 0.953108
outer loop
vertex 0.287207 0.054813 0.000000
vertex 0.287183 0.054772 0.000000
vertex 0.366268 0.054772 0.021546
endloop
endfacet
facet normal -0.261007 0.118330 0.958057
outer loop
vertex 0.366268 0.054611 0.021567
vertex 0.366268 0.054692 0.021557
vertex 0.287139 0.054692 0.000000
endloop
endfacet
facet normal -0.260334 0.138357 0.955554
outer loop
vertex 0.366268 0.054692 0.021557
vertex 0.366268 0.054772 0.021546
vertex 0.287139 0.054692 0.000000
endloop
endfacet
facet normal -0.260386 0.135337 0.955972
outer loop
vertex 0.287139 0.054692 0.000000
vertex 0.366268 0.054772 0.021546
vertex 0.287160 0.054732 0.000000
endloop
endfacet
facet normal -0.260003 0.147804 0.954229
outer loop
vertex 0.366268 0.054772 0.021546
vertex 0.287183 0.054772 0.000000
vertex 0.287160 0.054732 0.000000
endloop
endfacet
facet normal -0.257225 0.206498 0.944031
outer loop
vertex 0.287351 0.055013 0.000000
vertex 0.287319 0.054973 0.000000
vertex 0.366268 0.054933 0.021517
endloop
endfacet
facet normal -0.257524 0.199511 0.945450
outer loop
vertex 0.287319 0.054973 0.000000
vertex 0.287288 0.054933 0.000000
vertex 0.366268 0.054933 0.021517
endloop
endfacet
facet normal -0.259490 0.159580 0.952470
outer loop
vertex 0.366268 0.054772 0.021546
vertex 0.366268 0.054853 0.021532
vertex 0.287232 0.054853 0.000000
endloop
endfacet
facet normal -0.258513 0.180970 0.948905
outer loop
vertex 0.366268 0.054853 0.021532
vertex 0.366268 0.054933 0.021517
vertex 0.287232 0.054853 0.000000
endloop
endfacet
facet normal -0.258799 0.174315 0.950072
outer loop
vertex 0.287232 0.054853 0.000000
vertex 0.366268 0.054933 0.021517
vertex 0.287259 0.054893 0.000000
endloop
endfacet
facet normal -0.258231 0.186754 0.947861
outer loop
vertex 0.366268 0.054933 0.021517
vertex 0.287288 0.054933 0.000000
vertex 0.287259 0.054893 0.000000
endloop
endfacet
facet normal -0.254442 0.251077 0.933927
outer loop
vertex 0.287496 0.055172 0.000000
vertex 0.287457 0.055132 0.000000
vertex 0.366268 0.055093 0.021481
endloop
endfacet
facet normal -0.255304 0.238105 0.937084
outer loop
vertex 0.287457 0.055132 0.000000
vertex 0.287420 0.055093 0.000000
vertex 0.366268 0.055093 0.021481
endloop
endfacet
facet normal -0.257399 0.202345 0.944882
outer loop
vertex 0.366268 0.054933 0.021517
vertex 0.366268 0.055013 0.021500
vertex 0.287351 0.055013 0.000000
endloop
endfacet
facet normal -0.256195 0.223488 0.940435
outer loop
vertex 0.366268 0.055013 0.021500
vertex 0.366268 0.055093 0.021481
vertex 0.287351 0.055013 0.000000
endloop
endfacet
facet normal -0.256515 0.219070 0.941386
outer loop
vertex 0.287351 0.055013 0.000000
vertex 0.366268 0.055093 0.021481
vertex 0.287385 0.055053 0.000000
endloop
endfacet
facet normal -0.256117 0.225717 0.939923
outer loop
vertex 0.366268 0.055093 0.021481
vertex 0.287420 0.055093 0.000000
vertex 0.287385 0.055053 0.000000
endloop
endfacet
facet normal -0.254945 0.243353 0.935832
outer loop
vertex 0.366268 0.055093 0.021481
vertex 0.366268 0.055172 0.021460
vertex 0.287496 0.055172 0.000000
endloop
endfacet
facet normal -0.253570 0.263710 0.930677
outer loop
vertex 0.366268 0.055172 0.021460
vertex 0.366268 0.055251 0.021438
vertex 0.287496 0.055172 0.000000
endloop
endfacet
facet normal -0.253503 0.264194 0.930558
outer loop
vertex 0.287496 0.055172 0.000000
vertex 0.366268 0.055251 0.021438
vertex 0.287578 0.055251 0.000000
endloop
endfacet
facet normal -0.251830 0.286510 0.924388
outer loop
vertex 0.366268 0.055251 0.021438
vertex 0.287667 0.055329 0.000000
vertex 0.287578 0.055251 0.000000
endloop
endfacet
facet normal -0.251944 0.285141 0.924780
outer loop
vertex 0.366268 0.055251 0.021438
vertex 0.366268 0.055329 0.021414
vertex 0.287667 0.055329 0.000000
endloop
endfacet
facet normal -0.250204 0.306548 0.918382
outer loop
vertex 0.366268 0.055329 0.021414
vertex 0.366268 0.055406 0.021388
vertex 0.287667 0.055329 0.000000
endloop
endfacet
facet normal -0.250467 0.303448 0.919340
outer loop
vertex 0.287667 0.055329 0.000000
vertex 0.366268 0.055406 0.021388
vertex 0.287761 0.055406 0.000000
endloop
endfacet
facet normal -0.248301 0.328007 0.911459
outer loop
vertex 0.366268 0.055406 0.021388
vertex 0.287863 0.055484 0.000000
vertex 0.287761 0.055406 0.000000
endloop
endfacet
facet normal -0.248603 0.324897 0.912490
outer loop
vertex 0.366268 0.055406 0.021388
vertex 0.366268 0.055484 0.021360
vertex 0.287863 0.055484 0.000000
endloop
endfacet
facet normal -0.246574 0.346680 0.904994
outer loop
vertex 0.366268 0.055484 0.021360
vertex 0.366268 0.055560 0.021331
vertex 0.287863 0.055484 0.000000
endloop
endfacet
facet normal -0.246699 0.345080 0.905571
outer loop
vertex 0.287863 0.055484 0.000000
vertex 0.366268 0.055560 0.021331
vertex 0.287970 0.055560 0.000000
endloop
endfacet
facet normal -0.244523 0.366916 0.897542
outer loop
vertex 0.366268 0.055560 0.021331
vertex 0.288084 0.055636 0.000000
vertex 0.287970 0.055560 0.000000
endloop
endfacet
facet normal -0.244606 0.366166 0.897825
outer loop
vertex 0.366268 0.055560 0.021331
vertex 0.366268 0.055636 0.021300
vertex 0.288084 0.055636 0.000000
endloop
endfacet
facet normal -0.242492 0.385902 0.890099
outer loop
vertex 0.366268 0.055636 0.021300
vertex 0.366268 0.055711 0.021268
vertex 0.288084 0.055636 0.000000
endloop
endfacet
facet normal -0.242667 0.384088 0.890836
outer loop
vertex 0.288084 0.055636 0.000000
vertex 0.366268 0.055711 0.021268
vertex 0.288203 0.055711 0.000000
endloop
endfacet
facet normal -0.240254 0.405731 0.881851
outer loop
vertex 0.366268 0.055711 0.021268
vertex 0.288329 0.055786 0.000000
vertex 0.288203 0.055711 0.000000
endloop
endfacet
facet normal -0.235387 0.445062 0.864010
outer loop
vertex 0.366268 0.055860 0.021197
vertex 0.366268 0.055933 0.021160
vertex 0.288599 0.055933 0.000000
endloop
endfacet
facet normal -0.240274 0.405572 0.881918
outer loop
vertex 0.366268 0.055711 0.021268
vertex 0.366268 0.055786 0.021233
vertex 0.288329 0.055786 0.000000
endloop
endfacet
facet normal -0.238021 0.424387 0.873637
outer loop
vertex 0.366268 0.055786 0.021233
vertex 0.366268 0.055860 0.021197
vertex 0.288329 0.055786 0.000000
endloop
endfacet
facet normal -0.237935 0.424952 0.873386
outer loop
vertex 0.288329 0.055786 0.000000
vertex 0.366268 0.055860 0.021197
vertex 0.288461 0.055860 0.000000
endloop
endfacet
facet normal -0.235382 0.445113 0.863985
outer loop
vertex 0.366268 0.055860 0.021197
vertex 0.288599 0.055933 0.000000
vertex 0.288461 0.055860 0.000000
endloop
endfacet
facet normal -1.000000 0.000000 0.000000
outer loop
vertex 0.366268 -0.000000 0.096012
vertex 0.366268 -0.000000 0.098870
vertex 0.366268 0.021160 0.055933
endloop
endfacet
facet normal -1.000000 0.000002 0.000000
outer loop
vertex 0.366268 -0.000000 0.098870
vertex 0.366268 0.022000 0.057199
vertex 0.366268 0.021160 0.055933
endloop
endfacet
facet normal -1.000000 -0.000066 0.000000
outer loop
vertex 0.366268 0.021160 0.055933
vertex 0.366268 0.022000 0.057199
vertex 0.366268 0.022079 0.057057
endloop
endfacet
facet normal -1.000000 0.000000 0.000000
outer loop
vertex 0.366268 0.022079 0.057057
vertex 0.366268 0.022164 0.056918
vertex 0.366268 0.021160 0.055933
endloop
endfacet
facet normal -1.000000 0.000000 0.000000
outer loop
vertex 0.366268 0.022164 0.056918
vertex 0.366268 0.022256 0.056783
vertex 0.366268 0.021160 0.055933
endloop
endfacet
facet normal -1.000000 0.000000 0.000000
outer loop
vertex 0.366268 0.021160 0.055933
vertex 0.366268 0.022256 0.056783
vertex 0.366268 0.021197 0.055860
endloop
endfacet
facet normal -1.000000 0.000000 0.000000
outer loop
vertex 0.366268 0.022256 0.056783
vertex 0.366268 0.022352 0.056652
vertex 0.366268 0.021197 0.055860
endloop
endfacet
facet normal -1.000000 0.000000 0.000000
outer loop
vertex 0.366268 0.021197 0.055860
vertex 0.366268 0.022352 0.056652
vertex 0.366268 0.021233 0.055786
endloop
endfacet
facet normal -1.000000 0.000000 0.000000
outer loop
vertex 0.366268 0.021233 0.055786
vertex 0.366268 0.022352 0.056652
vertex 0.366268 0.021268 0.055711
endloop
endfacet
facet normal -1.000000 0.000000 0.000000
outer loop
vertex 0.366268 0.022352 0.056652
vertex 0.366268 0.022455 0.056525
vertex 0.366268 0.021268 0.055711
endloop
endfacet
facet normal -1.000000 0.000000 0.000000
outer loop
vertex 0.366268 0.021268 0.055711
vertex 0.366268 0.022455 0.056525
vertex 0.366268 0.021300 0.055636
endloop
endfacet
facet normal -1.000000 0.000000 0.000000
outer loop
vertex 0.366268 0.021414 0.055329
vertex 0.366268 0.021388 0.055406
vertex 0.366268 0.022563 0.056402
endloop
endfacet
facet normal -1.000000 0.000000 0.000000
outer loop
vertex 0.366268 0.021388 0.055406
vertex 0.366268 0.021360 0.055484
vertex 0.366268 0.022563 0.056402
endloop
endfacet
facet normal -1.000000 0.000000 0.000000
outer loop
vertex 0.366268 0.022563 0.056402
vertex 0.366268 0.021360 0.055484
vertex 0.366268 0.022455 0.056525
endloop
endfacet
facet normal -1.000000 0.000000 0.000000
outer loop
vertex 0.366268 0.021360 0.055484
vertex 0.366268 0.021331 0.055560
vertex 0.366268 0.022455 0.056525
endloop
endfacet
facet normal -1.000000 0.000032 0.000000
outer loop
vertex 0.366268 0.022455 0.056525
vertex 0.366268 0.021331 0.055560
vertex 0.366268 0.021300 0.055636
endloop
endfacet
facet normal -1.000000 0.000503 0.000000
outer loop
vertex 0.366268 0.021414 0.055329
vertex 0.366268 0.022563 0.056402
vertex 0.366268 0.021438 0.055251
endloop
endfacet
facet normal -1.000000 0.000000 0.000000
outer loop
vertex 0.366268 0.022563 0.056402
vertex 0.366268 0.022676 0.056283
vertex 0.366268 0.021438 0.055251
endloop
endfacet
facet normal -1.000000 0.000000 0.000000
outer loop
vertex 0.366268 0.021438 0.055251
vertex 0.366268 0.022676 0.056283
vertex 0.366268 0.021460 0.055172
endloop
endfacet
facet normal -1.000000 0.000000 0.000000
outer loop
vertex 0.366268 0.021532 0.054853
vertex 0.366268 0.021517 0.054933
vertex 0.366268 0.022795 0.056170
endloop
endfacet
facet normal -1.000000 0.000000 0.000000
outer loop
vertex 0.366268 0.021517 0.054933
vertex 0.366268 0.021500 0.055013
vertex 0.366268 0.022795 0.056170
endloop
endfacet
facet normal -1.000000 0.000000 0.000000
outer loop
vertex 0.366268 0.022795 0.056170
vertex 0.366268 0.021500 0.055013
vertex 0.366268 0.022676 0.056283
endloop
endfacet
facet normal -1.000000 0.000000 0.000000
outer loop
vertex 0.366268 0.021500 0.055013
vertex 0.366268 0.021481 0.055093
vertex 0.366268 0.022676 0.056283
endloop
endfacet
facet normal -1.000000 0.000092 0.000000
outer loop
vertex 0.366268 0.022676 0.056283
vertex 0.366268 0.021481 0.055093
vertex 0.366268 0.021460 0.055172
endloop
endfacet
facet normal -1.000000 0.000000 0.000000
outer loop
vertex 0.366268 0.021575 0.054529
vertex 0.366268 0.021567 0.054611
vertex 0.366268 0.022918 0.056061
endloop
endfacet
facet normal -1.000000 0.000000 0.000000
outer loop
vertex 0.366268 0.021567 0.054611
vertex 0.366268 0.021557 0.054692
vertex 0.366268 0.022918 0.056061
endloop
endfacet
facet normal -1.000000 0.000000 0.000000
outer loop
vertex 0.366268 0.022918 0.056061
vertex 0.366268 0.021557 0.054692
vertex 0.366268 0.022795 0.056170
endloop
endfacet
facet normal -1.000000 -0.000992 0.000000
outer loop
vertex 0.366268 0.021557 0.054692
vertex 0.366268 0.021546 0.054772
vertex 0.366268 0.022795 0.056170
endloop
endfacet
facet normal -1.000000 0.000213 0.000000
outer loop
vertex 0.366268 0.022795 0.056170
vertex 0.366268 0.021546 0.054772
vertex 0.366268 0.021532 0.054853
endloop
endfacet
facet normal -1.000000 0.000000 0.000000
outer loop
vertex 0.366268 0.021590 0.054203
vertex 0.366268 0.021589 0.054285
vertex 0.366268 0.023046 0.055958
endloop
endfacet
facet normal -1.000000 0.000000 0.000000
outer loop
vertex 0.366268 0.021589 0.054285
vertex 0.366268 0.021586 0.054367
vertex 0.366268 0.023046 0.055958
endloop
endfacet
facet normal -1.000000 0.000000 0.000000
outer loop
vertex 0.366268 0.023046 0.055958
vertex 0.366268 0.021586 0.054367
vertex 0.366268 0.022918 0.056061
endloop
endfacet
facet normal -1.000000 0.000000 0.000000
outer loop
vertex 0.366268 0.021586 0.054367
vertex 0.366268 0.021582 0.054448
vertex 0.366268 0.022918 0.056061
endloop
endfacet
facet normal -1.000000 -0.000183 0.000000
outer loop
vertex 0.366268 0.022918 0.056061
vertex 0.366268 0.021582 0.054448
vertex 0.366268 0.021575 0.054529
endloop
endfacet
facet normal -1.000000 0.000310 0.000000
outer loop
vertex 0.366268 0.023046 0.055958
vertex 0.366268 0.023179 0.055859
vertex 0.366268 0.021590 0.054203
endloop
endfacet
facet normal -1.000000 0.000000 0.000000
outer loop
vertex 0.366268 0.023179 0.055859
vertex 0.366268 0.023315 0.055767
vertex 0.366268 0.021590 0.054203
endloop
endfacet
facet normal -1.000000 0.000065 0.000000
outer loop
vertex 0.366268 0.021590 0.054203
vertex 0.366268 0.023315 0.055767
vertex 0.366268 0.021590 0.050038
endloop
endfacet
facet normal -1.000000 0.000000 0.000000
outer loop
vertex 0.366268 0.023315 0.055767
vertex 0.366268 0.023456 0.055680
vertex 0.366268 0.021590 0.050038
endloop
endfacet
facet normal -1.000000 0.000000 0.000000
outer loop
vertex 0.366268 0.023456 0.055680
vertex 0.366268 0.023600 0.055598
vertex 0.366268 0.021590 0.050038
endloop
endfacet
facet normal -1.000000 0.000004 0.000000
outer loop
vertex 0.366268 0.021590 0.050038
vertex 0.366268 0.023600 0.055598
vertex 0.366268 0.023748 0.055523
endloop
endfacet
facet normal -1.000000 0.000000 0.000000
outer loop
vertex 0.366268 0.023748 0.055523
vertex 0.366268 0.023898 0.055454
vertex 0.366268 0.021590 0.050038
endloop
endfacet
facet normal -1.000000 -0.000476 0.000000
outer loop
vertex 0.366268 0.023898 0.055454
vertex 0.366268 0.024052 0.055391
vertex 0.366268 0.021590 0.050038
endloop
endfacet
facet normal -1.000000 0.000041 0.000000
outer loop
vertex 0.366268 0.021590 0.050038
vertex 0.366268 0.024052 0.055391
vertex 0.366268 0.024208 0.055334
endloop
endfacet
facet normal -1.000000 0.000000 0.000000
outer loop
vertex 0.366268 0.024208 0.055334
vertex 0.366268 0.024367 0.055284
vertex 0.366268 0.021590 0.050038
endloop
endfacet
facet normal -1.000000 0.000000 0.000000
outer loop
vertex 0.366268 0.024367 0.055284
vertex 0.366268 0.024528 0.055240
vertex 0.366268 0.021590 0.050038
endloop
endfacet
facet normal -1.000000 0.000053 0.000000
outer loop
vertex 0.366268 0.021590 0.050038
vertex 0.366268 0.024528 0.055240
vertex 0.366268 0.024690 0.055203
endloop
endfacet
facet normal -1.000000 0.000000 0.000000
outer loop
vertex 0.366268 0.024690 0.055203
vertex 0.366268 0.024854 0.055172
vertex 0.366268 0.021590 0.050038
endloop
endfacet
facet normal -1.000000 0.000000 0.000000
outer loop
vertex 0.366268 0.024854 0.055172
vertex 0.366268 0.025020 0.055149
vertex 0.366268 0.021590 0.050038
endloop
endfacet
facet normal -1.000000 -0.000074 0.000000
outer loop
vertex 0.366268 0.021590 0.050038
vertex 0.366268 0.025020 0.055149
vertex 0.366268 0.025185 0.055132
endloop
endfacet
facet normal -1.000000 0.000000 0.000000
outer loop
vertex 0.366268 0.044958 0.055118
vertex 0.366268 0.050038 0.050038
vertex 0.366268 0.025519 0.055118
endloop
endfacet
facet normal -1.000000 0.000000 0.000000
outer loop
vertex 0.366268 0.050038 0.050038
vertex 0.366268 0.021590 0.050038
vertex 0.366268 0.025519 0.055118
endloop
endfacet
facet normal -1.000000 0.000000 0.000000
outer loop
vertex 0.366268 0.025519 0.055118
vertex 0.366268 0.021590 0.050038
vertex 0.366268 0.025352 0.055121
endloop
endfacet
facet normal -1.000000 -0.000016 0.000000
outer loop
vertex 0.366268 0.021590 0.050038
vertex 0.366268 0.025185 0.055132
vertex 0.366268 0.025352 0.055121
endloop
endfacet
facet normal 0.260691 0.000000 -0.965422
outer loop
vertex 0.185166 0.050000 0.050000
vertex 0.185166 -0.000000 0.050000
vertex 0.000000 0.000000 0.000000
endloop
endfacet
facet normal -0.262856 0.000000 0.964835
outer loop
vertex 0.366268 0.050038 0.021590
vertex 0.366268 0.054203 0.021590
vertex 0.287020 0.050001 0.000000
endloop
endfacet
facet normal -0.262856 0.000000 0.964835
outer loop
vertex 0.366268 0.054203 0.021590
vertex 0.287020 0.054203 0.000000
vertex 0.287020 0.050001 0.000000
endloop
endfacet
facet normal -0.000468 0.000000 1.000000
outer loop
vertex 0.366268 0.021590 0.050038
vertex 0.366268 0.050038 0.050038
vertex 0.287020 -0.000000 0.050001
endloop
endfacet
facet normal -0.000469 0.000001 1.000000
outer loop
vertex 0.366268 0.050038 0.050038
vertex 0.285166 0.050000 0.050000
vertex 0.287020 -0.000000 0.050001
endloop
endfacet
facet normal -0.000482 0.000000 1.000000
outer loop
vertex 0.287020 -0.000000 0.050001
vertex 0.285166 0.050000 0.050000
vertex 0.285166 -0.000000 0.050000
endloop
endfacet
facet normal -0.234219 0.453890 0.859724
outer loop
vertex 0.366268 0.096012 0.000000
vertex 0.288599 0.055933 0.000000
vertex 0.366268 0.055933 0.021160
endloop
endfacet
facet normal -1.000000 0.000000 0.000000
outer loop
vertex 0.366268 0.098870 -0.000000
vertex 0.366268 0.096012 0.000000
vertex 0.366268 0.057199 0.022000
endloop
endfacet
facet normal -1.000000 -0.000013 0.000000
outer loop
vertex 0.366268 0.096012 0.000000
vertex 0.366268 0.055933 0.021160
vertex 0.366268 0.057199 0.022000
endloop
endfacet
facet normal -1.000000 0.000000 0.000000
outer loop
vertex 0.366268 0.057199 0.022000
vertex 0.366268 0.055933 0.021160
vertex 0.366268 0.057057 0.022079
endloop
endfacet
facet normal -1.000000 0.000000 0.000000
outer loop
vertex 0.366268 0.056652 0.022352
vertex 0.366268 0.056783 0.022256
vertex 0.366268 0.055933 0.021160
endloop
endfacet
facet normal -1.000000 0.000000 0.000000
outer loop
vertex 0.366268 0.056783 0.022256
vertex 0.366268 0.056918 0.022164
vertex 0.366268 0.055933 0.021160
endloop
endfacet
facet normal -1.000000 0.000000 0.000000
outer loop
vertex 0.366268 0.055933 0.021160
vertex 0.366268 0.056918 0.022164
vertex 0.366268 0.057057 0.022079
endloop
endfacet
facet normal -1.000000 0.000000 0.000000
outer loop
vertex 0.366268 0.055933 0.021160
vertex 0.366268 0.055860 0.021197
vertex 0.366268 0.056652 0.022352
endloop
endfacet
facet normal -1.000000 -0.000512 0.000000
outer loop
vertex 0.366268 0.055860 0.021197
vertex 0.366268 0.055786 0.021233
vertex 0.366268 0.056652 0.022352
endloop
endfacet
facet normal -1.000000 0.000000 0.000000
outer loop
vertex 0.366268 0.056652 0.022352
vertex 0.366268 0.055786 0.021233
vertex 0.366268 0.056525 0.022455
endloop
endfacet
facet normal -1.000000 0.000000 0.000000
outer loop
vertex 0.366268 0.055786 0.021233
vertex 0.366268 0.055711 0.021268
vertex 0.366268 0.056525 0.022455
endloop
endfacet
facet normal -1.000000 0.000000 0.000000
outer loop
vertex 0.366268 0.054285 0.021589
vertex 0.366268 0.054203 0.021590
vertex 0.366268 0.055958 0.023046
endloop
endfacet
facet normal -1.000000 0.000000 0.000000
outer loop
vertex 0.366268 0.055711 0.021268
vertex 0.366268 0.055636 0.021300
vertex 0.366268 0.056525 0.022455
endloop
endfacet
facet normal -1.000000 0.000000 0.000000
outer loop
vertex 0.366268 0.055636 0.021300
vertex 0.366268 0.055560 0.021331
vertex 0.366268 0.056525 0.022455
endloop
endfacet
facet normal -1.000000 0.000240 0.000000
outer loop
vertex 0.366268 0.056525 0.022455
vertex 0.366268 0.055560 0.021331
vertex 0.366268 0.056402 0.022563
endloop
endfacet
facet normal -1.000000 0.000000 0.000000
outer loop
vertex 0.366268 0.055560 0.021331
vertex 0.366268 0.055484 0.021360
vertex 0.366268 0.056402 0.022563
endloop
endfacet
facet normal -1.000000 0.000000 0.000000
outer loop
vertex 0.366268 0.055958 0.023046
vertex 0.366268 0.054203 0.021590
vertex 0.366268 0.055859 0.023179
endloop
endfacet
facet normal -1.000000 0.000000 0.000000
outer loop
vertex 0.366268 0.055484 0.021360
vertex 0.366268 0.055406 0.021388
vertex 0.366268 0.056402 0.022563
endloop
endfacet
facet normal -1.000000 0.000000 0.000000
outer loop
vertex 0.366268 0.055406 0.021388
vertex 0.366268 0.055329 0.021414
vertex 0.366268 0.056402 0.022563
endloop
endfacet
facet normal -1.000000 0.000000 0.000000
outer loop
vertex 0.366268 0.056402 0.022563
vertex 0.366268 0.055329 0.021414
vertex 0.366268 0.056283 0.022676
endloop
endfacet
facet normal -1.000000 0.000000 0.000000
outer loop
vertex 0.366268 0.055329 0.021414
vertex 0.366268 0.055251 0.021438
vertex 0.366268 0.056283 0.022676
endloop
endfacet
facet normal -1.000000 0.000483 0.000000
outer loop
vertex 0.366268 0.055251 0.021438
vertex 0.366268 0.055172 0.021460
vertex 0.366268 0.056283 0.022676
endloop
endfacet
facet normal -1.000000 0.000000 0.000000
outer loop
vertex 0.366268 0.055172 0.021460
vertex 0.366268 0.055093 0.021481
vertex 0.366268 0.056283 0.022676
endloop
endfacet
facet normal -1.000000 0.000000 0.000000
outer loop
vertex 0.366268 0.056283 0.022676
vertex 0.366268 0.055093 0.021481
vertex 0.366268 0.056170 0.022795
endloop
endfacet
facet normal -1.000000 0.000000 0.000000
outer loop
vertex 0.366268 0.055093 0.021481
vertex 0.366268 0.055013 0.021500
vertex 0.366268 0.056170 0.022795
endloop
endfacet
facet normal -1.000000 0.000369 0.000000
outer loop
vertex 0.366268 0.056170 0.022795
vertex 0.366268 0.055013 0.021500
vertex 0.366268 0.054933 0.021517
endloop
endfacet
facet normal -1.000000 0.000000 0.000000
outer loop
vertex 0.366268 0.054611 0.021567
vertex 0.366268 0.054529 0.021575
vertex 0.366268 0.056061 0.022918
endloop
endfacet
facet normal -1.000000 0.000000 0.000000
outer loop
vertex 0.366268 0.054529 0.021575
vertex 0.366268 0.054448 0.021582
vertex 0.366268 0.056061 0.022918
endloop
endfacet
facet normal -1.000000 -0.000338 0.000000
outer loop
vertex 0.366268 0.056061 0.022918
vertex 0.366268 0.054448 0.021582
vertex 0.366268 0.055958 0.023046
endloop
endfacet
facet normal -1.000000 0.000000 0.000000
outer loop
vertex 0.366268 0.054448 0.021582
vertex 0.366268 0.054367 0.021586
vertex 0.366268 0.055958 0.023046
endloop
endfacet
facet normal -1.000000 0.000155 0.000000
outer loop
vertex 0.366268 0.055958 0.023046
vertex 0.366268 0.054367 0.021586
vertex 0.366268 0.054285 0.021589
endloop
endfacet
facet normal -1.000000 -0.000479 0.000000
outer loop
vertex 0.366268 0.054933 0.021517
vertex 0.366268 0.054853 0.021532
vertex 0.366268 0.056170 0.022795
endloop
endfacet
facet normal -1.000000 0.000487 0.000000
outer loop
vertex 0.366268 0.054853 0.021532
vertex 0.366268 0.054772 0.021546
vertex 0.366268 0.056170 0.022795
endloop
endfacet
facet normal -1.000000 0.000000 0.000000
outer loop
vertex 0.366268 0.056170 0.022795
vertex 0.366268 0.054772 0.021546
vertex 0.366268 0.056061 0.022918
endloop
endfacet
facet normal -1.000000 0.000000 0.000000
outer loop
vertex 0.366268 0.054772 0.021546
vertex 0.366268 0.054692 0.021557
vertex 0.366268 0.056061 0.022918
endloop
endfacet
facet normal -1.000000 0.000213 0.000000
outer loop
vertex 0.366268 0.056061 0.022918
vertex 0.366268 0.054692 0.021557
vertex 0.366268 0.054611 0.021567
endloop
endfacet
facet normal -1.000000 0.000000 0.000000
outer loop
vertex 0.366268 0.050038 0.021590
vertex 0.366268 0.055680 0.023456
vertex 0.366268 0.054203 0.021590
endloop
endfacet
facet normal -1.000000 0.000000 0.000000
outer loop
vertex 0.366268 0.055680 0.023456
vertex 0.366268 0.055767 0.023315
vertex 0.366268 0.054203 0.021590
endloop
endfacet
facet normal -1.000000 -0.000039 0.000000
outer loop
vertex 0.366268 0.054203 0.021590
vertex 0.366268 0.055767 0.023315
vertex 0.366268 0.055859 0.023179
endloop
endfacet
facet normal -1.000000 0.000000 0.000000
outer loop
vertex 0.366268 0.055454 0.023898
vertex 0.366268 0.055523 0.023748
vertex 0.366268 0.050038 0.021590
endloop
endfacet
facet normal -1.000000 0.000000 0.000000
outer loop
vertex 0.366268 0.055523 0.023748
vertex 0.366268 0.055598 0.023600
vertex 0.366268 0.050038 0.021590
endloop
endfacet
facet normal -1.000000 -0.000015 0.000000
outer loop
vertex 0.366268 0.050038 0.021590
vertex 0.366268 0.055598 0.023600
vertex 0.366268 0.055680 0.023456
endloop
endfacet
facet normal -1.000000 0.000120 0.000000
outer loop
vertex 0.366268 0.055284 0.024367
vertex 0.366268 0.055334 0.024208
vertex 0.366268 0.050038 0.021590
endloop
endfacet
facet normal -1.000000 0.000000 0.000000
outer loop
vertex 0.366268 0.055334 0.024208
vertex 0.366268 0.055391 0.024052
vertex 0.366268 0.050038 0.021590
endloop
endfacet
facet normal -1.000000 0.000097 0.000000
outer loop
vertex 0.366268 0.050038 0.021590
vertex 0.366268 0.055391 0.024052
vertex 0.366268 0.055454 0.023898
endloop
endfacet
facet normal -1.000000 0.000000 0.000000
outer loop
vertex 0.366268 0.055172 0.024854
vertex 0.366268 0.055203 0.024690
vertex 0.366268 0.050038 0.021590
endloop
endfacet
facet normal -1.000000 0.000000 0.000000
outer loop
vertex 0.366268 0.055203 0.024690
vertex 0.366268 0.055240 0.024528
vertex 0.366268 0.050038 0.021590
endloop
endfacet
facet normal -1.000000 -0.000151 0.000000
outer loop
vertex 0.366268 0.050038 0.021590
vertex 0.366268 0.055240 0.024528
vertex 0.366268 0.055284 0.024367
endloop
endfacet
facet normal -1.000000 0.000000 0.000000
outer loop
vertex 0.366268 0.055121 0.025352
vertex 0.366268 0.055132 0.025185
vertex 0.366268 0.050038 0.021590
endloop
endfacet
facet normal -1.000000 0.000000 0.000000
outer loop
vertex 0.366268 0.055132 0.025185
vertex 0.366268 0.055149 0.025020
vertex 0.366268 0.050038 0.021590
endloop
endfacet
facet normal -1.000000 -0.000047 0.000000
outer loop
vertex 0.366268 0.050038 0.021590
vertex 0.366268 0.055149 0.025020
vertex 0.366268 0.055172 0.024854
endloop
endfacet
facet normal -1.000000 -0.000013 0.000000
outer loop
vertex 0.366268 0.050038 0.050038
vertex 0.366268 0.055118 0.044958
vertex 0.366268 0.050038 0.021590
endloop
endfacet
facet normal -1.000000 0.000000 0.000000
outer loop
vertex 0.366268 0.055118 0.044958
vertex 0.366268 0.055118 0.025519
vertex 0.366268 0.050038 0.021590
endloop
endfacet
facet normal -1.000000 -0.000034 0.000000
outer loop
vertex 0.366268 0.050038 0.021590
vertex 0.366268 0.055118 0.025519
vertex 0.366268 0.055121 0.025352
endloop
endfacet
facet normal 0.234219 -0.453891 -0.859723
outer loop
vertex 0.366268 0.098870 -0.000000
vertex 0.366268 0.057199 0.022000
vertex 0.285513 0.057199 0.000000
endloop
endfacet
facet normal 0.000000 -1.000000 0.000000
outer loop
vertex 0.366268 0.055118 0.025519
vertex 0.366268 0.055118 0.044958
vertex 0.272598 0.055118 0.000000
endloop
endfacet
facet normal 0.000000 -1.000000 0.000000
outer loop
vertex 0.366268 0.055118 0.044958
vertex 0.211157 0.055118 0.044958
vertex 0.272598 0.055118 0.000000
endloop
endfacet
facet normal 0.000000 -1.000000 0.000000
outer loop
vertex 0.272598 0.055118 0.000000
vertex 0.211157 0.055118 0.044958
vertex 0.211157 0.055118 0.000000
endloop
endfacet
facet normal 0.260691 -0.965422 0.000000
outer loop
vertex 0.000000 0.000000 0.000000
vertex 0.185166 0.050000 0.000000
vertex 0.185166 0.050000 0.050000
endloop
endfacet
facet normal -1.000000 0.000000 0.000000
outer loop
vertex 0.285166 0.000000 0.000000
vertex 0.285166 -0.000000 0.050000
vertex 0.285166 0.050000 0.000000
endloop
endfacet
facet normal -1.000000 0.000000 0.000000
outer loop
vertex 0.285166 -0.000000 0.050000
vertex 0.285166 0.050000 0.050000
vertex 0.285166 0.050000 0.000000
endloop
endfacet
facet normal -0.000484 1.000000 0.000000
outer loop
vertex 0.285166 0.050000 0.000000
vertex 0.285166 0.050000 0.050000
vertex 0.287020 0.050001 0.000000
endloop
endfacet
facet normal -0.000469 1.000000 0.000001
outer loop
vertex 0.285166 0.050000 0.050000
vertex 0.366268 0.050038 0.050038
vertex 0.287020 0.050001 0.000000
endloop
endfacet
facet normal -0.000468 1.000000 0.000000
outer loop
vertex 0.287020 0.050001 0.000000
vertex 0.366268 0.050038 0.050038
vertex 0.366268 0.050038 0.021590
endloop
endfacet
facet normal 0.193165 -0.981166 0.000000
outer loop
vertex 0.185166 0.050000 0.050000
vertex 0.185166 0.050000 0.000000
vertex 0.185359 0.050038 0.050038
endloop
endfacet
facet normal 0.193204 -0.981158 -0.000000
outer loop
vertex 0.185166 0.050000 0.000000
vertex 0.211157 0.055118 0.000000
vertex 0.185359 0.050038 0.050038
endloop
endfacet
facet normal 0.193204 -0.981159 0.000000
outer loop
vertex 0.185359 0.050038 0.050038
vertex 0.211157 0.055118 0.000000
vertex 0.211157 0.055118 0.044958
endloop
endfacet
endsolid hedge
solid inlet
facet normal -1.000000 0.000000 0.000000
outer loop
vertex -0.366268 -0.000000 0.988702
vertex -0.366268 0.988702 0.988702
vertex -0.366268 -0.000000 0.000000
endloop
endfacet
facet normal -1.000000 0.000000 0.000000
outer loop
vertex -0.366268 0.988702 0.988702
vertex -0.366268 0.988702 0.000000
vertex -0.366268 -0.000000 0.000000
endloop
endfacet
endsolid inlet
solid outlet
facet normal 1.000000 0.000000 0.000000
outer loop
vertex 3.662680 0.988702 0.988702
vertex 3.662680 0.000000 0.988702
vertex 3.662680 0.988702 0.000000
endloop
endfacet
facet normal 1.000000 0.000000 0.000000
outer loop
vertex 3.662680 0.000000 0.988702
vertex 3.662680 0.000000 0.000000
vertex 3.662680 0.988702 0.000000
endloop
endfacet
endsolid outlet
solid slip1
facet normal 0.000000 0.000000 1.000000
outer loop
vertex 3.662680 0.988702 0.988702
vertex -0.366268 0.988702 0.988702
vertex 3.662680 0.000000 0.988702
endloop
endfacet
facet normal -0.000000 0.000000 1.000000
outer loop
vertex -0.366268 0.988702 0.988702
vertex -0.366268 -0.000000 0.988702
vertex 3.662680 0.000000 0.988702
endloop
endfacet
facet normal 0.000000 1.000000 0.000000
outer loop
vertex -0.366268 0.988702 0.988702
vertex 3.662680 0.988702 0.988702
vertex -0.366268 0.988702 0.000000
endloop
endfacet
facet normal 0.000000 1.000000 0.000000
outer loop
vertex 3.662680 0.988702 0.988702
vertex 3.662680 0.988702 0.000000
vertex -0.366268 0.988702 0.000000
endloop
endfacet
endsolid slip1
solid symmetry1
facet normal 0.000000 0.000000 -1.000000
outer loop
vertex 3.662680 0.000000 0.000000
vertex 0.285166 0.000000 0.000000
vertex 0.287020 0.050001 0.000000
endloop
endfacet
facet normal 0.000000 0.000000 -1.000000
outer loop
vertex 0.285166 0.000000 0.000000
vertex 0.285166 0.050000 0.000000
vertex 0.287020 0.050001 0.000000
endloop
endfacet
facet normal 0.000000 0.000000 -1.000000
outer loop
vertex 0.272598 0.055118 0.000000
vertex 0.211157 0.055118 0.000000
vertex -0.366268 0.988702 0.000000
endloop
endfacet
facet normal 0.000000 0.000000 -1.000000
outer loop
vertex 0.272598 0.055118 0.000000
vertex -0.366268 0.988702 0.000000
vertex 0.273209 0.055121 0.000000
endloop
endfacet
facet normal -0.000000 0.000000 -1.000000
outer loop
vertex 0.288461 0.055860 0.000000
vertex 0.288599 0.055933 0.000000
vertex 0.287020 0.054203 0.000000
endloop
endfacet
facet normal 0.000000 0.000000 -1.000000
outer loop
vertex 0.288599 0.055933 0.000000
vertex 0.287020 0.050001 0.000000
vertex 0.287020 0.054203 0.000000
endloop
endfacet
facet normal 0.000000 0.000000 -1.000000
outer loop
vertex 0.211157 0.055118 0.000000
vertex 0.185166 0.050000 0.000000
vertex -0.366268 0.988702 0.000000
endloop
endfacet
facet normal -0.000000 -0.000000 -1.000000
outer loop
vertex 0.185166 0.050000 0.000000
vertex 0.000000 0.000000 0.000000
vertex -0.366268 0.988702 0.000000
endloop
endfacet
facet normal 0.000000 0.000000 -1.000000
outer loop
vertex -0.366268 0.988702 0.000000
vertex 0.000000 0.000000 0.000000
vertex -0.366268 -0.000000 0.000000
endloop
endfacet
facet normal 0.000000 0.000000 -1.000000
outer loop
vertex 0.275034 0.055172 0.000000
vertex 0.274432 0.055149 -0.000000
vertex -0.366268 0.988702 0.000000
endloop
endfacet
facet normal -0.000000 -0.000000 -1.000000
outer loop
vertex 0.274432 0.055149 -0.000000
vertex 0.273821 0.055132 0.000000
vertex -0.366268 0.988702 0.000000
endloop
endfacet
facet normal 0.000000 0.000000 -1.000000
outer loop
vertex -0.366268 0.988702 0.000000
vertex 0.273821 0.055132 0.000000
vertex 0.273209 0.055121 0.000000
endloop
endfacet
facet normal -0.000000 0.000000 -1.000000
outer loop
vertex 0.287351 0.055013 0.000000
vertex 0.287385 0.055053 0.000000
vertex 0.287020 0.054203 0.000000
endloop
endfacet
facet normal -0.000000 0.000000 -1.000000
outer loop
vertex 0.287351 0.055013 0.000000
vertex 0.287020 0.054203 0.000000
vertex 0.287319 0.054973 0.000000
endloop
endfacet
facet normal 0.000000 -0.000000 -1.000000
outer loop
vertex 0.288084 0.055636 0.000000
vertex 0.288203 0.055711 0.000000
vertex 0.287020 0.054203 0.000000
endloop
endfacet
facet normal 0.000000 0.000000 -1.000000
outer loop
vertex 0.288203 0.055711 0.000000
vertex 0.288329 0.055786 0.000000
vertex 0.287020 0.054203 0.000000
endloop
endfacet
facet normal -0.000000 0.000000 -1.000000
outer loop
vertex 0.287020 0.054203 0.000000
vertex 0.288329 0.055786 0.000000
vertex 0.288461 0.055860 0.000000
endloop
endfacet
facet normal 0.000000 0.000000 -1.000000
outer loop
vertex 0.276819 0.055283 0.000000
vertex 0.276237 0.055240 -0.000000
vertex -0.366268 0.988702 0.000000
endloop
endfacet
facet normal -0.000000 -0.000000 -1.000000
outer loop
vertex 0.276237 0.055240 -0.000000
vertex 0.275635 0.055203 0.000000
vertex -0.366268 0.988702 0.000000
endloop
endfacet
facet normal 0.000000 0.000000 -1.000000
outer loop
vertex -0.366268 0.988702 0.000000
vertex 0.275635 0.055203 0.000000
vertex 0.275034 0.055172 0.000000
endloop
endfacet
facet normal 0.000000 -0.000000 -1.000000
outer loop
vertex 0.287232 0.054853 0.000000
vertex 0.287259 0.054893 0.000000
vertex 0.287020 0.054203 0.000000
endloop
endfacet
facet normal -0.000000 0.000000 -1.000000
outer loop
vertex 0.287259 0.054893 0.000000
vertex 0.287288 0.054933 0.000000
vertex 0.287020 0.054203 0.000000
endloop
endfacet
facet normal -0.000000 0.000000 -1.000000
outer loop
vertex 0.287020 0.054203 0.000000
vertex 0.287288 0.054933 0.000000
vertex 0.287319 0.054973 0.000000
endloop
endfacet
facet normal 0.000000 -0.000000 -1.000000
outer loop
vertex 0.287761 0.055406 0.000000
vertex 0.287863 0.055484 0.000000
vertex 0.287020 0.054203 0.000000
endloop
endfacet
facet normal 0.000000 -0.000000 -1.000000
outer loop
vertex 0.287863 0.055484 0.000000
vertex 0.287970 0.055560 0.000000
vertex 0.287020 0.054203 0.000000
endloop
endfacet
facet normal -0.000000 0.000000 -1.000000
outer loop
vertex 0.287020 0.054203 0.000000
vertex 0.287970 0.055560 0.000000
vertex 0.288084 0.055636 0.000000
endloop
endfacet
facet normal 0.000000 -0.000000 -1.000000
outer loop
vertex 0.287385 0.055053 0.000000
vertex 0.287420 0.055093 0.000000
vertex 0.287020 0.054203 0.000000
endloop
endfacet
facet normal 0.000000 -0.000000 -1.000000
outer loop
vertex 0.287420 0.055093 0.000000
vertex 0.287457 0.055132 0.000000
vertex 0.287020 0.054203 0.000000
endloop
endfacet
facet normal -0.000000 0.000000 -1.000000
outer loop
vertex 0.287020 0.054203 0.000000
vertex 0.287457 0.055132 0.000000
vertex 0.287496 0.055172 0.000000
endloop
endfacet
facet normal 0.000000 0.000000 -1.000000
outer loop
vertex 0.278537 0.055452 0.000000
vertex 0.277983 0.055391 -0.000000
vertex -0.366268 0.988702 0.000000
endloop
endfacet
facet normal -0.000000 -0.000000 -1.000000
outer loop
vertex 0.277983 0.055391 -0.000000
vertex 0.277401 0.055333 0.000000
vertex -0.366268 0.988702 0.000000
endloop
endfacet
facet normal 0.000000 0.000000 -1.000000
outer loop
vertex -0.366268 0.988702 0.000000
vertex 0.277401 0.055333 0.000000
vertex 0.276819 0.055283 0.000000
endloop
endfacet
facet normal -0.000000 0.000000 -1.000000
outer loop
vertex 0.287160 0.054732 0.000000
vertex 0.287183 0.054772 0.000000
vertex 0.287020 0.054203 0.000000
endloop
endfacet
facet normal -0.000000 0.000000 -1.000000
outer loop
vertex 0.287183 0.054772 0.000000
vertex 0.287207 0.054813 0.000000
vertex 0.287020 0.054203 0.000000
endloop
endfacet
facet normal 0.000000 -0.000000 -1.000000
outer loop
vertex 0.287020 0.054203 0.000000
vertex 0.287207 0.054813 0.000000
vertex 0.287232 0.054853 0.000000
endloop
endfacet
facet normal -0.000000 0.000000 -1.000000
outer loop
vertex 0.287496 0.055172 0.000000
vertex 0.287578 0.055251 0.000000
vertex 0.287020 0.054203 0.000000
endloop
endfacet
facet normal -0.000000 0.000000 -1.000000
outer loop
vertex 0.287578 0.055251 0.000000
vertex 0.287667 0.055329 0.000000
vertex 0.287020 0.054203 0.000000
endloop
endfacet
facet normal -0.000000 0.000000 -1.000000
outer loop
vertex 0.287020 0.054203 0.000000
vertex 0.287667 0.055329 0.000000
vertex 0.287761 0.055406 0.000000
endloop
endfacet
facet normal 0.000000 0.000000 -1.000000
outer loop
vertex 0.280166 0.055679 0.000000
vertex 0.279642 0.055598 -0.000000
vertex -0.366268 0.988702 0.000000
endloop
endfacet
facet normal -0.000000 -0.000000 -1.000000
outer loop
vertex 0.279642 0.055598 -0.000000
vertex 0.279090 0.055522 0.000000
vertex -0.366268 0.988702 0.000000
endloop
endfacet
facet normal 0.000000 0.000000 -1.000000
outer loop
vertex -0.366268 0.988702 0.000000
vertex 0.279090 0.055522 0.000000
vertex 0.278537 0.055452 0.000000
endloop
endfacet
facet normal -0.000000 0.000000 -1.000000
outer loop
vertex 0.287103 0.054611 0.000000
vertex 0.287120 0.054651 0.000000
vertex 0.287020 0.054203 0.000000
endloop
endfacet
facet normal 0.000000 -0.000000 -1.000000
outer loop
vertex 0.287120 0.054651 0.000000
vertex 0.287139 0.054692 0.000000
vertex 0.287020 0.054203 0.000000
endloop
endfacet
facet normal -0.000000 0.000000 -1.000000
outer loop
vertex 0.287020 0.054203 0.000000
vertex 0.287139 0.054692 0.000000
vertex 0.287160 0.054732 0.000000
endloop
endfacet
facet normal -0.000000 -0.000000 -1.000000
outer loop
vertex 0.281675 0.055958 -0.000000
vertex 0.281182 0.055858 0.000000
vertex -0.366268 0.988702 0.000000
endloop
endfacet
facet normal 0.000000 0.000000 -1.000000
outer loop
vertex 0.281182 0.055858 0.000000
vertex 0.280687 0.055767 -0.000000
vertex -0.366268 0.988702 0.000000
endloop
endfacet
facet normal -0.000000 -0.000000 -1.000000
outer loop
vertex -0.366268 0.988702 0.000000
vertex 0.280687 0.055767 -0.000000
vertex 0.280166 0.055679 0.000000
endloop
endfacet
facet normal 0.000000 -0.000000 -1.000000
outer loop
vertex 0.287061 0.054489 0.000000
vertex 0.287073 0.054529 0.000000
vertex 0.287020 0.054203 0.000000
endloop
endfacet
facet normal -0.000000 0.000000 -1.000000
outer loop
vertex 0.287073 0.054529 0.000000
vertex 0.287087 0.054570 0.000000
vertex 0.287020 0.054203 0.000000
endloop
endfacet
facet normal -0.000000 0.000000 -1.000000
outer loop
vertex 0.287020 0.054203 0.000000
vertex 0.287087 0.054570 0.000000
vertex 0.287103 0.054611 0.000000
endloop
endfacet
facet normal 0.000000 0.000000 -1.000000
outer loop
vertex 0.283024 0.056281 0.000000
vertex 0.282597 0.056170 -0.000000
vertex -0.366268 0.988702 0.000000
endloop
endfacet
facet normal -0.000000 -0.000000 -1.000000
outer loop
vertex 0.282597 0.056170 -0.000000
vertex 0.282137 0.056059 0.000000
vertex -0.366268 0.988702 0.000000
endloop
endfacet
facet normal 0.000000 0.000000 -1.000000
outer loop
vertex -0.366268 0.988702 0.000000
vertex 0.282137 0.056059 0.000000
vertex 0.281675 0.055958 -0.000000
endloop
endfacet
facet normal 0.000000 0.000000 -1.000000
outer loop
vertex 0.287033 0.054367 0.000000
vertex 0.287041 0.054407 0.000000
vertex 0.287020 0.054203 0.000000
endloop
endfacet
facet normal 0.000000 -0.000000 -1.000000
outer loop
vertex 0.287041 0.054407 0.000000
vertex 0.287050 0.054448 0.000000
vertex 0.287020 0.054203 0.000000
endloop
endfacet
facet normal -0.000000 0.000000 -1.000000
outer loop
vertex 0.287020 0.054203 0.000000
vertex 0.287050 0.054448 0.000000
vertex 0.287061 0.054489 0.000000
endloop
endfacet
facet normal 0.000000 0.000000 -1.000000
outer loop
vertex 0.284221 0.056652 -0.000000
vertex 0.283845 0.056525 -0.000000
vertex -0.366268 0.988702 0.000000
endloop
endfacet
facet normal -0.000000 -0.000000 -1.000000
outer loop
vertex 0.283845 0.056525 -0.000000
vertex 0.283448 0.056402 -0.000000
vertex -0.366268 0.988702 0.000000
endloop
endfacet
facet normal -0.000000 -0.000000 -1.000000
outer loop
vertex -0.366268 0.988702 0.000000
vertex 0.283448 0.056402 -0.000000
vertex 0.283024 0.056281 0.000000
endloop
endfacet
facet normal -0.000000 0.000000 -1.000000
outer loop
vertex 0.287021 0.054244 0.000000
vertex 0.287023 0.054285 0.000000
vertex 0.287020 0.054203 0.000000
endloop
endfacet
facet normal -0.000000 0.000000 -1.000000
outer loop
vertex 0.287023 0.054285 0.000000
vertex 0.287027 0.054326 0.000000
vertex 0.287020 0.054203 0.000000
endloop
endfacet
facet normal -0.000000 0.000000 -1.000000
outer loop
vertex 0.287020 0.054203 0.000000
vertex 0.287027 0.054326 0.000000
vertex 0.287033 0.054367 0.000000
endloop
endfacet
facet normal -0.000000 -0.000000 -1.000000
outer loop
vertex 0.285223 0.057057 -0.000000
vertex 0.284911 0.056918 -0.000000
vertex -0.366268 0.988702 0.000000
endloop
endfacet
facet normal 0.000000 0.000000 -1.000000
outer loop
vertex 0.284911 0.056918 -0.000000
vertex 0.284577 0.056783 -0.000000
vertex -0.366268 0.988702 0.000000
endloop
endfacet
facet normal -0.000000 -0.000000 -1.000000
outer loop
vertex -0.366268 0.988702 0.000000
vertex 0.284577 0.056783 -0.000000
vertex 0.284221 0.056652 -0.000000
endloop
endfacet
facet normal 0.000000 0.000000 -1.000000
outer loop
vertex 0.287020 0.050001 0.000000
vertex 0.288599 0.055933 0.000000
vertex 3.662680 0.000000 0.000000
endloop
endfacet
facet normal 0.000000 0.000000 -1.000000
outer loop
vertex 0.288599 0.055933 0.000000
vertex 0.366268 0.096012 0.000000
vertex 3.662680 0.000000 0.000000
endloop
endfacet
facet normal -0.000000 0.000000 -1.000000
outer loop
vertex 3.662680 0.000000 0.000000
vertex 0.366268 0.096012 0.000000
vertex 3.662680 0.988702 0.000000
endloop
endfacet
facet normal 0.000000 -0.000000 -1.000000
outer loop
vertex 0.366268 0.096012 0.000000
vertex 0.366268 0.098870 -0.000000
vertex 3.662680 0.988702 0.000000
endloop
endfacet
facet normal 0.000000 0.000000 -1.000000
outer loop
vertex 3.662680 0.988702 0.000000
vertex 0.366268 0.098870 -0.000000
vertex -0.366268 0.988702 0.000000
endloop
endfacet
facet normal -0.000000 -0.000000 -1.000000
outer loop
vertex 0.366268 0.098870 -0.000000
vertex 0.285513 0.057199 0.000000
vertex -0.366268 0.988702 0.000000
endloop
endfacet
facet normal 0.000000 0.000000 -1.000000
outer loop
vertex -0.366268 0.988702 0.000000
vertex 0.285513 0.057199 0.000000
vertex 0.285223 0.057057 -0.000000
endloop
endfacet
facet normal 0.000000 -1.000000 0.000000
outer loop
vertex 0.366268 -0.000000 0.098870
vertex 3.662680 0.000000 0.988702
vertex -0.366268 -0.000000 0.988702
endloop
endfacet
facet normal 0.000000 -1.000000 -0.000000
outer loop
vertex 0.285166 -0.000000 0.050000
vertex 0.285166 0.000000 0.000000
vertex 0.287020 -0.000000 0.050001
endloop
endfacet
facet normal 0.000000 -1.000000 -0.000000
outer loop
vertex 0.285166 0.000000 0.000000
vertex 3.662680 0.000000 0.000000
vertex 0.287020 -0.000000 0.050001
endloop
endfacet
facet normal 0.000000 -1.000000 -0.000000
outer loop
vertex -0.366268 -0.000000 0.988702
vertex 0.211157 -0.000000 0.055118
vertex 0.272598 -0.000000 0.055118
endloop
endfacet
facet normal 0.000000 -1.000000 0.000000
outer loop
vertex -0.366268 -0.000000 0.000000
vertex 0.000000 0.000000 0.000000
vertex -0.366268 -0.000000 0.988702
endloop
endfacet
facet normal -0.000000 -1.000000 -0.000000
outer loop
vertex 0.000000 0.000000 0.000000
vertex 0.185166 -0.000000 0.050000
vertex -0.366268 -0.000000 0.988702
endloop
endfacet
facet normal -0.000000 -1.000000 -0.000000
outer loop
vertex -0.366268 -0.000000 0.988702
vertex 0.185166 -0.000000 0.050000
vertex 0.211157 -0.000000 0.055118
endloop
endfacet
facet normal -0.000000 -1.000000 -0.000000
outer loop
vertex 0.272598 -0.000000 0.055118
vertex 0.273209 -0.000000 0.055121
vertex -0.366268 -0.000000 0.988702
endloop
endfacet
facet normal -0.000000 -1.000000 -0.000000
outer loop
vertex 0.273209 -0.000000 0.055121
vertex 0.273821 -0.000000 0.055132
vertex -0.366268 -0.000000 0.988702
endloop
endfacet
facet normal 0.000000 -1.000000 0.000000
outer loop
vertex -0.366268 -0.000000 0.988702
vertex 0.273821 -0.000000 0.055132
vertex 0.274432 0.000000 0.055149
endloop
endfacet
facet normal -0.000000 -1.000000 0.000000
outer loop
vertex 0.287020 -0.000000 0.054203
vertex 0.287457 0.000000 0.055132
vertex 0.287420 0.000000 0.055093
endloop
endfacet
facet normal 0.000000 -1.000000 0.000000
outer loop
vertex 3.662680 0.000000 0.988702
vertex 0.366268 -0.000000 0.098870
vertex 3.662680 0.000000 0.000000
endloop
endfacet
facet normal -0.000000 -1.000000 -0.000000
outer loop
vertex 0.366268 -0.000000 0.098870
vertex 0.366268 -0.000000 0.096012
vertex 3.662680 0.000000 0.000000
endloop
endfacet
facet normal 0.000000 -1.000000 -0.000000
outer loop
vertex 3.662680 0.000000 0.000000
vertex 0.366268 -0.000000 0.096012
vertex 0.287020 -0.000000 0.050001
endloop
endfacet
facet normal 0.000000 -1.000000 -0.000000
outer loop
vertex 0.366268 -0.000000 0.096012
vertex 0.288599 -0.000000 0.055933
vertex 0.287020 -0.000000 0.050001
endloop
endfacet
facet normal -0.000000 -1.000000 -0.000000
outer loop
vertex 0.287020 -0.000000 0.050001
vertex 0.288599 -0.000000 0.055933
vertex 0.287020 -0.000000 0.054203
endloop
endfacet
facet normal -0.000000 -1.000000 0.000000
outer loop
vertex 0.288599 -0.000000 0.055933
vertex 0.288461 0.000000 0.055860
vertex 0.287020 -0.000000 0.054203
endloop
endfacet
facet normal -0.000000 -1.000000 0.000000
outer loop
vertex 0.287020 -0.000000 0.054203
vertex 0.288461 0.000000 0.055860
vertex 0.288329 0.000000 0.055786
endloop
endfacet
facet normal -0.000000 -1.000000 -0.000000
outer loop
vertex 0.274432 0.000000 0.055149
vertex 0.275034 -0.000000 0.055172
vertex -0.366268 -0.000000 0.988702
endloop
endfacet
facet normal -0.000000 -1.000000 -0.000000
outer loop
vertex 0.275034 -0.000000 0.055172
vertex 0.275635 -0.000000 0.055203
vertex -0.366268 -0.000000 0.988702
endloop
endfacet
facet normal 0.000000 -1.000000 0.000000
outer loop
vertex -0.366268 -0.000000 0.988702
vertex 0.275635 -0.000000 0.055203
vertex 0.276237 0.000000 0.055240
endloop
endfacet
facet normal -0.000000 -1.000000 0.000000
outer loop
vertex 0.287420 0.000000 0.055093
vertex 0.287385 0.000000 0.055053
vertex 0.287020 -0.000000 0.054203
endloop
endfacet
facet normal -0.000000 -1.000000 0.000000
outer loop
vertex 0.287385 0.000000 0.055053
vertex 0.287351 0.000000 0.055013
vertex 0.287020 -0.000000 0.054203
endloop
endfacet
facet normal -0.000000 -1.000000 0.000000
outer loop
vertex 0.287020 -0.000000 0.054203
vertex 0.287351 0.000000 0.055013
vertex 0.287319 0.000000 0.054973
endloop
endfacet
facet normal -0.000000 -1.000000 0.000000
outer loop
vertex 0.288329 0.000000 0.055786
vertex 0.288203 0.000000 0.055711
vertex 0.287020 -0.000000 0.054203
endloop
endfacet
facet normal -0.000000 -1.000000 0.000000
outer loop
vertex 0.288203 0.000000 0.055711
vertex 0.288084 0.000000 0.055636
vertex 0.287020 -0.000000 0.054203
endloop
endfacet
facet normal -0.000000 -1.000000 0.000000
outer loop
vertex 0.287020 -0.000000 0.054203
vertex 0.288084 0.000000 0.055636
vertex 0.287970 0.000000 0.055560
endloop
endfacet
facet normal -0.000000 -1.000000 -0.000000
outer loop
vertex 0.276237 0.000000 0.055240
vertex 0.276819 -0.000000 0.055283
vertex -0.366268 -0.000000 0.988702
endloop
endfacet
facet normal -0.000000 -1.000000 -0.000000
outer loop
vertex 0.276819 -0.000000 0.055283
vertex 0.277401 -0.000000 0.055333
vertex -0.366268 -0.000000 0.988702
endloop
endfacet
facet normal 0.000000 -1.000000 0.000000
outer loop
vertex -0.366268 -0.000000 0.988702
vertex 0.277401 -0.000000 0.055333
vertex 0.277983 0.000000 0.055391
endloop
endfacet
facet normal -0.000000 -1.000000 0.000000
outer loop
vertex 0.287319 0.000000 0.054973
vertex 0.287288 0.000000 0.054933
vertex 0.287020 -0.000000 0.054203
endloop
endfacet
facet normal -0.000000 -1.000000 0.000000
outer loop
vertex 0.287288 0.000000 0.054933
vertex 0.287259 0.000000 0.054893
vertex 0.287020 -0.000000 0.054203
endloop
endfacet
facet normal -0.000000 -1.000000 0.000000
outer loop
vertex 0.287020 -0.000000 0.054203
vertex 0.287259 0.000000 0.054893
vertex 0.287232 0.000000 0.054853
endloop
endfacet
facet normal -0.000000 -1.000000 0.000000
outer loop
vertex 0.287970 0.000000 0.055560
vertex 0.287863 0.000000 0.055484
vertex 0.287020 -0.000000 0.054203
endloop
endfacet
facet normal -0.000000 -1.000000 0.000000
outer loop
vertex 0.287863 0.000000 0.055484
vertex 0.287761 0.000000 0.055406
vertex 0.287020 -0.000000 0.054203
endloop
endfacet
facet normal -0.000000 -1.000000 0.000000
outer loop
vertex 0.287020 -0.000000 0.054203
vertex 0.287761 0.000000 0.055406
vertex 0.287667 0.000000 0.055329
endloop
endfacet
facet normal -0.000000 -1.000000 -0.000000
outer loop
vertex 0.277983 0.000000 0.055391
vertex 0.278537 -0.000000 0.055452
vertex -0.366268 -0.000000 0.988702
endloop
endfacet
facet normal -0.000000 -1.000000 -0.000000
outer loop
vertex 0.278537 -0.000000 0.055452
vertex 0.279090 -0.000000 0.055522
vertex -0.366268 -0.000000 0.988702
endloop
endfacet
facet normal 0.000000 -1.000000 0.000000
outer loop
vertex -0.366268 -0.000000 0.988702
vertex 0.279090 -0.000000 0.055522
vertex 0.279642 0.000000 0.055598
endloop
endfacet
facet normal -0.000000 -1.000000 0.000000
outer loop
vertex 0.287667 0.000000 0.055329
vertex 0.287578 0.000000 0.055251
vertex 0.287020 -0.000000 0.054203
endloop
endfacet
facet normal -0.000000 -1.000000 0.000000
outer loop
vertex 0.287578 0.000000 0.055251
vertex 0.287496 0.000000 0.055172
vertex 0.287020 -0.000000 0.054203
endloop
endfacet
facet normal -0.000000 -1.000000 0.000000
outer loop
vertex 0.287020 -0.000000 0.054203
vertex 0.287496 0.000000 0.055172
vertex 0.287457 0.000000 0.055132
endloop
endfacet
facet normal -0.000000 -1.000000 0.000000
outer loop
vertex 0.287232 0.000000 0.054853
vertex 0.287207 0.000000 0.054813
vertex 0.287020 -0.000000 0.054203
endloop
endfacet
facet normal -0.000000 -1.000000 0.000000
outer loop
vertex 0.287207 0.000000 0.054813
vertex 0.287183 0.000000 0.054772
vertex 0.287020 -0.000000 0.054203
endloop
endfacet
facet normal -0.000000 -1.000000 0.000000
outer loop
vertex 0.287020 -0.000000 0.054203
vertex 0.287183 0.000000 0.054772
vertex 0.287160 0.000000 0.054732
endloop
endfacet
facet normal -0.000000 -1.000000 -0.000000
outer loop
vertex 0.279642 0.000000 0.055598
vertex 0.280166 -0.000000 0.055679
vertex -0.366268 -0.000000 0.988702
endloop
endfacet
facet normal 0.000000 -1.000000 0.000000
outer loop
vertex 0.280166 -0.000000 0.055679
vertex 0.280687 0.000000 0.055767
vertex -0.366268 -0.000000 0.988702
endloop
endfacet
facet normal -0.000000 -1.000000 -0.000000
outer loop
vertex -0.366268 -0.000000 0.988702
vertex 0.280687 0.000000 0.055767
vertex 0.281182 -0.000000 0.055858
endloop
endfacet
facet normal -0.000000 -1.000000 0.000000
outer loop
vertex 0.287160 0.000000 0.054732
vertex 0.287139 0.000000 0.054692
vertex 0.287020 -0.000000 0.054203
endloop
endfacet
facet normal -0.000000 -1.000000 0.000000
outer loop
vertex 0.287139 0.000000 0.054692
vertex 0.287120 0.000000 0.054651
vertex 0.287020 -0.000000 0.054203
endloop
endfacet
facet normal -0.000000 -1.000000 0.000000
outer loop
vertex 0.287020 -0.000000 0.054203
vertex 0.287120 0.000000 0.054651
vertex 0.287103 0.000000 0.054611
endloop
endfacet
facet normal 0.000000 -1.000000 0.000000
outer loop
vertex 0.281182 -0.000000 0.055858
vertex 0.281675 0.000000 0.055958
vertex -0.366268 -0.000000 0.988702
endloop
endfacet
facet normal -0.000000 -1.000000 -0.000000
outer loop
vertex 0.281675 0.000000 0.055958
vertex 0.282137 -0.000000 0.056059
vertex -0.366268 -0.000000 0.988702
endloop
endfacet
facet normal 0.000000 -1.000000 0.000000
outer loop
vertex -0.366268 -0.000000 0.988702
vertex 0.282137 -0.000000 0.056059
vertex 0.282597 0.000000 0.056170
endloop
endfacet
facet normal -0.000000 -1.000000 0.000000
outer loop
vertex 0.287103 0.000000 0.054611
vertex 0.287087 0.000000 0.054570
vertex 0.287020 -0.000000 0.054203
endloop
endfacet
facet normal -0.000000 -1.000000 0.000000
outer loop
vertex 0.287087 0.000000 0.054570
vertex 0.287073 0.000000 0.054529
vertex 0.287020 -0.000000 0.054203
endloop
endfacet
facet normal -0.000000 -1.000000 0.000000
outer loop
vertex 0.287020 -0.000000 0.054203
vertex 0.287073 0.000000 0.054529
vertex 0.287061 0.000000 0.054489
endloop
endfacet
facet normal -0.000000 -1.000000 0.000000
outer loop
vertex 0.287061 0.000000 0.054489
vertex 0.287050 0.000000 0.054448
vertex 0.287020 -0.000000 0.054203
endloop
endfacet
facet normal -0.000000 -1.000000 0.000000
outer loop
vertex 0.287050 0.000000 0.054448
vertex 0.287041 0.000000 0.054407
vertex 0.287020 -0.000000 0.054203
endloop
endfacet
facet normal -0.000000 -1.000000 0.000000
outer loop
vertex 0.287020 -0.000000 0.054203
vertex 0.287041 0.000000 0.054407
vertex 0.287033 0.000000 0.054367
endloop
endfacet
facet normal -0.000000 -1.000000 -0.000000
outer loop
vertex 0.282597 0.000000 0.056170
vertex 0.283024 -0.000000 0.056281
vertex -0.366268 -0.000000 0.988702
endloop
endfacet
facet normal 0.000000 -1.000000 0.000000
outer loop
vertex 0.283024 -0.000000 0.056281
vertex 0.283448 0.000000 0.056402
vertex -0.366268 -0.000000 0.988702
endloop
endfacet
facet normal 0.000000 -1.000000 -0.000000
outer loop
vertex -0.366268 -0.000000 0.988702
vertex 0.283448 0.000000 0.056402
vertex 0.283845 0.000000 0.056525
endloop
endfacet
facet normal -0.000000 -1.000000 0.000000
outer loop
vertex 0.287033 0.000000 0.054367
vertex 0.287027 0.000000 0.054326
vertex 0.287020 -0.000000 0.054203
endloop
endfacet
facet normal -0.000000 -1.000000 0.000000
outer loop
vertex 0.287027 0.000000 0.054326
vertex 0.287023 0.000000 0.054285
vertex 0.287020 -0.000000 0.054203
endloop
endfacet
facet normal -0.000000 -1.000000 0.000000
outer loop
vertex 0.287020 -0.000000 0.054203
vertex 0.287023 0.000000 0.054285
vertex 0.287021 0.000000 0.054244
endloop
endfacet
facet normal 0.000000 -1.000000 -0.000000
outer loop
vertex 0.283845 0.000000 0.056525
vertex 0.284221 0.000000 0.056652
vertex -0.366268 -0.000000 0.988702
endloop
endfacet
facet normal 0.000000 -1.000000 -0.000000
outer loop
vertex 0.284221 0.000000 0.056652
vertex 0.284577 0.000000 0.056783
vertex -0.366268 -0.000000 0.988702
endloop
endfacet
facet normal 0.000000 -1.000000 -0.000000
outer loop
vertex -0.366268 -0.000000 0.988702
vertex 0.284577 0.000000 0.056783
vertex 0.284911 0.000000 0.056918
endloop
endfacet
facet normal 0.000000 -1.000000 -0.000000
outer loop
vertex 0.284911 0.000000 0.056918
vertex 0.285223 0.000000 0.057057
vertex -0.366268 -0.000000 0.988702
endloop
endfacet
facet normal -0.000000 -1.000000 -0.000000
outer loop
vertex 0.285223 0.000000 0.057057
vertex 0.285513 -0.000000 0.057199
vertex -0.366268 -0.000000 0.988702
endloop
endfacet
facet normal -0.000000 -1.000000 -0.000000
outer loop
vertex -0.366268 -0.000000 0.988702
vertex 0.285513 -0.000000 0.057199
vertex 0.366268 -0.000000 0.098870
endloop
endfacet
endsolid symmetry1
